G04 #@! TF.GenerationSoftware,KiCad,Pcbnew,(5.1.6-0-10_14)*
G04 #@! TF.CreationDate,2021-04-01T01:52:38+02:00*
G04 #@! TF.ProjectId,ESCv1.1,45534376-312e-4312-9e6b-696361645f70,rev?*
G04 #@! TF.SameCoordinates,Original*
G04 #@! TF.FileFunction,Profile,NP*
%FSLAX46Y46*%
G04 Gerber Fmt 4.6, Leading zero omitted, Abs format (unit mm)*
G04 Created by KiCad (PCBNEW (5.1.6-0-10_14)) date 2021-04-01 01:52:38*
%MOMM*%
%LPD*%
G01*
G04 APERTURE LIST*
G04 #@! TA.AperFunction,Profile*
%ADD10C,0.050000*%
G04 #@! TD*
G04 APERTURE END LIST*
D10*
X63125400Y-27662700D02*
X63125400Y-84662700D01*
X60875400Y-25412700D02*
G75*
G02*
X63125400Y-27662700I0J-2250000D01*
G01*
X38125400Y-27662700D02*
G75*
G02*
X40375400Y-25412700I2250000J0D01*
G01*
X40375400Y-86912700D02*
G75*
G02*
X38125400Y-84662700I0J2250000D01*
G01*
X63125400Y-84662700D02*
G75*
G02*
X60875400Y-86912700I-2250000J0D01*
G01*
X60875400Y-86912700D02*
X40375400Y-86912700D01*
X38125400Y-43702700D02*
X38125400Y-84662700D01*
X40375400Y-25412700D02*
X40871140Y-25412700D01*
X38125400Y-31639040D02*
X38125400Y-27662700D01*
X35835140Y-31893040D02*
X35835140Y-35957040D01*
X35835140Y-35957040D02*
X38125400Y-36211040D01*
X35835140Y-31893040D02*
X38125400Y-31639040D01*
X35835140Y-39386040D02*
X38125400Y-39132040D01*
X35835140Y-43450040D02*
X38125400Y-43702700D01*
X35835140Y-39386040D02*
X35835140Y-43450040D01*
X60200540Y-23129080D02*
X60454540Y-25412700D01*
X56136540Y-23129080D02*
X55882540Y-25415080D01*
X60200540Y-23129080D02*
X56136540Y-23129080D01*
X52707540Y-23129080D02*
X52961540Y-25415080D01*
X48643540Y-23129080D02*
X48389540Y-25415080D01*
X52707540Y-23129080D02*
X48643540Y-23129080D01*
X45189140Y-23129080D02*
X45443140Y-25415080D01*
X41125140Y-23129080D02*
X40871140Y-25412700D01*
X45189140Y-23129080D02*
X41125140Y-23129080D01*
X45443140Y-25415080D02*
X48389540Y-25415080D01*
X52961540Y-25415080D02*
X55882540Y-25415080D01*
X60454540Y-25412700D02*
X60875400Y-25412700D01*
X38125400Y-39132040D02*
X38125400Y-36211040D01*
M02*
