M48
INCH,TZ
T1C0.0118
T2C0.0157
T3C0.0300
T4C0.0394
T5C0.0512
T6C0.0787
%
G90
G05
T1
X15569Y-32477
X16286Y-12355
X16585Y-22544
X16664Y-29214
X16691Y-31214
X16750Y-21005
X16888Y-33639
X16927Y-29974
X17061Y-20737
X17404Y-20855
X17408Y-20485
X17437Y-17373
X17471Y-30584
X17664Y-25462
X17703Y-18962
X17801Y-27745
X17927Y-18170
X18006Y-31883
X18030Y-22733
X18030Y-23603
X18479Y-27273
X18565Y-13076
X18986Y-29769
X18994Y-31316
X19061Y-28540
X19097Y-17127
X19097Y-17383
X19097Y-17655
X19471Y-26631
X19524Y-33755
X19797Y-17123
X19810Y-17382
X19810Y-17638
X19994Y-26659
X19998Y-21588
X20014Y-23603
X20175Y-31674
X20415Y-17388
X20415Y-17659
X20431Y-17127
X20632Y-22855
X20734Y-27674
X20841Y-21895
X20923Y-24560
X21305Y-28785
X21321Y-29816
X21333Y-30958
X21490Y-24911
X21845Y-27017
X21884Y-23395
X22049Y-22363
X22238Y-28985
X22238Y-33619
X22612Y-25084
X22793Y-30938
X22927Y-27257
X22931Y-24214
X22939Y-25954
X23057Y-32706
X23337Y-20162
X23341Y-19166
X19404Y-18519
X19404Y-19011
X19404Y-19503
X19404Y-19995
X19797Y-18519
X19797Y-19011
X19797Y-19503
X19797Y-19995
X20191Y-18519
X20191Y-19011
X20191Y-19503
X20191Y-19995
X18156Y-17225
X18156Y-17698
T2
X22880Y-21851
X16405Y-10374
X16504Y-9980
X16602Y-9586
X16996Y-9586
X16996Y-10374
X17390Y-9586
X17488Y-9980
X17586Y-10374
X19360Y-10374
X19459Y-9980
X19557Y-9586
X19951Y-9586
X19951Y-10374
X20344Y-9586
X20443Y-9980
X20541Y-10374
X22313Y-10374
X22411Y-9980
X22510Y-9586
X22903Y-9586
X22903Y-10374
X23297Y-9586
X23396Y-9980
X23494Y-10374
X14612Y-12957
X14612Y-13351
X14612Y-13744
X14612Y-15912
X14612Y-16306
X14612Y-16699
X15006Y-12859
X15006Y-13843
X15006Y-15813
X15006Y-16798
X15399Y-12760
X15399Y-13351
X15399Y-13941
X15399Y-15715
X15399Y-16306
X15399Y-16896
T3
X15930Y-18712
X15930Y-19712
X15930Y-20712
X15930Y-21712
X15930Y-22712
X15930Y-23712
X15930Y-24712
X15930Y-25712
X15930Y-26712
X15930Y-27712
X15930Y-28712
X15930Y-29712
X15930Y-30712
X15930Y-31712
X23930Y-18712
X23930Y-19712
X23930Y-20712
X23930Y-21712
X23930Y-22712
X23930Y-23712
X23930Y-24712
X23930Y-25712
X23930Y-26712
X23930Y-27712
X23930Y-28712
X23930Y-29712
X23930Y-30712
X23930Y-31712
T4
X16992Y-9980
X19947Y-9980
X22899Y-9980
X15006Y-13355
X15006Y-16309
T5
X17978Y-10980
X19947Y-10980
X21916Y-10980
X16006Y-13841
X16006Y-15809
T6
X15895Y-10890
X23965Y-10890
T0
M30
