G04 #@! TF.GenerationSoftware,KiCad,Pcbnew,(5.1.6-0-10_14)*
G04 #@! TF.CreationDate,2021-05-21T16:06:13+02:00*
G04 #@! TF.ProjectId,ESCv1.1,45534376-312e-4312-9e6b-696361645f70,rev?*
G04 #@! TF.SameCoordinates,Original*
G04 #@! TF.FileFunction,Legend,Top*
G04 #@! TF.FilePolarity,Positive*
%FSLAX46Y46*%
G04 Gerber Fmt 4.6, Leading zero omitted, Abs format (unit mm)*
G04 Created by KiCad (PCBNEW (5.1.6-0-10_14)) date 2021-05-21 16:06:13*
%MOMM*%
%LPD*%
G01*
G04 APERTURE LIST*
%ADD10C,0.100000*%
%ADD11C,0.150000*%
%ADD12C,0.120000*%
%ADD13C,0.200000*%
%ADD14C,0.300000*%
%ADD15C,0.010000*%
G04 APERTURE END LIST*
D10*
X62637304Y-47772223D02*
X62103971Y-47353176D01*
X62103971Y-47772223D02*
X62637304Y-47353176D01*
X61947304Y-50918890D02*
X62747304Y-50652223D01*
X61947304Y-50385557D01*
X62747304Y-50118890D02*
X61947304Y-50118890D01*
X62747304Y-49737938D02*
X61947304Y-49737938D01*
X62747304Y-49280795D01*
X61947304Y-49280795D01*
D11*
X57178257Y-70214128D02*
X56987780Y-69680795D01*
X56797304Y-70214128D01*
X56073495Y-69680795D02*
X56530638Y-69680795D01*
X56302066Y-69680795D02*
X56302066Y-70480795D01*
X56378257Y-70366509D01*
X56454447Y-70290319D01*
X56530638Y-70252223D01*
X55730638Y-69756985D02*
X55692542Y-69718890D01*
X55730638Y-69680795D01*
X55768733Y-69718890D01*
X55730638Y-69756985D01*
X55730638Y-69680795D01*
X54930638Y-69680795D02*
X55387780Y-69680795D01*
X55159209Y-69680795D02*
X55159209Y-70480795D01*
X55235400Y-70366509D01*
X55311590Y-70290319D01*
X55387780Y-70252223D01*
D12*
X53481969Y-51662700D02*
G75*
G03*
X53481969Y-51662700I-56569J0D01*
G01*
D10*
X57694447Y-83618890D02*
X57580161Y-83580795D01*
X57389685Y-83580795D01*
X57313495Y-83618890D01*
X57275400Y-83656985D01*
X57237304Y-83733176D01*
X57237304Y-83809366D01*
X57275400Y-83885557D01*
X57313495Y-83923652D01*
X57389685Y-83961747D01*
X57542066Y-83999842D01*
X57618257Y-84037938D01*
X57656352Y-84076033D01*
X57694447Y-84152223D01*
X57694447Y-84228414D01*
X57656352Y-84304604D01*
X57618257Y-84342700D01*
X57542066Y-84380795D01*
X57351590Y-84380795D01*
X57237304Y-84342700D01*
X56894447Y-83580795D02*
X56894447Y-84380795D01*
X56589685Y-84380795D01*
X56513495Y-84342700D01*
X56475400Y-84304604D01*
X56437304Y-84228414D01*
X56437304Y-84114128D01*
X56475400Y-84037938D01*
X56513495Y-83999842D01*
X56589685Y-83961747D01*
X56894447Y-83961747D01*
X56094447Y-83580795D02*
X56094447Y-84380795D01*
D13*
X58492542Y-29427223D02*
X58492542Y-28415319D01*
X58433019Y-28296271D01*
X58373495Y-28236747D01*
X58254447Y-28177223D01*
X58016352Y-28177223D01*
X57897304Y-28236747D01*
X57837780Y-28296271D01*
X57778257Y-28415319D01*
X57778257Y-29427223D01*
X51092066Y-30967223D02*
X50675400Y-29717223D01*
X50258733Y-30967223D01*
X43601114Y-29487223D02*
X43303495Y-28237223D01*
X43065400Y-29130080D01*
X42827304Y-28237223D01*
X42529685Y-29487223D01*
D11*
X57229504Y-76320619D02*
X57229504Y-76987285D01*
X57229504Y-76796809D02*
X57181885Y-76892047D01*
X57134266Y-76939666D01*
X57039028Y-76987285D01*
X56943790Y-76987285D01*
X56467600Y-76320619D02*
X56562838Y-76368238D01*
X56610457Y-76415857D01*
X56658076Y-76511095D01*
X56658076Y-76796809D01*
X56610457Y-76892047D01*
X56562838Y-76939666D01*
X56467600Y-76987285D01*
X56324742Y-76987285D01*
X56229504Y-76939666D01*
X56181885Y-76892047D01*
X56134266Y-76796809D01*
X56134266Y-76511095D01*
X56181885Y-76415857D01*
X56229504Y-76368238D01*
X56324742Y-76320619D01*
X56467600Y-76320619D01*
X55705695Y-76320619D02*
X55705695Y-77320619D01*
X55705695Y-76939666D02*
X55610457Y-76987285D01*
X55419980Y-76987285D01*
X55324742Y-76939666D01*
X55277123Y-76892047D01*
X55229504Y-76796809D01*
X55229504Y-76511095D01*
X55277123Y-76415857D01*
X55324742Y-76368238D01*
X55419980Y-76320619D01*
X55610457Y-76320619D01*
X55705695Y-76368238D01*
X54658076Y-76320619D02*
X54753314Y-76368238D01*
X54800933Y-76415857D01*
X54848552Y-76511095D01*
X54848552Y-76796809D01*
X54800933Y-76892047D01*
X54753314Y-76939666D01*
X54658076Y-76987285D01*
X54515219Y-76987285D01*
X54419980Y-76939666D01*
X54372361Y-76892047D01*
X54324742Y-76796809D01*
X54324742Y-76511095D01*
X54372361Y-76415857D01*
X54419980Y-76368238D01*
X54515219Y-76320619D01*
X54658076Y-76320619D01*
X53896171Y-76844428D02*
X53562838Y-76844428D01*
X53419980Y-76320619D02*
X53896171Y-76320619D01*
X53896171Y-77320619D01*
X53419980Y-77320619D01*
X53039028Y-76368238D02*
X52896171Y-76320619D01*
X52658076Y-76320619D01*
X52562838Y-76368238D01*
X52515219Y-76415857D01*
X52467600Y-76511095D01*
X52467600Y-76606333D01*
X52515219Y-76701571D01*
X52562838Y-76749190D01*
X52658076Y-76796809D01*
X52848552Y-76844428D01*
X52943790Y-76892047D01*
X52991409Y-76939666D01*
X53039028Y-77034904D01*
X53039028Y-77130142D01*
X52991409Y-77225380D01*
X52943790Y-77273000D01*
X52848552Y-77320619D01*
X52610457Y-77320619D01*
X52467600Y-77273000D01*
X51467600Y-76415857D02*
X51515219Y-76368238D01*
X51658076Y-76320619D01*
X51753314Y-76320619D01*
X51896171Y-76368238D01*
X51991409Y-76463476D01*
X52039028Y-76558714D01*
X52086647Y-76749190D01*
X52086647Y-76892047D01*
X52039028Y-77082523D01*
X51991409Y-77177761D01*
X51896171Y-77273000D01*
X51753314Y-77320619D01*
X51658076Y-77320619D01*
X51515219Y-77273000D01*
X51467600Y-77225380D01*
X50324742Y-76368238D02*
X50181885Y-76320619D01*
X49943790Y-76320619D01*
X49848552Y-76368238D01*
X49800933Y-76415857D01*
X49753314Y-76511095D01*
X49753314Y-76606333D01*
X49800933Y-76701571D01*
X49848552Y-76749190D01*
X49943790Y-76796809D01*
X50134266Y-76844428D01*
X50229504Y-76892047D01*
X50277123Y-76939666D01*
X50324742Y-77034904D01*
X50324742Y-77130142D01*
X50277123Y-77225380D01*
X50229504Y-77273000D01*
X50134266Y-77320619D01*
X49896171Y-77320619D01*
X49753314Y-77273000D01*
X57153304Y-74441019D02*
X57153304Y-75441019D01*
X56819971Y-74726733D01*
X56486638Y-75441019D01*
X56486638Y-74441019D01*
X56010447Y-74441019D02*
X56010447Y-75441019D01*
X55439019Y-74441019D02*
X55867590Y-75012447D01*
X55439019Y-75441019D02*
X56010447Y-74869590D01*
X54439019Y-74441019D02*
X54772352Y-74917209D01*
X55010447Y-74441019D02*
X55010447Y-75441019D01*
X54629495Y-75441019D01*
X54534257Y-75393400D01*
X54486638Y-75345780D01*
X54439019Y-75250542D01*
X54439019Y-75107685D01*
X54486638Y-75012447D01*
X54534257Y-74964828D01*
X54629495Y-74917209D01*
X55010447Y-74917209D01*
X52867590Y-74488638D02*
X52962828Y-74441019D01*
X53153304Y-74441019D01*
X53248542Y-74488638D01*
X53296161Y-74583876D01*
X53296161Y-74964828D01*
X53248542Y-75060066D01*
X53153304Y-75107685D01*
X52962828Y-75107685D01*
X52867590Y-75060066D01*
X52819971Y-74964828D01*
X52819971Y-74869590D01*
X53296161Y-74774352D01*
X51962828Y-74441019D02*
X51962828Y-75441019D01*
X51962828Y-74488638D02*
X52058066Y-74441019D01*
X52248542Y-74441019D01*
X52343780Y-74488638D01*
X52391400Y-74536257D01*
X52439019Y-74631495D01*
X52439019Y-74917209D01*
X52391400Y-75012447D01*
X52343780Y-75060066D01*
X52248542Y-75107685D01*
X52058066Y-75107685D01*
X51962828Y-75060066D01*
X51486638Y-74441019D02*
X51486638Y-75107685D01*
X51486638Y-75441019D02*
X51534257Y-75393400D01*
X51486638Y-75345780D01*
X51439019Y-75393400D01*
X51486638Y-75441019D01*
X51486638Y-75345780D01*
X51153304Y-75107685D02*
X50772352Y-75107685D01*
X51010447Y-75441019D02*
X51010447Y-74583876D01*
X50962828Y-74488638D01*
X50867590Y-74441019D01*
X50772352Y-74441019D01*
X50439019Y-74441019D02*
X50439019Y-75107685D01*
X50439019Y-75441019D02*
X50486638Y-75393400D01*
X50439019Y-75345780D01*
X50391400Y-75393400D01*
X50439019Y-75441019D01*
X50439019Y-75345780D01*
X49819971Y-74441019D02*
X49915209Y-74488638D01*
X49962828Y-74536257D01*
X50010447Y-74631495D01*
X50010447Y-74917209D01*
X49962828Y-75012447D01*
X49915209Y-75060066D01*
X49819971Y-75107685D01*
X49677114Y-75107685D01*
X49581876Y-75060066D01*
X49534257Y-75012447D01*
X49486638Y-74917209D01*
X49486638Y-74631495D01*
X49534257Y-74536257D01*
X49581876Y-74488638D01*
X49677114Y-74441019D01*
X49819971Y-74441019D01*
X49058066Y-75107685D02*
X49058066Y-74441019D01*
X49058066Y-75012447D02*
X49010447Y-75060066D01*
X48915209Y-75107685D01*
X48772352Y-75107685D01*
X48677114Y-75060066D01*
X48629495Y-74964828D01*
X48629495Y-74441019D01*
X56585400Y-72020319D02*
X56661590Y-72058414D01*
X56813971Y-72058414D01*
X56890161Y-72020319D01*
X56966352Y-71944128D01*
X57004447Y-71867938D01*
X57004447Y-71715557D01*
X56966352Y-71639366D01*
X56890161Y-71563176D01*
X56813971Y-71525080D01*
X56661590Y-71525080D01*
X56585400Y-71563176D01*
X56737780Y-72325080D02*
X56928257Y-72286985D01*
X57118733Y-72172700D01*
X57233019Y-71982223D01*
X57271114Y-71791747D01*
X57233019Y-71601271D01*
X57118733Y-71410795D01*
X56928257Y-71296509D01*
X56737780Y-71258414D01*
X56547304Y-71296509D01*
X56356828Y-71410795D01*
X56242542Y-71601271D01*
X56204447Y-71791747D01*
X56242542Y-71982223D01*
X56356828Y-72172700D01*
X56547304Y-72286985D01*
X56737780Y-72325080D01*
X55899685Y-72134604D02*
X55861590Y-72172700D01*
X55785400Y-72210795D01*
X55594923Y-72210795D01*
X55518733Y-72172700D01*
X55480638Y-72134604D01*
X55442542Y-72058414D01*
X55442542Y-71982223D01*
X55480638Y-71867938D01*
X55937780Y-71410795D01*
X55442542Y-71410795D01*
X54947304Y-72210795D02*
X54871114Y-72210795D01*
X54794923Y-72172700D01*
X54756828Y-72134604D01*
X54718733Y-72058414D01*
X54680638Y-71906033D01*
X54680638Y-71715557D01*
X54718733Y-71563176D01*
X54756828Y-71486985D01*
X54794923Y-71448890D01*
X54871114Y-71410795D01*
X54947304Y-71410795D01*
X55023495Y-71448890D01*
X55061590Y-71486985D01*
X55099685Y-71563176D01*
X55137780Y-71715557D01*
X55137780Y-71906033D01*
X55099685Y-72058414D01*
X55061590Y-72134604D01*
X55023495Y-72172700D01*
X54947304Y-72210795D01*
X54375876Y-72134604D02*
X54337780Y-72172700D01*
X54261590Y-72210795D01*
X54071114Y-72210795D01*
X53994923Y-72172700D01*
X53956828Y-72134604D01*
X53918733Y-72058414D01*
X53918733Y-71982223D01*
X53956828Y-71867938D01*
X54413971Y-71410795D01*
X53918733Y-71410795D01*
X53156828Y-71410795D02*
X53613971Y-71410795D01*
X53385400Y-71410795D02*
X53385400Y-72210795D01*
X53461590Y-72096509D01*
X53537780Y-72020319D01*
X53613971Y-71982223D01*
X52204447Y-71410795D02*
X52204447Y-71944128D01*
X52204447Y-71791747D02*
X52166352Y-71867938D01*
X52128257Y-71906033D01*
X52052066Y-71944128D01*
X51975876Y-71944128D01*
X51366352Y-71944128D02*
X51366352Y-71410795D01*
X51709209Y-71944128D02*
X51709209Y-71525080D01*
X51671114Y-71448890D01*
X51594923Y-71410795D01*
X51480638Y-71410795D01*
X51404447Y-71448890D01*
X51366352Y-71486985D01*
X50985400Y-71944128D02*
X50985400Y-71410795D01*
X50985400Y-71867938D02*
X50947304Y-71906033D01*
X50871114Y-71944128D01*
X50756828Y-71944128D01*
X50680638Y-71906033D01*
X50642542Y-71829842D01*
X50642542Y-71410795D01*
X49918733Y-71944128D02*
X49918733Y-71296509D01*
X49956828Y-71220319D01*
X49994923Y-71182223D01*
X50071114Y-71144128D01*
X50185400Y-71144128D01*
X50261590Y-71182223D01*
X49918733Y-71448890D02*
X49994923Y-71410795D01*
X50147304Y-71410795D01*
X50223495Y-71448890D01*
X50261590Y-71486985D01*
X50299685Y-71563176D01*
X50299685Y-71791747D01*
X50261590Y-71867938D01*
X50223495Y-71906033D01*
X50147304Y-71944128D01*
X49994923Y-71944128D01*
X49918733Y-71906033D01*
X49233019Y-71448890D02*
X49309209Y-71410795D01*
X49461590Y-71410795D01*
X49537780Y-71448890D01*
X49575876Y-71525080D01*
X49575876Y-71829842D01*
X49537780Y-71906033D01*
X49461590Y-71944128D01*
X49309209Y-71944128D01*
X49233019Y-71906033D01*
X49194923Y-71829842D01*
X49194923Y-71753652D01*
X49575876Y-71677461D01*
X48852066Y-71410795D02*
X48852066Y-71944128D01*
X48852066Y-71791747D02*
X48813971Y-71867938D01*
X48775876Y-71906033D01*
X48699685Y-71944128D01*
X48623495Y-71944128D01*
D14*
X43122542Y-34534128D02*
X43122542Y-33391271D01*
X43693971Y-33962700D02*
X42551114Y-33962700D01*
X43242542Y-41754128D02*
X43242542Y-40611271D01*
D10*
X61945400Y-55816271D02*
X61907304Y-55892461D01*
X61907304Y-56006747D01*
X61945400Y-56121033D01*
X62021590Y-56197223D01*
X62097780Y-56235319D01*
X62250161Y-56273414D01*
X62364447Y-56273414D01*
X62516828Y-56235319D01*
X62593019Y-56197223D01*
X62669209Y-56121033D01*
X62707304Y-56006747D01*
X62707304Y-55930557D01*
X62669209Y-55816271D01*
X62631114Y-55778176D01*
X62364447Y-55778176D01*
X62364447Y-55930557D01*
X62707304Y-55435319D02*
X61907304Y-55435319D01*
X62707304Y-54978176D01*
X61907304Y-54978176D01*
X62707304Y-54597223D02*
X61907304Y-54597223D01*
X61907304Y-54406747D01*
X61945400Y-54292461D01*
X62021590Y-54216271D01*
X62097780Y-54178176D01*
X62250161Y-54140080D01*
X62364447Y-54140080D01*
X62516828Y-54178176D01*
X62593019Y-54216271D01*
X62669209Y-54292461D01*
X62707304Y-54406747D01*
X62707304Y-54597223D01*
X61933018Y-53657223D02*
X62733018Y-53390557D01*
X61933018Y-53123890D01*
X62733018Y-52857223D02*
X61933018Y-52857223D01*
X61933018Y-52666747D01*
X61971114Y-52552461D01*
X62047304Y-52476271D01*
X62123494Y-52438176D01*
X62275875Y-52400080D01*
X62390161Y-52400080D01*
X62542542Y-52438176D01*
X62618733Y-52476271D01*
X62694923Y-52552461D01*
X62733018Y-52666747D01*
X62733018Y-52857223D01*
X62733018Y-52057223D02*
X61933018Y-52057223D01*
X61933018Y-51866747D01*
X61971114Y-51752461D01*
X62047304Y-51676271D01*
X62123494Y-51638176D01*
X62275875Y-51600080D01*
X62390161Y-51600080D01*
X62542542Y-51638176D01*
X62618733Y-51676271D01*
X62694923Y-51752461D01*
X62733018Y-51866747D01*
X62733018Y-52057223D01*
X38547304Y-53982461D02*
X39347304Y-53715795D01*
X38547304Y-53449128D01*
X38928257Y-52915795D02*
X38966352Y-52801509D01*
X39004447Y-52763414D01*
X39080638Y-52725319D01*
X39194923Y-52725319D01*
X39271114Y-52763414D01*
X39309209Y-52801509D01*
X39347304Y-52877700D01*
X39347304Y-53182461D01*
X38547304Y-53182461D01*
X38547304Y-52915795D01*
X38585400Y-52839604D01*
X38623495Y-52801509D01*
X38699685Y-52763414D01*
X38775876Y-52763414D01*
X38852066Y-52801509D01*
X38890161Y-52839604D01*
X38928257Y-52915795D01*
X38928257Y-53182461D01*
X39118733Y-52420557D02*
X39118733Y-52039604D01*
X39347304Y-52496747D02*
X38547304Y-52230080D01*
X39347304Y-51963414D01*
X38547304Y-51811033D02*
X38547304Y-51353890D01*
X39347304Y-51582461D02*
X38547304Y-51582461D01*
X39337304Y-49472461D02*
X38537304Y-49472461D01*
X38537304Y-49281985D01*
X38575400Y-49167700D01*
X38651590Y-49091509D01*
X38727780Y-49053414D01*
X38880161Y-49015319D01*
X38994447Y-49015319D01*
X39146828Y-49053414D01*
X39223019Y-49091509D01*
X39299209Y-49167700D01*
X39337304Y-49281985D01*
X39337304Y-49472461D01*
X39337304Y-48215319D02*
X38956352Y-48481985D01*
X39337304Y-48672461D02*
X38537304Y-48672461D01*
X38537304Y-48367700D01*
X38575400Y-48291509D01*
X38613495Y-48253414D01*
X38689685Y-48215319D01*
X38803971Y-48215319D01*
X38880161Y-48253414D01*
X38918257Y-48291509D01*
X38956352Y-48367700D01*
X38956352Y-48672461D01*
X38537304Y-47986747D02*
X39337304Y-47720080D01*
X38537304Y-47453414D01*
X38537304Y-47034366D02*
X38537304Y-46881985D01*
X38575400Y-46805795D01*
X38651590Y-46729604D01*
X38803971Y-46691509D01*
X39070638Y-46691509D01*
X39223019Y-46729604D01*
X39299209Y-46805795D01*
X39337304Y-46881985D01*
X39337304Y-47034366D01*
X39299209Y-47110557D01*
X39223019Y-47186747D01*
X39070638Y-47224842D01*
X38803971Y-47224842D01*
X38651590Y-47186747D01*
X38575400Y-47110557D01*
X38537304Y-47034366D01*
X38918257Y-46081985D02*
X38918257Y-46348652D01*
X39337304Y-46348652D02*
X38537304Y-46348652D01*
X38537304Y-45967700D01*
X38918257Y-45396271D02*
X38918257Y-45662938D01*
X39337304Y-45662938D02*
X38537304Y-45662938D01*
X38537304Y-45281985D01*
X52721590Y-43060795D02*
X52721590Y-43860795D01*
X52531114Y-43860795D01*
X52416828Y-43822700D01*
X52340638Y-43746509D01*
X52302542Y-43670319D01*
X52264447Y-43517938D01*
X52264447Y-43403652D01*
X52302542Y-43251271D01*
X52340638Y-43175080D01*
X52416828Y-43098890D01*
X52531114Y-43060795D01*
X52721590Y-43060795D01*
X51464447Y-43060795D02*
X51731114Y-43441747D01*
X51921590Y-43060795D02*
X51921590Y-43860795D01*
X51616828Y-43860795D01*
X51540638Y-43822700D01*
X51502542Y-43784604D01*
X51464447Y-43708414D01*
X51464447Y-43594128D01*
X51502542Y-43517938D01*
X51540638Y-43479842D01*
X51616828Y-43441747D01*
X51921590Y-43441747D01*
X51235876Y-43860795D02*
X50969209Y-43060795D01*
X50702542Y-43860795D01*
X50321590Y-43517938D02*
X50397780Y-43556033D01*
X50435876Y-43594128D01*
X50473971Y-43670319D01*
X50473971Y-43708414D01*
X50435876Y-43784604D01*
X50397780Y-43822700D01*
X50321590Y-43860795D01*
X50169209Y-43860795D01*
X50093019Y-43822700D01*
X50054923Y-43784604D01*
X50016828Y-43708414D01*
X50016828Y-43670319D01*
X50054923Y-43594128D01*
X50093019Y-43556033D01*
X50169209Y-43517938D01*
X50321590Y-43517938D01*
X50397780Y-43479842D01*
X50435876Y-43441747D01*
X50473971Y-43365557D01*
X50473971Y-43213176D01*
X50435876Y-43136985D01*
X50397780Y-43098890D01*
X50321590Y-43060795D01*
X50169209Y-43060795D01*
X50093019Y-43098890D01*
X50054923Y-43136985D01*
X50016828Y-43213176D01*
X50016828Y-43365557D01*
X50054923Y-43441747D01*
X50093019Y-43479842D01*
X50169209Y-43517938D01*
X49750161Y-43860795D02*
X49254923Y-43860795D01*
X49521590Y-43556033D01*
X49407304Y-43556033D01*
X49331114Y-43517938D01*
X49293019Y-43479842D01*
X49254923Y-43403652D01*
X49254923Y-43213176D01*
X49293019Y-43136985D01*
X49331114Y-43098890D01*
X49407304Y-43060795D01*
X49635876Y-43060795D01*
X49712066Y-43098890D01*
X49750161Y-43136985D01*
X48493019Y-43060795D02*
X48950161Y-43060795D01*
X48721590Y-43060795D02*
X48721590Y-43860795D01*
X48797780Y-43746509D01*
X48873971Y-43670319D01*
X48950161Y-43632223D01*
X47807304Y-43860795D02*
X47959685Y-43860795D01*
X48035876Y-43822700D01*
X48073971Y-43784604D01*
X48150161Y-43670319D01*
X48188257Y-43517938D01*
X48188257Y-43213176D01*
X48150161Y-43136985D01*
X48112066Y-43098890D01*
X48035876Y-43060795D01*
X47883495Y-43060795D01*
X47807304Y-43098890D01*
X47769209Y-43136985D01*
X47731114Y-43213176D01*
X47731114Y-43403652D01*
X47769209Y-43479842D01*
X47807304Y-43517938D01*
X47883495Y-43556033D01*
X48035876Y-43556033D01*
X48112066Y-43517938D01*
X48150161Y-43479842D01*
X48188257Y-43403652D01*
X44519685Y-79514128D02*
X44329209Y-78980795D01*
X44138733Y-79514128D01*
X43491114Y-78980795D02*
X43491114Y-79780795D01*
X43491114Y-79018890D02*
X43567304Y-78980795D01*
X43719685Y-78980795D01*
X43795876Y-79018890D01*
X43833971Y-79056985D01*
X43872066Y-79133176D01*
X43872066Y-79361747D01*
X43833971Y-79437938D01*
X43795876Y-79476033D01*
X43719685Y-79514128D01*
X43567304Y-79514128D01*
X43491114Y-79476033D01*
X42767304Y-78980795D02*
X42767304Y-79780795D01*
X42767304Y-79018890D02*
X42843495Y-78980795D01*
X42995876Y-78980795D01*
X43072066Y-79018890D01*
X43110161Y-79056985D01*
X43148257Y-79133176D01*
X43148257Y-79361747D01*
X43110161Y-79437938D01*
X43072066Y-79476033D01*
X42995876Y-79514128D01*
X42843495Y-79514128D01*
X42767304Y-79476033D01*
X41459685Y-31674128D02*
X41269209Y-31140795D01*
X41078733Y-31674128D01*
X40812066Y-31178890D02*
X40735876Y-31140795D01*
X40583495Y-31140795D01*
X40507304Y-31178890D01*
X40469209Y-31255080D01*
X40469209Y-31293176D01*
X40507304Y-31369366D01*
X40583495Y-31407461D01*
X40697780Y-31407461D01*
X40773971Y-31445557D01*
X40812066Y-31521747D01*
X40812066Y-31559842D01*
X40773971Y-31636033D01*
X40697780Y-31674128D01*
X40583495Y-31674128D01*
X40507304Y-31636033D01*
X57667780Y-59364128D02*
X57477304Y-58830795D01*
X57286828Y-59364128D01*
X56982066Y-58830795D02*
X56982066Y-59630795D01*
X56982066Y-59326033D02*
X56905876Y-59364128D01*
X56753495Y-59364128D01*
X56677304Y-59326033D01*
X56639209Y-59287938D01*
X56601114Y-59211747D01*
X56601114Y-58983176D01*
X56639209Y-58906985D01*
X56677304Y-58868890D01*
X56753495Y-58830795D01*
X56905876Y-58830795D01*
X56982066Y-58868890D01*
X45909685Y-71174128D02*
X45604923Y-71174128D01*
X45795399Y-70640795D02*
X45795399Y-71326509D01*
X45757304Y-71402700D01*
X45681114Y-71440795D01*
X45604923Y-71440795D01*
X44995400Y-70640795D02*
X44995400Y-71059842D01*
X45033495Y-71136033D01*
X45109685Y-71174128D01*
X45262066Y-71174128D01*
X45338257Y-71136033D01*
X44995400Y-70678890D02*
X45071590Y-70640795D01*
X45262066Y-70640795D01*
X45338257Y-70678890D01*
X45376352Y-70755080D01*
X45376352Y-70831271D01*
X45338257Y-70907461D01*
X45262066Y-70945557D01*
X45071590Y-70945557D01*
X44995400Y-70983652D01*
X44271590Y-71174128D02*
X44271590Y-70640795D01*
X44614447Y-71174128D02*
X44614447Y-70755080D01*
X44576352Y-70678890D01*
X44500161Y-70640795D01*
X44385876Y-70640795D01*
X44309685Y-70678890D01*
X44271590Y-70716985D01*
X43776352Y-70640795D02*
X43852542Y-70678890D01*
X43890638Y-70755080D01*
X43890638Y-71440795D01*
X43585876Y-71174128D02*
X43281114Y-71174128D01*
X43471590Y-71440795D02*
X43471590Y-70755080D01*
X43433495Y-70678890D01*
X43357304Y-70640795D01*
X43281114Y-70640795D01*
D12*
G04 #@! TO.C,U1*
X47035560Y-52563280D02*
X47635560Y-52563280D01*
X47635560Y-52563280D02*
X47635560Y-52163280D01*
X47035560Y-45263280D02*
X47635560Y-45263280D01*
X47635560Y-45263280D02*
X47635560Y-45663280D01*
X53535560Y-45263280D02*
X52935560Y-45263280D01*
X52935560Y-45263280D02*
X52935560Y-45663280D01*
X53535560Y-52563280D02*
X53035560Y-52563280D01*
G04 #@! TO.C,C34*
X56236822Y-31742700D02*
X56753978Y-31742700D01*
X56236822Y-33162700D02*
X56753978Y-33162700D01*
G04 #@! TO.C,C33*
X56226822Y-35762700D02*
X56743978Y-35762700D01*
X56226822Y-37182700D02*
X56743978Y-37182700D01*
G04 #@! TO.C,C32*
X56234322Y-33762700D02*
X56751478Y-33762700D01*
X56234322Y-35182700D02*
X56751478Y-35182700D01*
G04 #@! TO.C,C31*
X56226822Y-37802700D02*
X56743978Y-37802700D01*
X56226822Y-39222700D02*
X56743978Y-39222700D01*
G04 #@! TO.C,C30*
X53286478Y-41242700D02*
X52769322Y-41242700D01*
X53286478Y-39822700D02*
X52769322Y-39822700D01*
G04 #@! TO.C,C29*
X49316822Y-35772700D02*
X49833978Y-35772700D01*
X49316822Y-37192700D02*
X49833978Y-37192700D01*
G04 #@! TO.C,C28*
X56224322Y-39822700D02*
X56741478Y-39822700D01*
X56224322Y-41242700D02*
X56741478Y-41242700D01*
G04 #@! TO.C,C27*
X53293978Y-39222700D02*
X52776822Y-39222700D01*
X53293978Y-37802700D02*
X52776822Y-37802700D01*
G04 #@! TO.C,C26*
X49316822Y-39822700D02*
X49833978Y-39822700D01*
X49316822Y-41242700D02*
X49833978Y-41242700D01*
G04 #@! TO.C,C25*
X49316822Y-31742700D02*
X49833978Y-31742700D01*
X49316822Y-33162700D02*
X49833978Y-33162700D01*
G04 #@! TO.C,C24*
X53293978Y-37182700D02*
X52776822Y-37182700D01*
X53293978Y-35762700D02*
X52776822Y-35762700D01*
G04 #@! TO.C,C23*
X53296478Y-35182700D02*
X52779322Y-35182700D01*
X53296478Y-33762700D02*
X52779322Y-33762700D01*
G04 #@! TO.C,C22*
X49316822Y-33782700D02*
X49833978Y-33782700D01*
X49316822Y-35202700D02*
X49833978Y-35202700D01*
G04 #@! TO.C,C21*
X60193978Y-37182700D02*
X59676822Y-37182700D01*
X60193978Y-35762700D02*
X59676822Y-35762700D01*
G04 #@! TO.C,C20*
X53293978Y-33162700D02*
X52776822Y-33162700D01*
X53293978Y-31742700D02*
X52776822Y-31742700D01*
G04 #@! TO.C,C19*
X49316822Y-37802700D02*
X49833978Y-37802700D01*
X49316822Y-39222700D02*
X49833978Y-39222700D01*
G04 #@! TO.C,C18*
X60193978Y-35182700D02*
X59676822Y-35182700D01*
X60193978Y-33762700D02*
X59676822Y-33762700D01*
G04 #@! TO.C,C17*
X60193978Y-41242700D02*
X59676822Y-41242700D01*
X60193978Y-39822700D02*
X59676822Y-39822700D01*
G04 #@! TO.C,C16*
X60186478Y-33162700D02*
X59669322Y-33162700D01*
X60186478Y-31742700D02*
X59669322Y-31742700D01*
G04 #@! TO.C,C15*
X60193978Y-39222700D02*
X59676822Y-39222700D01*
X60193978Y-37802700D02*
X59676822Y-37802700D01*
D15*
G04 #@! TO.C,G\u002A\u002A\u002A*
G36*
X45958962Y-63267777D02*
G01*
X45885038Y-63238683D01*
X45817808Y-63193981D01*
X45783902Y-63161934D01*
X45742352Y-63112396D01*
X45714718Y-63065516D01*
X45698596Y-63014979D01*
X45691588Y-62954471D01*
X45690747Y-62916940D01*
X45691489Y-62867754D01*
X45694649Y-62831943D01*
X45701436Y-62802599D01*
X45713059Y-62772812D01*
X45717770Y-62762544D01*
X45760219Y-62694450D01*
X45817826Y-62635439D01*
X45885896Y-62590243D01*
X45891304Y-62587537D01*
X45950923Y-62566528D01*
X46019296Y-62555327D01*
X46088236Y-62554589D01*
X46149555Y-62564974D01*
X46154240Y-62566418D01*
X46227686Y-62600251D01*
X46293451Y-62650337D01*
X46347716Y-62712978D01*
X46386666Y-62784477D01*
X46390930Y-62795678D01*
X46404212Y-62855037D01*
X46406681Y-62918592D01*
X46158000Y-62918592D01*
X46155268Y-62881997D01*
X46145187Y-62856421D01*
X46133160Y-62841336D01*
X46095661Y-62814472D01*
X46052149Y-62803505D01*
X46008330Y-62808795D01*
X45969908Y-62830702D01*
X45969569Y-62831007D01*
X45943578Y-62866583D01*
X45933327Y-62908128D01*
X45938394Y-62950180D01*
X45958357Y-62987275D01*
X45983294Y-63008828D01*
X46029655Y-63026907D01*
X46075382Y-63025648D01*
X46117318Y-63005269D01*
X46124820Y-62999054D01*
X46145365Y-62977905D01*
X46155140Y-62956917D01*
X46157943Y-62926883D01*
X46158000Y-62918592D01*
X46406681Y-62918592D01*
X46406870Y-62923436D01*
X46399427Y-62992923D01*
X46382402Y-63055548D01*
X46372445Y-63078035D01*
X46324887Y-63149184D01*
X46262949Y-63206683D01*
X46188414Y-63249196D01*
X46111096Y-63273744D01*
X46035630Y-63279914D01*
X45958962Y-63267777D01*
G37*
X45958962Y-63267777D02*
X45885038Y-63238683D01*
X45817808Y-63193981D01*
X45783902Y-63161934D01*
X45742352Y-63112396D01*
X45714718Y-63065516D01*
X45698596Y-63014979D01*
X45691588Y-62954471D01*
X45690747Y-62916940D01*
X45691489Y-62867754D01*
X45694649Y-62831943D01*
X45701436Y-62802599D01*
X45713059Y-62772812D01*
X45717770Y-62762544D01*
X45760219Y-62694450D01*
X45817826Y-62635439D01*
X45885896Y-62590243D01*
X45891304Y-62587537D01*
X45950923Y-62566528D01*
X46019296Y-62555327D01*
X46088236Y-62554589D01*
X46149555Y-62564974D01*
X46154240Y-62566418D01*
X46227686Y-62600251D01*
X46293451Y-62650337D01*
X46347716Y-62712978D01*
X46386666Y-62784477D01*
X46390930Y-62795678D01*
X46404212Y-62855037D01*
X46406681Y-62918592D01*
X46158000Y-62918592D01*
X46155268Y-62881997D01*
X46145187Y-62856421D01*
X46133160Y-62841336D01*
X46095661Y-62814472D01*
X46052149Y-62803505D01*
X46008330Y-62808795D01*
X45969908Y-62830702D01*
X45969569Y-62831007D01*
X45943578Y-62866583D01*
X45933327Y-62908128D01*
X45938394Y-62950180D01*
X45958357Y-62987275D01*
X45983294Y-63008828D01*
X46029655Y-63026907D01*
X46075382Y-63025648D01*
X46117318Y-63005269D01*
X46124820Y-62999054D01*
X46145365Y-62977905D01*
X46155140Y-62956917D01*
X46157943Y-62926883D01*
X46158000Y-62918592D01*
X46406681Y-62918592D01*
X46406870Y-62923436D01*
X46399427Y-62992923D01*
X46382402Y-63055548D01*
X46372445Y-63078035D01*
X46324887Y-63149184D01*
X46262949Y-63206683D01*
X46188414Y-63249196D01*
X46111096Y-63273744D01*
X46035630Y-63279914D01*
X45958962Y-63267777D01*
G36*
X47798364Y-63275959D02*
G01*
X47763125Y-63271054D01*
X47729563Y-63260379D01*
X47695704Y-63245426D01*
X47619159Y-63198946D01*
X47557527Y-63138710D01*
X47517247Y-63077307D01*
X47504297Y-63050901D01*
X47496020Y-63027128D01*
X47491390Y-63000166D01*
X47489380Y-62964191D01*
X47488960Y-62916940D01*
X47489320Y-62868224D01*
X47491219Y-62833796D01*
X47495886Y-62807627D01*
X47504549Y-62783689D01*
X47518438Y-62755951D01*
X47523808Y-62745988D01*
X47573233Y-62674472D01*
X47634748Y-62618615D01*
X47706689Y-62579476D01*
X47787398Y-62558115D01*
X47823685Y-62554691D01*
X47868377Y-62554923D01*
X47912660Y-62558885D01*
X47942302Y-62564598D01*
X48017273Y-62596000D01*
X48083866Y-62644231D01*
X48139165Y-62706553D01*
X48180261Y-62780225D01*
X48185546Y-62793471D01*
X48200321Y-62854526D01*
X48202929Y-62902778D01*
X47957175Y-62902778D01*
X47945861Y-62863304D01*
X47921744Y-62832086D01*
X47888376Y-62811204D01*
X47849305Y-62802734D01*
X47808081Y-62808753D01*
X47768255Y-62831340D01*
X47761809Y-62837043D01*
X47737727Y-62871784D01*
X47729875Y-62911370D01*
X47736450Y-62951281D01*
X47755648Y-62986999D01*
X47785665Y-63014006D01*
X47824698Y-63027784D01*
X47838311Y-63028663D01*
X47885783Y-63019812D01*
X47923965Y-62995185D01*
X47948988Y-62957508D01*
X47952138Y-62948433D01*
X47957175Y-62902778D01*
X48202929Y-62902778D01*
X48204086Y-62924161D01*
X48197104Y-62994048D01*
X48179636Y-63055859D01*
X48177121Y-63061728D01*
X48143154Y-63118452D01*
X48095080Y-63172943D01*
X48038786Y-63219367D01*
X47989060Y-63248042D01*
X47949896Y-63264008D01*
X47914485Y-63272894D01*
X47873475Y-63276576D01*
X47844560Y-63277066D01*
X47798364Y-63275959D01*
G37*
X47798364Y-63275959D02*
X47763125Y-63271054D01*
X47729563Y-63260379D01*
X47695704Y-63245426D01*
X47619159Y-63198946D01*
X47557527Y-63138710D01*
X47517247Y-63077307D01*
X47504297Y-63050901D01*
X47496020Y-63027128D01*
X47491390Y-63000166D01*
X47489380Y-62964191D01*
X47488960Y-62916940D01*
X47489320Y-62868224D01*
X47491219Y-62833796D01*
X47495886Y-62807627D01*
X47504549Y-62783689D01*
X47518438Y-62755951D01*
X47523808Y-62745988D01*
X47573233Y-62674472D01*
X47634748Y-62618615D01*
X47706689Y-62579476D01*
X47787398Y-62558115D01*
X47823685Y-62554691D01*
X47868377Y-62554923D01*
X47912660Y-62558885D01*
X47942302Y-62564598D01*
X48017273Y-62596000D01*
X48083866Y-62644231D01*
X48139165Y-62706553D01*
X48180261Y-62780225D01*
X48185546Y-62793471D01*
X48200321Y-62854526D01*
X48202929Y-62902778D01*
X47957175Y-62902778D01*
X47945861Y-62863304D01*
X47921744Y-62832086D01*
X47888376Y-62811204D01*
X47849305Y-62802734D01*
X47808081Y-62808753D01*
X47768255Y-62831340D01*
X47761809Y-62837043D01*
X47737727Y-62871784D01*
X47729875Y-62911370D01*
X47736450Y-62951281D01*
X47755648Y-62986999D01*
X47785665Y-63014006D01*
X47824698Y-63027784D01*
X47838311Y-63028663D01*
X47885783Y-63019812D01*
X47923965Y-62995185D01*
X47948988Y-62957508D01*
X47952138Y-62948433D01*
X47957175Y-62902778D01*
X48202929Y-62902778D01*
X48204086Y-62924161D01*
X48197104Y-62994048D01*
X48179636Y-63055859D01*
X48177121Y-63061728D01*
X48143154Y-63118452D01*
X48095080Y-63172943D01*
X48038786Y-63219367D01*
X47989060Y-63248042D01*
X47949896Y-63264008D01*
X47914485Y-63272894D01*
X47873475Y-63276576D01*
X47844560Y-63277066D01*
X47798364Y-63275959D01*
G36*
X46835752Y-62174626D02*
G01*
X46763423Y-62173705D01*
X46698572Y-62172306D01*
X46644289Y-62170427D01*
X46603660Y-62168070D01*
X46579775Y-62165234D01*
X46577754Y-62164747D01*
X46533986Y-62142947D01*
X46503483Y-62107445D01*
X46489007Y-62061863D01*
X46488200Y-62047332D01*
X46491101Y-62015124D01*
X46502561Y-61989387D01*
X46522970Y-61964291D01*
X46557740Y-61926340D01*
X46931910Y-61923838D01*
X47031509Y-61923277D01*
X47112811Y-61923101D01*
X47177838Y-61923374D01*
X47228612Y-61924160D01*
X47267153Y-61925526D01*
X47295483Y-61927536D01*
X47315624Y-61930254D01*
X47329595Y-61933745D01*
X47337082Y-61936830D01*
X47372656Y-61964890D01*
X47394964Y-62003641D01*
X47402858Y-62047650D01*
X47395186Y-62091478D01*
X47376547Y-62123384D01*
X47349031Y-62147062D01*
X47316500Y-62163693D01*
X47313047Y-62164747D01*
X47292060Y-62167658D01*
X47253847Y-62170090D01*
X47201496Y-62172044D01*
X47138094Y-62173518D01*
X47066731Y-62174514D01*
X46990494Y-62175030D01*
X46912472Y-62175067D01*
X46835752Y-62174626D01*
G37*
X46835752Y-62174626D02*
X46763423Y-62173705D01*
X46698572Y-62172306D01*
X46644289Y-62170427D01*
X46603660Y-62168070D01*
X46579775Y-62165234D01*
X46577754Y-62164747D01*
X46533986Y-62142947D01*
X46503483Y-62107445D01*
X46489007Y-62061863D01*
X46488200Y-62047332D01*
X46491101Y-62015124D01*
X46502561Y-61989387D01*
X46522970Y-61964291D01*
X46557740Y-61926340D01*
X46931910Y-61923838D01*
X47031509Y-61923277D01*
X47112811Y-61923101D01*
X47177838Y-61923374D01*
X47228612Y-61924160D01*
X47267153Y-61925526D01*
X47295483Y-61927536D01*
X47315624Y-61930254D01*
X47329595Y-61933745D01*
X47337082Y-61936830D01*
X47372656Y-61964890D01*
X47394964Y-62003641D01*
X47402858Y-62047650D01*
X47395186Y-62091478D01*
X47376547Y-62123384D01*
X47349031Y-62147062D01*
X47316500Y-62163693D01*
X47313047Y-62164747D01*
X47292060Y-62167658D01*
X47253847Y-62170090D01*
X47201496Y-62172044D01*
X47138094Y-62173518D01*
X47066731Y-62174514D01*
X46990494Y-62175030D01*
X46912472Y-62175067D01*
X46835752Y-62174626D01*
G36*
X46847587Y-65315973D02*
G01*
X46758908Y-65288946D01*
X46677186Y-65243230D01*
X46601180Y-65178276D01*
X46592123Y-65168887D01*
X46537280Y-65100665D01*
X46499270Y-65028331D01*
X46476900Y-64948449D01*
X46468972Y-64857583D01*
X46469598Y-64816868D01*
X46472256Y-64768024D01*
X46476815Y-64731897D01*
X46485105Y-64700885D01*
X46498957Y-64667387D01*
X46512245Y-64639800D01*
X46563450Y-64555763D01*
X46626945Y-64487315D01*
X46704629Y-64432582D01*
X46741886Y-64413260D01*
X46822929Y-64374900D01*
X46823205Y-64214880D01*
X46823480Y-64054860D01*
X46328180Y-64054684D01*
X46206305Y-64054560D01*
X46102762Y-64054177D01*
X46015565Y-64053381D01*
X45942728Y-64052017D01*
X45882263Y-64049931D01*
X45832185Y-64046967D01*
X45790506Y-64042972D01*
X45755240Y-64037789D01*
X45724399Y-64031266D01*
X45695998Y-64023246D01*
X45668049Y-64013576D01*
X45638566Y-64002099D01*
X45635119Y-64000710D01*
X45548271Y-63959859D01*
X45470990Y-63910091D01*
X45396156Y-63846675D01*
X45380247Y-63831340D01*
X45297840Y-63737037D01*
X45233807Y-63634064D01*
X45193431Y-63538555D01*
X45175417Y-63475251D01*
X45160636Y-63403709D01*
X45150666Y-63332960D01*
X45147080Y-63272936D01*
X45145521Y-63247318D01*
X45136876Y-63234859D01*
X45115197Y-63228430D01*
X45108980Y-63227278D01*
X45062262Y-63213646D01*
X45006634Y-63189463D01*
X44948111Y-63157970D01*
X44892702Y-63122411D01*
X44846419Y-63086028D01*
X44845356Y-63085068D01*
X44779204Y-63014914D01*
X44721149Y-62933597D01*
X44675887Y-62848090D01*
X44661623Y-62812050D01*
X44642546Y-62738356D01*
X44631898Y-62654030D01*
X44630087Y-62567106D01*
X44637518Y-62485622D01*
X44643561Y-62454660D01*
X44678017Y-62350963D01*
X44730020Y-62254425D01*
X44797377Y-62167394D01*
X44877894Y-62092219D01*
X44969377Y-62031247D01*
X45069632Y-61986827D01*
X45085551Y-61981657D01*
X45117212Y-61969926D01*
X45140398Y-61957761D01*
X45148272Y-61950433D01*
X45153108Y-61933933D01*
X45159396Y-61903640D01*
X45165829Y-61865892D01*
X45166246Y-61863169D01*
X45192813Y-61754327D01*
X45237738Y-61650452D01*
X45299278Y-61553541D01*
X45375688Y-61465591D01*
X45465226Y-61388600D01*
X45566146Y-61324564D01*
X45676706Y-61275483D01*
X45680480Y-61274147D01*
X45761760Y-61245620D01*
X46920000Y-61243762D01*
X47105695Y-61243506D01*
X47272094Y-61243372D01*
X47420222Y-61243370D01*
X47551104Y-61243509D01*
X47665764Y-61243800D01*
X47765227Y-61244251D01*
X47850517Y-61244874D01*
X47922659Y-61245677D01*
X47982676Y-61246669D01*
X48031594Y-61247862D01*
X48070437Y-61249265D01*
X48100230Y-61250886D01*
X48121996Y-61252737D01*
X48136761Y-61254827D01*
X48139200Y-61255326D01*
X48249886Y-61289409D01*
X48353918Y-61340374D01*
X48449318Y-61406163D01*
X48534105Y-61484721D01*
X48606299Y-61573992D01*
X48663921Y-61671921D01*
X48704990Y-61776450D01*
X48724555Y-61863169D01*
X48730950Y-61901198D01*
X48737290Y-61932210D01*
X48742269Y-61949867D01*
X48742529Y-61950433D01*
X48755412Y-61960877D01*
X48781499Y-61973241D01*
X48805250Y-61981657D01*
X48894442Y-62016620D01*
X48975605Y-62064848D01*
X49053585Y-62129365D01*
X49074146Y-62149390D01*
X49147497Y-62234045D01*
X49201810Y-62322704D01*
X49237958Y-62417646D01*
X49256815Y-62521150D01*
X49259137Y-62621594D01*
X49015101Y-62621594D01*
X49010393Y-62541581D01*
X49010203Y-62540549D01*
X48984703Y-62451593D01*
X48943859Y-62374284D01*
X48897429Y-62318775D01*
X48865602Y-62291119D01*
X48829450Y-62264752D01*
X48794223Y-62243005D01*
X48765171Y-62229210D01*
X48751340Y-62226069D01*
X48749615Y-62235854D01*
X48748026Y-62263723D01*
X48746619Y-62307439D01*
X48745440Y-62364768D01*
X48744534Y-62433471D01*
X48743946Y-62511314D01*
X48743721Y-62596060D01*
X48743720Y-62601980D01*
X48743862Y-62687113D01*
X48744263Y-62765493D01*
X48744893Y-62834886D01*
X48745720Y-62893055D01*
X48745738Y-62893876D01*
X48488140Y-62893876D01*
X48487929Y-62747682D01*
X48487504Y-62616592D01*
X48484640Y-61885700D01*
X48460708Y-61826364D01*
X48412507Y-61732263D01*
X48349781Y-61651183D01*
X48274157Y-61584498D01*
X48187261Y-61533583D01*
X48090720Y-61499811D01*
X48068080Y-61494764D01*
X48051130Y-61493399D01*
X48015506Y-61492142D01*
X47962856Y-61490992D01*
X47894827Y-61489951D01*
X47813065Y-61489019D01*
X47719218Y-61488198D01*
X47614931Y-61487486D01*
X47501853Y-61486886D01*
X47381628Y-61486398D01*
X47255905Y-61486023D01*
X47126331Y-61485760D01*
X46994551Y-61485612D01*
X46862213Y-61485578D01*
X46730963Y-61485659D01*
X46602449Y-61485856D01*
X46478316Y-61486170D01*
X46360213Y-61486601D01*
X46249785Y-61487150D01*
X46148679Y-61487817D01*
X46058543Y-61488604D01*
X45981023Y-61489511D01*
X45917765Y-61490538D01*
X45870417Y-61491686D01*
X45840625Y-61492956D01*
X45831386Y-61493861D01*
X45730630Y-61522836D01*
X45639893Y-61569064D01*
X45560546Y-61631409D01*
X45493959Y-61708735D01*
X45441501Y-61799907D01*
X45430093Y-61826364D01*
X45406160Y-61885700D01*
X45403332Y-62607782D01*
X45147080Y-62607782D01*
X45147080Y-62224691D01*
X45124220Y-62231335D01*
X45103897Y-62240418D01*
X45074067Y-62257344D01*
X45046423Y-62274998D01*
X44981077Y-62330426D01*
X44931296Y-62396420D01*
X44897308Y-62470218D01*
X44879340Y-62549054D01*
X44877620Y-62630167D01*
X44892375Y-62710791D01*
X44923835Y-62788164D01*
X44972226Y-62859523D01*
X44996099Y-62885489D01*
X45022329Y-62908326D01*
X45055286Y-62932430D01*
X45089532Y-62954347D01*
X45119630Y-62970625D01*
X45140140Y-62977813D01*
X45141663Y-62977900D01*
X45142889Y-62968113D01*
X45144017Y-62940240D01*
X45145017Y-62896515D01*
X45145855Y-62839172D01*
X45146500Y-62770447D01*
X45146919Y-62692572D01*
X45147080Y-62607782D01*
X45403332Y-62607782D01*
X45403297Y-62616592D01*
X45402801Y-62784803D01*
X45402710Y-62932734D01*
X45403024Y-63060420D01*
X45403745Y-63167896D01*
X45404872Y-63255199D01*
X45406406Y-63322362D01*
X45408347Y-63369423D01*
X45410695Y-63396416D01*
X45411247Y-63399572D01*
X45440019Y-63489553D01*
X45486548Y-63573319D01*
X45548629Y-63648431D01*
X45624053Y-63712449D01*
X45710613Y-63762935D01*
X45757833Y-63782505D01*
X45822720Y-63805940D01*
X46884440Y-63808890D01*
X47067335Y-63809294D01*
X47236695Y-63809457D01*
X47391809Y-63809383D01*
X47531964Y-63809077D01*
X47656450Y-63808542D01*
X47764555Y-63807784D01*
X47855566Y-63806808D01*
X47928772Y-63805617D01*
X47983461Y-63804216D01*
X48018921Y-63802609D01*
X48029701Y-63801673D01*
X48125242Y-63782597D01*
X48209809Y-63748946D01*
X48287458Y-63698699D01*
X48350494Y-63641998D01*
X48394356Y-63588035D01*
X48433814Y-63522123D01*
X48464389Y-63452631D01*
X48479137Y-63401580D01*
X48481583Y-63380798D01*
X48483633Y-63343601D01*
X48485293Y-63289488D01*
X48486568Y-63217960D01*
X48487464Y-63128515D01*
X48487986Y-63020654D01*
X48488140Y-62893876D01*
X48745738Y-62893876D01*
X48746710Y-62937763D01*
X48747832Y-62966775D01*
X48749053Y-62977854D01*
X48749138Y-62977900D01*
X48760497Y-62973670D01*
X48783933Y-62962791D01*
X48803739Y-62952978D01*
X48871264Y-62907980D01*
X48927983Y-62848706D01*
X48972075Y-62778793D01*
X49001722Y-62701877D01*
X49015101Y-62621594D01*
X49259137Y-62621594D01*
X49259389Y-62632460D01*
X49245725Y-62746246D01*
X49214447Y-62850293D01*
X49165026Y-62945739D01*
X49096929Y-63033719D01*
X49049651Y-63080873D01*
X49001159Y-63119853D01*
X48944081Y-63157235D01*
X48884294Y-63189794D01*
X48827678Y-63214304D01*
X48783253Y-63227009D01*
X48746586Y-63233624D01*
X48739874Y-63320936D01*
X48726816Y-63427423D01*
X48704395Y-63520969D01*
X48672987Y-63603516D01*
X48613731Y-63710022D01*
X48538192Y-63805724D01*
X48448342Y-63888746D01*
X48346153Y-63957211D01*
X48255682Y-64000710D01*
X48225906Y-64012396D01*
X48197885Y-64022259D01*
X48169632Y-64030454D01*
X48139160Y-64037136D01*
X48104482Y-64042459D01*
X48063611Y-64046578D01*
X48014561Y-64049648D01*
X47955345Y-64051824D01*
X47883976Y-64053260D01*
X47798468Y-64054112D01*
X47696834Y-64054533D01*
X47577087Y-64054678D01*
X47562620Y-64054684D01*
X47067320Y-64054860D01*
X47067872Y-64374900D01*
X47148915Y-64413260D01*
X47233115Y-64462800D01*
X47302329Y-64525269D01*
X47358457Y-64602540D01*
X47378556Y-64639800D01*
X47397154Y-64679210D01*
X47408963Y-64711044D01*
X47415817Y-64742907D01*
X47419544Y-64782398D01*
X47421203Y-64816868D01*
X47420870Y-64826550D01*
X47177607Y-64826550D01*
X47172104Y-64793901D01*
X47157415Y-64756137D01*
X47156175Y-64753416D01*
X47119027Y-64694557D01*
X47069900Y-64650954D01*
X47011520Y-64623837D01*
X46946614Y-64614437D01*
X46877907Y-64623987D01*
X46872842Y-64625452D01*
X46821298Y-64650549D01*
X46775137Y-64691159D01*
X46739470Y-64742477D01*
X46732281Y-64757594D01*
X46715337Y-64821034D01*
X46717237Y-64884724D01*
X46736840Y-64945237D01*
X46773005Y-64999147D01*
X46824591Y-65043027D01*
X46828032Y-65045192D01*
X46860154Y-65062917D01*
X46889242Y-65072249D01*
X46924773Y-65075669D01*
X46945400Y-65075940D01*
X46986927Y-65074371D01*
X47017743Y-65068009D01*
X47047326Y-65054370D01*
X47062769Y-65045192D01*
X47115855Y-65000951D01*
X47153583Y-64944615D01*
X47174024Y-64879256D01*
X47175886Y-64865200D01*
X47177607Y-64826550D01*
X47420870Y-64826550D01*
X47417736Y-64917508D01*
X47398225Y-65006748D01*
X47361905Y-65086585D01*
X47308009Y-65159019D01*
X47278353Y-65189226D01*
X47203049Y-65250221D01*
X47125061Y-65292257D01*
X47041063Y-65316683D01*
X46947732Y-65324852D01*
X46944462Y-65324861D01*
X46847587Y-65315973D01*
G37*
X46847587Y-65315973D02*
X46758908Y-65288946D01*
X46677186Y-65243230D01*
X46601180Y-65178276D01*
X46592123Y-65168887D01*
X46537280Y-65100665D01*
X46499270Y-65028331D01*
X46476900Y-64948449D01*
X46468972Y-64857583D01*
X46469598Y-64816868D01*
X46472256Y-64768024D01*
X46476815Y-64731897D01*
X46485105Y-64700885D01*
X46498957Y-64667387D01*
X46512245Y-64639800D01*
X46563450Y-64555763D01*
X46626945Y-64487315D01*
X46704629Y-64432582D01*
X46741886Y-64413260D01*
X46822929Y-64374900D01*
X46823205Y-64214880D01*
X46823480Y-64054860D01*
X46328180Y-64054684D01*
X46206305Y-64054560D01*
X46102762Y-64054177D01*
X46015565Y-64053381D01*
X45942728Y-64052017D01*
X45882263Y-64049931D01*
X45832185Y-64046967D01*
X45790506Y-64042972D01*
X45755240Y-64037789D01*
X45724399Y-64031266D01*
X45695998Y-64023246D01*
X45668049Y-64013576D01*
X45638566Y-64002099D01*
X45635119Y-64000710D01*
X45548271Y-63959859D01*
X45470990Y-63910091D01*
X45396156Y-63846675D01*
X45380247Y-63831340D01*
X45297840Y-63737037D01*
X45233807Y-63634064D01*
X45193431Y-63538555D01*
X45175417Y-63475251D01*
X45160636Y-63403709D01*
X45150666Y-63332960D01*
X45147080Y-63272936D01*
X45145521Y-63247318D01*
X45136876Y-63234859D01*
X45115197Y-63228430D01*
X45108980Y-63227278D01*
X45062262Y-63213646D01*
X45006634Y-63189463D01*
X44948111Y-63157970D01*
X44892702Y-63122411D01*
X44846419Y-63086028D01*
X44845356Y-63085068D01*
X44779204Y-63014914D01*
X44721149Y-62933597D01*
X44675887Y-62848090D01*
X44661623Y-62812050D01*
X44642546Y-62738356D01*
X44631898Y-62654030D01*
X44630087Y-62567106D01*
X44637518Y-62485622D01*
X44643561Y-62454660D01*
X44678017Y-62350963D01*
X44730020Y-62254425D01*
X44797377Y-62167394D01*
X44877894Y-62092219D01*
X44969377Y-62031247D01*
X45069632Y-61986827D01*
X45085551Y-61981657D01*
X45117212Y-61969926D01*
X45140398Y-61957761D01*
X45148272Y-61950433D01*
X45153108Y-61933933D01*
X45159396Y-61903640D01*
X45165829Y-61865892D01*
X45166246Y-61863169D01*
X45192813Y-61754327D01*
X45237738Y-61650452D01*
X45299278Y-61553541D01*
X45375688Y-61465591D01*
X45465226Y-61388600D01*
X45566146Y-61324564D01*
X45676706Y-61275483D01*
X45680480Y-61274147D01*
X45761760Y-61245620D01*
X46920000Y-61243762D01*
X47105695Y-61243506D01*
X47272094Y-61243372D01*
X47420222Y-61243370D01*
X47551104Y-61243509D01*
X47665764Y-61243800D01*
X47765227Y-61244251D01*
X47850517Y-61244874D01*
X47922659Y-61245677D01*
X47982676Y-61246669D01*
X48031594Y-61247862D01*
X48070437Y-61249265D01*
X48100230Y-61250886D01*
X48121996Y-61252737D01*
X48136761Y-61254827D01*
X48139200Y-61255326D01*
X48249886Y-61289409D01*
X48353918Y-61340374D01*
X48449318Y-61406163D01*
X48534105Y-61484721D01*
X48606299Y-61573992D01*
X48663921Y-61671921D01*
X48704990Y-61776450D01*
X48724555Y-61863169D01*
X48730950Y-61901198D01*
X48737290Y-61932210D01*
X48742269Y-61949867D01*
X48742529Y-61950433D01*
X48755412Y-61960877D01*
X48781499Y-61973241D01*
X48805250Y-61981657D01*
X48894442Y-62016620D01*
X48975605Y-62064848D01*
X49053585Y-62129365D01*
X49074146Y-62149390D01*
X49147497Y-62234045D01*
X49201810Y-62322704D01*
X49237958Y-62417646D01*
X49256815Y-62521150D01*
X49259137Y-62621594D01*
X49015101Y-62621594D01*
X49010393Y-62541581D01*
X49010203Y-62540549D01*
X48984703Y-62451593D01*
X48943859Y-62374284D01*
X48897429Y-62318775D01*
X48865602Y-62291119D01*
X48829450Y-62264752D01*
X48794223Y-62243005D01*
X48765171Y-62229210D01*
X48751340Y-62226069D01*
X48749615Y-62235854D01*
X48748026Y-62263723D01*
X48746619Y-62307439D01*
X48745440Y-62364768D01*
X48744534Y-62433471D01*
X48743946Y-62511314D01*
X48743721Y-62596060D01*
X48743720Y-62601980D01*
X48743862Y-62687113D01*
X48744263Y-62765493D01*
X48744893Y-62834886D01*
X48745720Y-62893055D01*
X48745738Y-62893876D01*
X48488140Y-62893876D01*
X48487929Y-62747682D01*
X48487504Y-62616592D01*
X48484640Y-61885700D01*
X48460708Y-61826364D01*
X48412507Y-61732263D01*
X48349781Y-61651183D01*
X48274157Y-61584498D01*
X48187261Y-61533583D01*
X48090720Y-61499811D01*
X48068080Y-61494764D01*
X48051130Y-61493399D01*
X48015506Y-61492142D01*
X47962856Y-61490992D01*
X47894827Y-61489951D01*
X47813065Y-61489019D01*
X47719218Y-61488198D01*
X47614931Y-61487486D01*
X47501853Y-61486886D01*
X47381628Y-61486398D01*
X47255905Y-61486023D01*
X47126331Y-61485760D01*
X46994551Y-61485612D01*
X46862213Y-61485578D01*
X46730963Y-61485659D01*
X46602449Y-61485856D01*
X46478316Y-61486170D01*
X46360213Y-61486601D01*
X46249785Y-61487150D01*
X46148679Y-61487817D01*
X46058543Y-61488604D01*
X45981023Y-61489511D01*
X45917765Y-61490538D01*
X45870417Y-61491686D01*
X45840625Y-61492956D01*
X45831386Y-61493861D01*
X45730630Y-61522836D01*
X45639893Y-61569064D01*
X45560546Y-61631409D01*
X45493959Y-61708735D01*
X45441501Y-61799907D01*
X45430093Y-61826364D01*
X45406160Y-61885700D01*
X45403332Y-62607782D01*
X45147080Y-62607782D01*
X45147080Y-62224691D01*
X45124220Y-62231335D01*
X45103897Y-62240418D01*
X45074067Y-62257344D01*
X45046423Y-62274998D01*
X44981077Y-62330426D01*
X44931296Y-62396420D01*
X44897308Y-62470218D01*
X44879340Y-62549054D01*
X44877620Y-62630167D01*
X44892375Y-62710791D01*
X44923835Y-62788164D01*
X44972226Y-62859523D01*
X44996099Y-62885489D01*
X45022329Y-62908326D01*
X45055286Y-62932430D01*
X45089532Y-62954347D01*
X45119630Y-62970625D01*
X45140140Y-62977813D01*
X45141663Y-62977900D01*
X45142889Y-62968113D01*
X45144017Y-62940240D01*
X45145017Y-62896515D01*
X45145855Y-62839172D01*
X45146500Y-62770447D01*
X45146919Y-62692572D01*
X45147080Y-62607782D01*
X45403332Y-62607782D01*
X45403297Y-62616592D01*
X45402801Y-62784803D01*
X45402710Y-62932734D01*
X45403024Y-63060420D01*
X45403745Y-63167896D01*
X45404872Y-63255199D01*
X45406406Y-63322362D01*
X45408347Y-63369423D01*
X45410695Y-63396416D01*
X45411247Y-63399572D01*
X45440019Y-63489553D01*
X45486548Y-63573319D01*
X45548629Y-63648431D01*
X45624053Y-63712449D01*
X45710613Y-63762935D01*
X45757833Y-63782505D01*
X45822720Y-63805940D01*
X46884440Y-63808890D01*
X47067335Y-63809294D01*
X47236695Y-63809457D01*
X47391809Y-63809383D01*
X47531964Y-63809077D01*
X47656450Y-63808542D01*
X47764555Y-63807784D01*
X47855566Y-63806808D01*
X47928772Y-63805617D01*
X47983461Y-63804216D01*
X48018921Y-63802609D01*
X48029701Y-63801673D01*
X48125242Y-63782597D01*
X48209809Y-63748946D01*
X48287458Y-63698699D01*
X48350494Y-63641998D01*
X48394356Y-63588035D01*
X48433814Y-63522123D01*
X48464389Y-63452631D01*
X48479137Y-63401580D01*
X48481583Y-63380798D01*
X48483633Y-63343601D01*
X48485293Y-63289488D01*
X48486568Y-63217960D01*
X48487464Y-63128515D01*
X48487986Y-63020654D01*
X48488140Y-62893876D01*
X48745738Y-62893876D01*
X48746710Y-62937763D01*
X48747832Y-62966775D01*
X48749053Y-62977854D01*
X48749138Y-62977900D01*
X48760497Y-62973670D01*
X48783933Y-62962791D01*
X48803739Y-62952978D01*
X48871264Y-62907980D01*
X48927983Y-62848706D01*
X48972075Y-62778793D01*
X49001722Y-62701877D01*
X49015101Y-62621594D01*
X49259137Y-62621594D01*
X49259389Y-62632460D01*
X49245725Y-62746246D01*
X49214447Y-62850293D01*
X49165026Y-62945739D01*
X49096929Y-63033719D01*
X49049651Y-63080873D01*
X49001159Y-63119853D01*
X48944081Y-63157235D01*
X48884294Y-63189794D01*
X48827678Y-63214304D01*
X48783253Y-63227009D01*
X48746586Y-63233624D01*
X48739874Y-63320936D01*
X48726816Y-63427423D01*
X48704395Y-63520969D01*
X48672987Y-63603516D01*
X48613731Y-63710022D01*
X48538192Y-63805724D01*
X48448342Y-63888746D01*
X48346153Y-63957211D01*
X48255682Y-64000710D01*
X48225906Y-64012396D01*
X48197885Y-64022259D01*
X48169632Y-64030454D01*
X48139160Y-64037136D01*
X48104482Y-64042459D01*
X48063611Y-64046578D01*
X48014561Y-64049648D01*
X47955345Y-64051824D01*
X47883976Y-64053260D01*
X47798468Y-64054112D01*
X47696834Y-64054533D01*
X47577087Y-64054678D01*
X47562620Y-64054684D01*
X47067320Y-64054860D01*
X47067872Y-64374900D01*
X47148915Y-64413260D01*
X47233115Y-64462800D01*
X47302329Y-64525269D01*
X47358457Y-64602540D01*
X47378556Y-64639800D01*
X47397154Y-64679210D01*
X47408963Y-64711044D01*
X47415817Y-64742907D01*
X47419544Y-64782398D01*
X47421203Y-64816868D01*
X47420870Y-64826550D01*
X47177607Y-64826550D01*
X47172104Y-64793901D01*
X47157415Y-64756137D01*
X47156175Y-64753416D01*
X47119027Y-64694557D01*
X47069900Y-64650954D01*
X47011520Y-64623837D01*
X46946614Y-64614437D01*
X46877907Y-64623987D01*
X46872842Y-64625452D01*
X46821298Y-64650549D01*
X46775137Y-64691159D01*
X46739470Y-64742477D01*
X46732281Y-64757594D01*
X46715337Y-64821034D01*
X46717237Y-64884724D01*
X46736840Y-64945237D01*
X46773005Y-64999147D01*
X46824591Y-65043027D01*
X46828032Y-65045192D01*
X46860154Y-65062917D01*
X46889242Y-65072249D01*
X46924773Y-65075669D01*
X46945400Y-65075940D01*
X46986927Y-65074371D01*
X47017743Y-65068009D01*
X47047326Y-65054370D01*
X47062769Y-65045192D01*
X47115855Y-65000951D01*
X47153583Y-64944615D01*
X47174024Y-64879256D01*
X47175886Y-64865200D01*
X47177607Y-64826550D01*
X47420870Y-64826550D01*
X47417736Y-64917508D01*
X47398225Y-65006748D01*
X47361905Y-65086585D01*
X47308009Y-65159019D01*
X47278353Y-65189226D01*
X47203049Y-65250221D01*
X47125061Y-65292257D01*
X47041063Y-65316683D01*
X46947732Y-65324852D01*
X46944462Y-65324861D01*
X46847587Y-65315973D01*
D12*
G04 #@! TO.C,D4*
X45209431Y-38552700D02*
G75*
G03*
X45209431Y-38552700I-64031J0D01*
G01*
G04 #@! TO.C,J1*
X47815400Y-86547700D02*
X53695400Y-86547700D01*
X54865400Y-82077700D02*
X53815400Y-82077700D01*
X54865400Y-84577700D02*
X54865400Y-82077700D01*
X47695400Y-82077700D02*
X47695400Y-81087700D01*
X46645400Y-82077700D02*
X47695400Y-82077700D01*
X46645400Y-84577700D02*
X46645400Y-82077700D01*
G04 #@! TO.C,C10*
X56215400Y-45651278D02*
X56215400Y-45134122D01*
X57635400Y-45651278D02*
X57635400Y-45134122D01*
G04 #@! TO.C,L1*
X57551060Y-52050744D02*
X57551060Y-50846616D01*
X54831060Y-52050744D02*
X54831060Y-50846616D01*
G04 #@! TO.C,C3*
X56360738Y-55613080D02*
X55843582Y-55613080D01*
X56360738Y-54193080D02*
X55843582Y-54193080D01*
G04 #@! TO.C,Q1*
X47020400Y-35321000D02*
X45860400Y-35321000D01*
X47020400Y-33401000D02*
X45610400Y-33401000D01*
X47020400Y-33401000D02*
X47020400Y-33711000D01*
X47020400Y-35321000D02*
X47020400Y-35011000D01*
G04 #@! TO.C,C5*
X56229479Y-47649380D02*
X55903921Y-47649380D01*
X56229479Y-48669380D02*
X55903921Y-48669380D01*
D10*
G04 #@! TO.C,D2*
X42030400Y-30322700D02*
G75*
G03*
X42030400Y-30322700I-50000J0D01*
G01*
G04 #@! TO.C,D3*
X57117360Y-58393380D02*
G75*
G03*
X57117360Y-58393380I-50000J0D01*
G01*
G04 #@! TO.C,D5*
X44645500Y-71890700D02*
G75*
G03*
X44645500Y-71890700I-50000J0D01*
G01*
G04 #@! TO.C,D1*
X42574700Y-81520900D02*
G75*
G03*
X42574700Y-81520900I-50000J0D01*
G01*
G04 #@! TD*
M02*
