G04 #@! TF.GenerationSoftware,KiCad,Pcbnew,(5.1.6-0-10_14)*
G04 #@! TF.CreationDate,2021-05-07T03:20:06+02:00*
G04 #@! TF.ProjectId,ESCv1.1,45534376-312e-4312-9e6b-696361645f70,rev?*
G04 #@! TF.SameCoordinates,Original*
G04 #@! TF.FileFunction,Copper,L2,Bot*
G04 #@! TF.FilePolarity,Positive*
%FSLAX46Y46*%
G04 Gerber Fmt 4.6, Leading zero omitted, Abs format (unit mm)*
G04 Created by KiCad (PCBNEW (5.1.6-0-10_14)) date 2021-05-07 03:20:06*
%MOMM*%
%LPD*%
G01*
G04 APERTURE LIST*
G04 #@! TA.AperFunction,EtchedComponent*
%ADD10C,0.100000*%
G04 #@! TD*
G04 #@! TA.AperFunction,SMDPad,CuDef*
%ADD11C,0.100000*%
G04 #@! TD*
G04 #@! TA.AperFunction,ViaPad*
%ADD12C,0.600000*%
G04 #@! TD*
G04 #@! TA.AperFunction,ComponentPad*
%ADD13C,2.500000*%
G04 #@! TD*
G04 #@! TA.AperFunction,ComponentPad*
%ADD14R,1.524000X1.524000*%
G04 #@! TD*
G04 #@! TA.AperFunction,ComponentPad*
%ADD15C,1.524000*%
G04 #@! TD*
G04 #@! TA.AperFunction,ComponentPad*
%ADD16C,3.000000*%
G04 #@! TD*
G04 #@! TA.AperFunction,ComponentPad*
%ADD17C,0.600000*%
G04 #@! TD*
G04 #@! TA.AperFunction,ComponentPad*
%ADD18R,2.500000X2.500000*%
G04 #@! TD*
G04 #@! TA.AperFunction,ComponentPad*
%ADD19C,0.100000*%
G04 #@! TD*
G04 #@! TA.AperFunction,ComponentPad*
%ADD20C,0.700000*%
G04 #@! TD*
G04 #@! TA.AperFunction,ViaPad*
%ADD21C,0.800000*%
G04 #@! TD*
G04 #@! TA.AperFunction,Conductor*
%ADD22C,0.300000*%
G04 #@! TD*
G04 #@! TA.AperFunction,Conductor*
%ADD23C,0.700000*%
G04 #@! TD*
G04 #@! TA.AperFunction,Conductor*
%ADD24C,0.250000*%
G04 #@! TD*
G04 #@! TA.AperFunction,Conductor*
%ADD25C,0.254000*%
G04 #@! TD*
G04 APERTURE END LIST*
D10*
G04 #@! TO.C,NT1*
G36*
X45815400Y-44952700D02*
G01*
X45815400Y-43752700D01*
X46415400Y-43752700D01*
X46415400Y-44952700D01*
X45815400Y-44952700D01*
G37*
G04 #@! TD*
G04 #@! TA.AperFunction,SMDPad,CuDef*
D11*
G04 #@! TO.P,JP5,2*
G04 #@! TO.N,VREF*
G36*
X42855400Y-50127700D02*
G01*
X42855400Y-48977700D01*
X43605400Y-49477700D01*
X44355400Y-48977700D01*
X44355400Y-50127700D01*
X42855400Y-50127700D01*
G37*
G04 #@! TD.AperFunction*
G04 #@! TA.AperFunction,SMDPad,CuDef*
G04 #@! TO.P,JP5,1*
G04 #@! TO.N,VDDA*
G36*
X43605400Y-49177700D02*
G01*
X42855400Y-48677700D01*
X42855400Y-47677700D01*
X44355400Y-47677700D01*
X44355400Y-48677700D01*
X43605400Y-49177700D01*
G37*
G04 #@! TD.AperFunction*
G04 #@! TD*
G04 #@! TA.AperFunction,SMDPad,CuDef*
G04 #@! TO.P,JP1,2*
G04 #@! TO.N,VIN*
G36*
X58405400Y-52372700D02*
G01*
X58405400Y-53522700D01*
X57655400Y-53022700D01*
X56905400Y-53522700D01*
X56905400Y-52372700D01*
X58405400Y-52372700D01*
G37*
G04 #@! TD.AperFunction*
G04 #@! TA.AperFunction,SMDPad,CuDef*
G04 #@! TO.P,JP1,1*
G04 #@! TO.N,FB_BK*
G36*
X57655400Y-53322700D02*
G01*
X58405400Y-53822700D01*
X58405400Y-54822700D01*
X56905400Y-54822700D01*
X56905400Y-53822700D01*
X57655400Y-53322700D01*
G37*
G04 #@! TD.AperFunction*
G04 #@! TD*
D12*
G04 #@! TO.N,GNDPWR*
G04 #@! TO.C,NT1*
X46115400Y-43752700D03*
G04 #@! TO.N,GND*
X46115400Y-44952700D03*
G04 #@! TD*
D13*
G04 #@! TO.P,J4_2,1*
G04 #@! TO.N,PHASE_W*
X45665380Y-27889200D03*
G04 #@! TO.P,J4_2,2*
G04 #@! TO.N,PHASE_V*
X50665380Y-27889200D03*
G04 #@! TO.P,J4_2,3*
G04 #@! TO.N,PHASE_U*
X55665380Y-27889200D03*
G04 #@! TD*
D14*
G04 #@! TO.P,U2,28*
G04 #@! TO.N,IN_WL*
X60782200Y-80549400D03*
D15*
G04 #@! TO.P,U2,27*
G04 #@! TO.N,nCS*
X60782200Y-78009400D03*
G04 #@! TO.P,U2,26*
G04 #@! TO.N,MOSI*
X60782200Y-75469400D03*
G04 #@! TO.P,U2,25*
G04 #@! TO.N,CLK*
X60782200Y-72929400D03*
G04 #@! TO.P,U2,24*
G04 #@! TO.N,MISO*
X60782200Y-70389400D03*
G04 #@! TO.P,U2,23*
G04 #@! TO.N,Net-(U2-Pad23)*
X60782200Y-67849400D03*
G04 #@! TO.P,U2,22*
G04 #@! TO.N,Net-(U2-Pad22)*
X60782200Y-65309400D03*
G04 #@! TO.P,U2,21*
G04 #@! TO.N,Net-(U2-Pad21)*
X60782200Y-62769400D03*
G04 #@! TO.P,U2,20*
G04 #@! TO.N,Net-(U2-Pad20)*
X60782200Y-60229400D03*
G04 #@! TO.P,U2,19*
G04 #@! TO.N,Net-(U2-Pad19)*
X60782200Y-57689400D03*
G04 #@! TO.P,U2,18*
G04 #@! TO.N,GND*
X60782200Y-55149400D03*
G04 #@! TO.P,U2,17*
G04 #@! TO.N,VDD*
X60782200Y-52609400D03*
G04 #@! TO.P,U2,16*
G04 #@! TO.N,VIN*
X60782200Y-50069400D03*
G04 #@! TO.P,U2,15*
G04 #@! TO.N,Net-(U2-Pad15)*
X60782200Y-47529400D03*
G04 #@! TO.P,U2,14*
G04 #@! TO.N,nCS1*
X40462200Y-80549400D03*
G04 #@! TO.P,U2,13*
G04 #@! TO.N,nFAULT*
X40462200Y-78009400D03*
G04 #@! TO.P,U2,12*
G04 #@! TO.N,nSLEEP*
X40462200Y-75469400D03*
G04 #@! TO.P,U2,11*
G04 #@! TO.N,IN_WH*
X40462200Y-72929400D03*
G04 #@! TO.P,U2,10*
G04 #@! TO.N,IN_VL*
X40462200Y-70389400D03*
G04 #@! TO.P,U2,9*
G04 #@! TO.N,IN_UL*
X40462200Y-67849400D03*
G04 #@! TO.P,U2,8*
G04 #@! TO.N,AOUT_W*
X40462200Y-65309400D03*
G04 #@! TO.P,U2,7*
G04 #@! TO.N,AOUT_V*
X40462200Y-62769400D03*
G04 #@! TO.P,U2,6*
G04 #@! TO.N,IN_VH*
X40462200Y-60229400D03*
G04 #@! TO.P,U2,5*
G04 #@! TO.N,IN_UH*
X40462200Y-57689400D03*
G04 #@! TO.P,U2,4*
G04 #@! TO.N,AOUT_U*
X40462200Y-55149400D03*
G04 #@! TO.P,U2,3*
G04 #@! TO.N,VBAT*
X40462200Y-52609400D03*
G04 #@! TO.P,U2,2*
G04 #@! TO.N,VREF*
X40462200Y-50069400D03*
D16*
G04 #@! TO.P,U2,*
G04 #@! TO.N,*
X60872200Y-27659400D03*
X40372200Y-27659400D03*
D14*
G04 #@! TO.P,U2,1*
G04 #@! TO.N,DRVOFF*
X40462200Y-47529400D03*
G04 #@! TD*
D17*
G04 #@! TO.P,U1,EPAD*
G04 #@! TO.N,GND*
X51285560Y-50788280D03*
X51285560Y-49538280D03*
X51285560Y-48288280D03*
X51285560Y-47038280D03*
X50285560Y-50788280D03*
X50285560Y-49538280D03*
X50285560Y-48288280D03*
X50285560Y-47038280D03*
X49285560Y-50788280D03*
X49285560Y-49538280D03*
X49285560Y-48288280D03*
X49285560Y-47038280D03*
G04 #@! TD*
D18*
G04 #@! TO.P,J3_2,1*
G04 #@! TO.N,GNDPWR*
X40654200Y-40155980D03*
D13*
G04 #@! TO.P,J3_2,2*
G04 #@! TO.N,VS*
X40654200Y-35155980D03*
G04 #@! TD*
G04 #@! TA.AperFunction,ComponentPad*
D19*
G04 #@! TO.P,J3_1,1*
G04 #@! TO.N,GNDPWR*
G36*
X40114200Y-43675980D02*
G01*
X36114200Y-43175980D01*
X36114200Y-39675980D01*
X40114200Y-39175980D01*
X40114200Y-43675980D01*
G37*
G04 #@! TD.AperFunction*
D20*
X39114200Y-39915980D03*
X39114200Y-41415980D03*
X39114200Y-42915980D03*
X38114200Y-40165980D03*
X38114200Y-42665980D03*
X37114200Y-40415980D03*
X37114200Y-41415980D03*
X37114200Y-42415980D03*
G04 #@! TA.AperFunction,ComponentPad*
D19*
G04 #@! TO.P,J3_1,2*
G04 #@! TO.N,VS*
G36*
X40114200Y-36170980D02*
G01*
X36114200Y-35670980D01*
X36114200Y-32170980D01*
X40114200Y-31670980D01*
X40114200Y-36170980D01*
G37*
G04 #@! TD.AperFunction*
D20*
X39114200Y-32410980D03*
X39114200Y-33910980D03*
X39114200Y-35410980D03*
X38114200Y-32660980D03*
X38114200Y-35160980D03*
X37114200Y-32910980D03*
X37114200Y-33910980D03*
X37114200Y-34910980D03*
G04 #@! TD*
G04 #@! TA.AperFunction,ComponentPad*
D19*
G04 #@! TO.P,J4_1,1*
G04 #@! TO.N,PHASE_W*
G36*
X40909680Y-27349200D02*
G01*
X41409680Y-23349200D01*
X44909680Y-23349200D01*
X45409680Y-27349200D01*
X40909680Y-27349200D01*
G37*
G04 #@! TD.AperFunction*
D20*
X44669680Y-26349200D03*
X43169680Y-26349200D03*
X41669680Y-26349200D03*
X44419680Y-25349200D03*
X41919680Y-25349200D03*
X44169680Y-24349200D03*
X43169680Y-24349200D03*
X42169680Y-24349200D03*
G04 #@! TA.AperFunction,ComponentPad*
D19*
G04 #@! TO.P,J4_1,2*
G04 #@! TO.N,PHASE_V*
G36*
X48414680Y-27349200D02*
G01*
X48914680Y-23349200D01*
X52414680Y-23349200D01*
X52914680Y-27349200D01*
X48414680Y-27349200D01*
G37*
G04 #@! TD.AperFunction*
D20*
X52174680Y-26349200D03*
X50674680Y-26349200D03*
X49174680Y-26349200D03*
X51924680Y-25349200D03*
X49424680Y-25349200D03*
X51674680Y-24349200D03*
X50674680Y-24349200D03*
X49674680Y-24349200D03*
G04 #@! TO.P,J4_1,3*
G04 #@! TO.N,PHASE_U*
X59674680Y-26349200D03*
X58174680Y-26349200D03*
X56674680Y-26349200D03*
G04 #@! TA.AperFunction,ComponentPad*
D19*
G36*
X55914680Y-27349200D02*
G01*
X56414680Y-23349200D01*
X59914680Y-23349200D01*
X60414680Y-27349200D01*
X55914680Y-27349200D01*
G37*
G04 #@! TD.AperFunction*
D20*
X59424680Y-25349200D03*
X56924680Y-25349200D03*
X59174680Y-24349200D03*
X58174680Y-24349200D03*
X57174680Y-24349200D03*
G04 #@! TD*
D12*
G04 #@! TO.N,GND*
X49590400Y-85737700D03*
X56005400Y-56802700D03*
X45735400Y-80982700D03*
X57435400Y-63712700D03*
X48415400Y-72492700D03*
X45215400Y-70472700D03*
X44865400Y-64672700D03*
X48225400Y-75612700D03*
X48245400Y-79542700D03*
X42395400Y-79282700D03*
X44375400Y-77682700D03*
X54185400Y-78632700D03*
X54155400Y-75732700D03*
X54115400Y-73112700D03*
X56485400Y-73622700D03*
X57895400Y-78582700D03*
X56485400Y-85392700D03*
X58565400Y-83072700D03*
X42895400Y-85442700D03*
X39545400Y-82492700D03*
X58265400Y-65922700D03*
X58245400Y-61502700D03*
X55585400Y-59422700D03*
X53145400Y-62382700D03*
X59285400Y-48682700D03*
X59275400Y-51212700D03*
G04 #@! TO.N,VDDA*
X44964820Y-48163280D03*
G04 #@! TO.N,nSLEEP*
X43335400Y-52672700D03*
X42995400Y-76132700D03*
D21*
G04 #@! TO.N,FB_BK*
X58115400Y-55502700D03*
D12*
G04 #@! TO.N,VS*
X44290400Y-44127700D03*
G04 #@! TO.N,VREF*
X50795400Y-54832700D03*
X44215400Y-52032700D03*
G04 #@! TO.N,AOUT_W*
X45795400Y-59952700D03*
X50835400Y-59952700D03*
G04 #@! TO.N,AOUT_V*
X45795400Y-57742700D03*
X52405400Y-58052700D03*
G04 #@! TO.N,AOUT_U*
X44205400Y-52972700D03*
X52935400Y-55612700D03*
G04 #@! TO.N,VDD*
X49455400Y-67642700D03*
X54585400Y-63272700D03*
G04 #@! TO.N,Net-(D2-Pad1)*
X41365400Y-31382700D03*
X47155400Y-33212700D03*
G04 #@! TO.N,CLK*
X52665400Y-70292700D03*
X55485400Y-68622700D03*
G04 #@! TO.N,MISO*
X50785400Y-67712700D03*
X51245400Y-80452700D03*
G04 #@! TO.N,PHASE_U*
X51853071Y-44855029D03*
X51853071Y-44165029D03*
X51895400Y-43502700D03*
G04 #@! TO.N,PHASE_V*
X50318245Y-44799855D03*
X50318245Y-44149855D03*
X50285560Y-43492540D03*
G04 #@! TO.N,PHASE_W*
X48505400Y-44842700D03*
X48505400Y-44152700D03*
X48505400Y-43502700D03*
G04 #@! TO.N,IN_UL*
X42125390Y-57262700D03*
G04 #@! TO.N,IN_WL*
X46935400Y-69272700D03*
G04 #@! TO.N,nFAULT*
X42545400Y-53352700D03*
X42325400Y-74202700D03*
G04 #@! TO.N,nCS*
X58235400Y-69232700D03*
G04 #@! TO.N,DRVOFF*
X45535400Y-46152690D03*
G04 #@! TD*
D22*
G04 #@! TO.N,GND*
X56920392Y-56802700D02*
X56930392Y-56792700D01*
X56005400Y-56802700D02*
X56920392Y-56802700D01*
X59138900Y-56792700D02*
X60782200Y-55149400D01*
X56930392Y-56792700D02*
X59138900Y-56792700D01*
X45735400Y-80982700D02*
X45735400Y-84452700D01*
X47020400Y-85737700D02*
X49590400Y-85737700D01*
X45735400Y-84452700D02*
X47020400Y-85737700D01*
X46115400Y-44952700D02*
X46115400Y-45622700D01*
X47530980Y-47038280D02*
X49285560Y-47038280D01*
X46115400Y-45622700D02*
X47530980Y-47038280D01*
G04 #@! TO.N,VDDA*
X43605400Y-48177700D02*
X43605400Y-47972700D01*
X43619820Y-48163280D02*
X43605400Y-48177700D01*
X44964820Y-48163280D02*
X43619820Y-48163280D01*
G04 #@! TO.N,nSLEEP*
X43555399Y-52892699D02*
X43335400Y-52672700D01*
X43555399Y-75572701D02*
X43555399Y-52892699D01*
X42995400Y-76132700D02*
X43555399Y-75572701D01*
G04 #@! TO.N,FB_BK*
X58115400Y-54782700D02*
X57655400Y-54322700D01*
X58115400Y-55502700D02*
X58115400Y-54782700D01*
G04 #@! TO.N,VS*
X40654200Y-35155980D02*
X44290400Y-38792180D01*
X44290400Y-38792180D02*
X44290400Y-44127700D01*
G04 #@! TO.N,VREF*
X40653900Y-49877700D02*
X40462200Y-50069400D01*
X43450400Y-49877700D02*
X40653900Y-49877700D01*
X43600400Y-49727700D02*
X43450400Y-49877700D01*
X44215400Y-50237700D02*
X43605400Y-49627700D01*
X44215400Y-52032700D02*
X44215400Y-50237700D01*
X44215400Y-52042700D02*
X44215400Y-52032700D01*
X47005400Y-54832700D02*
X44215400Y-52042700D01*
X50795400Y-54832700D02*
X47005400Y-54832700D01*
G04 #@! TO.N,AOUT_W*
X45795400Y-59952700D02*
X50835400Y-59952700D01*
G04 #@! TO.N,AOUT_V*
X45795400Y-57742700D02*
X50755400Y-57742700D01*
X52095400Y-57742700D02*
X50755400Y-57742700D01*
X52405400Y-58052700D02*
X52095400Y-57742700D01*
G04 #@! TO.N,AOUT_U*
X46845400Y-55612700D02*
X50835400Y-55612700D01*
X44205400Y-52972700D02*
X46845400Y-55612700D01*
X50835400Y-55612700D02*
X52935400Y-55612700D01*
G04 #@! TO.N,VDD*
X60518900Y-52872700D02*
X60782200Y-52609400D01*
X62155400Y-58252700D02*
X62155400Y-53982600D01*
X62155400Y-53982600D02*
X60782200Y-52609400D01*
X58115400Y-58982700D02*
X61425400Y-58982700D01*
X61425400Y-58982700D02*
X62155400Y-58252700D01*
X54585400Y-62632700D02*
X54525400Y-62572700D01*
X54585400Y-63272700D02*
X54585400Y-62632700D01*
X54525400Y-62572700D02*
X58115400Y-58982700D01*
X49455400Y-67642700D02*
X54525400Y-62572700D01*
G04 #@! TO.N,Net-(D2-Pad1)*
X47155400Y-33212700D02*
X45455400Y-31512700D01*
X41495400Y-31512700D02*
X41365400Y-31382700D01*
X45455400Y-31512700D02*
X41495400Y-31512700D01*
G04 #@! TO.N,CLK*
X54335400Y-68622700D02*
X55485400Y-68622700D01*
X52665400Y-70292700D02*
X54335400Y-68622700D01*
G04 #@! TO.N,MISO*
X60782200Y-70389400D02*
X58105500Y-67712700D01*
X58105500Y-67712700D02*
X50785400Y-67712700D01*
X50785400Y-67712700D02*
X51385400Y-68312700D01*
X51385400Y-80312700D02*
X51245400Y-80452700D01*
X51385400Y-68312700D02*
X51385400Y-80312700D01*
D23*
G04 #@! TO.N,PHASE_U*
X51853071Y-31660809D02*
X58164680Y-25349200D01*
X51853071Y-44855029D02*
X51853071Y-31660809D01*
G04 #@! TO.N,PHASE_V*
X50318245Y-25695635D02*
X50664680Y-25349200D01*
X50318245Y-44799855D02*
X50318245Y-25695635D01*
G04 #@! TO.N,PHASE_W*
X48505400Y-30694920D02*
X43159680Y-25349200D01*
X48505400Y-44842700D02*
X48505400Y-30694920D01*
D22*
G04 #@! TO.N,IN_UL*
X40462200Y-67849400D02*
X42125390Y-66186210D01*
X42125390Y-66186210D02*
X42125390Y-57262700D01*
G04 #@! TO.N,IN_WL*
X58212100Y-80549400D02*
X60782200Y-80549400D01*
X46935400Y-69272700D02*
X46935400Y-82842700D01*
X46935400Y-82842700D02*
X48005400Y-83912700D01*
X54848800Y-83912700D02*
X58212100Y-80549400D01*
X48005400Y-83912700D02*
X54848800Y-83912700D01*
G04 #@! TO.N,nFAULT*
X42845399Y-53652699D02*
X42545400Y-53352700D01*
X42568700Y-75469400D02*
X42845400Y-75192700D01*
X42325400Y-74202700D02*
X42455399Y-74072701D01*
X42455399Y-74072701D02*
X42845399Y-74072701D01*
X42845399Y-74072701D02*
X42845399Y-53652699D01*
X42845400Y-75192700D02*
X42845399Y-74072701D01*
D24*
X42568700Y-75469400D02*
X42568700Y-75479400D01*
D22*
X40462200Y-77585900D02*
X40462200Y-78009400D01*
X42568700Y-75479400D02*
X40462200Y-77585900D01*
G04 #@! TO.N,nCS*
X58235400Y-75462600D02*
X60782200Y-78009400D01*
X58235400Y-69232700D02*
X58235400Y-75462600D01*
G04 #@! TO.N,DRVOFF*
X40776910Y-46152690D02*
X45535400Y-46152690D01*
X40462200Y-46467400D02*
X40776910Y-46152690D01*
X40462200Y-47529400D02*
X40462200Y-46467400D01*
D24*
G04 #@! TO.N,VIN*
X58540402Y-52872700D02*
X60782200Y-50630902D01*
X60782200Y-50630902D02*
X60782200Y-50069400D01*
X57655400Y-52872700D02*
X58540402Y-52872700D01*
G04 #@! TD*
D25*
G04 #@! TO.N,GND*
G36*
X39110698Y-46523220D02*
G01*
X39074388Y-46642918D01*
X39062128Y-46767400D01*
X39062128Y-48291400D01*
X39074388Y-48415882D01*
X39110698Y-48535580D01*
X39169663Y-48645894D01*
X39249015Y-48742585D01*
X39345706Y-48821937D01*
X39456020Y-48880902D01*
X39575718Y-48917212D01*
X39659665Y-48925480D01*
X39571665Y-48984280D01*
X39377080Y-49178865D01*
X39224195Y-49407673D01*
X39118886Y-49661910D01*
X39065200Y-49931808D01*
X39065200Y-50206992D01*
X39118886Y-50476890D01*
X39224195Y-50731127D01*
X39377080Y-50959935D01*
X39571665Y-51154520D01*
X39800473Y-51307405D01*
X39877715Y-51339400D01*
X39800473Y-51371395D01*
X39571665Y-51524280D01*
X39377080Y-51718865D01*
X39224195Y-51947673D01*
X39118886Y-52201910D01*
X39065200Y-52471808D01*
X39065200Y-52746992D01*
X39118886Y-53016890D01*
X39224195Y-53271127D01*
X39377080Y-53499935D01*
X39571665Y-53694520D01*
X39800473Y-53847405D01*
X39877715Y-53879400D01*
X39800473Y-53911395D01*
X39571665Y-54064280D01*
X39377080Y-54258865D01*
X39224195Y-54487673D01*
X39118886Y-54741910D01*
X39065200Y-55011808D01*
X39065200Y-55286992D01*
X39118886Y-55556890D01*
X39224195Y-55811127D01*
X39377080Y-56039935D01*
X39571665Y-56234520D01*
X39800473Y-56387405D01*
X39877715Y-56419400D01*
X39800473Y-56451395D01*
X39571665Y-56604280D01*
X39377080Y-56798865D01*
X39224195Y-57027673D01*
X39118886Y-57281910D01*
X39065200Y-57551808D01*
X39065200Y-57826992D01*
X39118886Y-58096890D01*
X39224195Y-58351127D01*
X39377080Y-58579935D01*
X39571665Y-58774520D01*
X39800473Y-58927405D01*
X39877715Y-58959400D01*
X39800473Y-58991395D01*
X39571665Y-59144280D01*
X39377080Y-59338865D01*
X39224195Y-59567673D01*
X39118886Y-59821910D01*
X39065200Y-60091808D01*
X39065200Y-60366992D01*
X39118886Y-60636890D01*
X39224195Y-60891127D01*
X39377080Y-61119935D01*
X39571665Y-61314520D01*
X39800473Y-61467405D01*
X39877715Y-61499400D01*
X39800473Y-61531395D01*
X39571665Y-61684280D01*
X39377080Y-61878865D01*
X39224195Y-62107673D01*
X39118886Y-62361910D01*
X39065200Y-62631808D01*
X39065200Y-62906992D01*
X39118886Y-63176890D01*
X39224195Y-63431127D01*
X39377080Y-63659935D01*
X39571665Y-63854520D01*
X39800473Y-64007405D01*
X39877715Y-64039400D01*
X39800473Y-64071395D01*
X39571665Y-64224280D01*
X39377080Y-64418865D01*
X39224195Y-64647673D01*
X39118886Y-64901910D01*
X39065200Y-65171808D01*
X39065200Y-65446992D01*
X39118886Y-65716890D01*
X39224195Y-65971127D01*
X39377080Y-66199935D01*
X39571665Y-66394520D01*
X39800473Y-66547405D01*
X39877715Y-66579400D01*
X39800473Y-66611395D01*
X39571665Y-66764280D01*
X39377080Y-66958865D01*
X39224195Y-67187673D01*
X39118886Y-67441910D01*
X39065200Y-67711808D01*
X39065200Y-67986992D01*
X39118886Y-68256890D01*
X39224195Y-68511127D01*
X39377080Y-68739935D01*
X39571665Y-68934520D01*
X39800473Y-69087405D01*
X39877715Y-69119400D01*
X39800473Y-69151395D01*
X39571665Y-69304280D01*
X39377080Y-69498865D01*
X39224195Y-69727673D01*
X39118886Y-69981910D01*
X39065200Y-70251808D01*
X39065200Y-70526992D01*
X39118886Y-70796890D01*
X39224195Y-71051127D01*
X39377080Y-71279935D01*
X39571665Y-71474520D01*
X39800473Y-71627405D01*
X39877715Y-71659400D01*
X39800473Y-71691395D01*
X39571665Y-71844280D01*
X39377080Y-72038865D01*
X39224195Y-72267673D01*
X39118886Y-72521910D01*
X39065200Y-72791808D01*
X39065200Y-73066992D01*
X39118886Y-73336890D01*
X39224195Y-73591127D01*
X39377080Y-73819935D01*
X39571665Y-74014520D01*
X39800473Y-74167405D01*
X39877715Y-74199400D01*
X39800473Y-74231395D01*
X39571665Y-74384280D01*
X39377080Y-74578865D01*
X39224195Y-74807673D01*
X39118886Y-75061910D01*
X39065200Y-75331808D01*
X39065200Y-75606992D01*
X39118886Y-75876890D01*
X39224195Y-76131127D01*
X39377080Y-76359935D01*
X39571665Y-76554520D01*
X39800473Y-76707405D01*
X39877715Y-76739400D01*
X39800473Y-76771395D01*
X39571665Y-76924280D01*
X39377080Y-77118865D01*
X39224195Y-77347673D01*
X39118886Y-77601910D01*
X39065200Y-77871808D01*
X39065200Y-78146992D01*
X39118886Y-78416890D01*
X39224195Y-78671127D01*
X39377080Y-78899935D01*
X39571665Y-79094520D01*
X39800473Y-79247405D01*
X39877715Y-79279400D01*
X39800473Y-79311395D01*
X39571665Y-79464280D01*
X39377080Y-79658865D01*
X39224195Y-79887673D01*
X39118886Y-80141910D01*
X39065200Y-80411808D01*
X39065200Y-80686992D01*
X39118886Y-80956890D01*
X39224195Y-81211127D01*
X39377080Y-81439935D01*
X39571665Y-81634520D01*
X39800473Y-81787405D01*
X40054710Y-81892714D01*
X40324608Y-81946400D01*
X40599792Y-81946400D01*
X40869690Y-81892714D01*
X41123927Y-81787405D01*
X41352735Y-81634520D01*
X41547320Y-81439935D01*
X41700205Y-81211127D01*
X41805514Y-80956890D01*
X41859200Y-80686992D01*
X41859200Y-80411808D01*
X41805514Y-80141910D01*
X41700205Y-79887673D01*
X41547320Y-79658865D01*
X41352735Y-79464280D01*
X41123927Y-79311395D01*
X41046685Y-79279400D01*
X41123927Y-79247405D01*
X41352735Y-79094520D01*
X41547320Y-78899935D01*
X41700205Y-78671127D01*
X41805514Y-78416890D01*
X41859200Y-78146992D01*
X41859200Y-77871808D01*
X41805514Y-77601910D01*
X41732534Y-77425723D01*
X42349334Y-76808924D01*
X42399372Y-76858962D01*
X42552511Y-76961286D01*
X42722671Y-77031768D01*
X42903311Y-77067700D01*
X43087489Y-77067700D01*
X43268129Y-77031768D01*
X43438289Y-76961286D01*
X43591428Y-76858962D01*
X43721662Y-76728728D01*
X43823986Y-76575589D01*
X43894468Y-76405429D01*
X43909773Y-76328484D01*
X44083215Y-76155043D01*
X44113163Y-76130465D01*
X44211261Y-76010934D01*
X44284153Y-75874561D01*
X44297415Y-75830841D01*
X44329040Y-75726589D01*
X44332662Y-75689811D01*
X44340399Y-75611262D01*
X44340399Y-75611255D01*
X44344196Y-75572702D01*
X44340399Y-75534149D01*
X44340399Y-59860611D01*
X44860400Y-59860611D01*
X44860400Y-60044789D01*
X44896332Y-60225429D01*
X44966814Y-60395589D01*
X45069138Y-60548728D01*
X45199372Y-60678962D01*
X45352511Y-60781286D01*
X45522671Y-60851768D01*
X45703311Y-60887700D01*
X45887489Y-60887700D01*
X46068129Y-60851768D01*
X46238289Y-60781286D01*
X46303520Y-60737700D01*
X50327280Y-60737700D01*
X50392511Y-60781286D01*
X50562671Y-60851768D01*
X50743311Y-60887700D01*
X50927489Y-60887700D01*
X51108129Y-60851768D01*
X51278289Y-60781286D01*
X51431428Y-60678962D01*
X51561662Y-60548728D01*
X51663986Y-60395589D01*
X51734468Y-60225429D01*
X51770400Y-60044789D01*
X51770400Y-59860611D01*
X51734468Y-59679971D01*
X51663986Y-59509811D01*
X51561662Y-59356672D01*
X51431428Y-59226438D01*
X51278289Y-59124114D01*
X51108129Y-59053632D01*
X50927489Y-59017700D01*
X50743311Y-59017700D01*
X50562671Y-59053632D01*
X50392511Y-59124114D01*
X50327280Y-59167700D01*
X46303520Y-59167700D01*
X46238289Y-59124114D01*
X46068129Y-59053632D01*
X45887489Y-59017700D01*
X45703311Y-59017700D01*
X45522671Y-59053632D01*
X45352511Y-59124114D01*
X45199372Y-59226438D01*
X45069138Y-59356672D01*
X44966814Y-59509811D01*
X44896332Y-59679971D01*
X44860400Y-59860611D01*
X44340399Y-59860611D01*
X44340399Y-57650611D01*
X44860400Y-57650611D01*
X44860400Y-57834789D01*
X44896332Y-58015429D01*
X44966814Y-58185589D01*
X45069138Y-58338728D01*
X45199372Y-58468962D01*
X45352511Y-58571286D01*
X45522671Y-58641768D01*
X45703311Y-58677700D01*
X45887489Y-58677700D01*
X46068129Y-58641768D01*
X46238289Y-58571286D01*
X46303520Y-58527700D01*
X51598270Y-58527700D01*
X51679138Y-58648728D01*
X51809372Y-58778962D01*
X51962511Y-58881286D01*
X52132671Y-58951768D01*
X52313311Y-58987700D01*
X52497489Y-58987700D01*
X52678129Y-58951768D01*
X52848289Y-58881286D01*
X53001428Y-58778962D01*
X53131662Y-58648728D01*
X53233986Y-58495589D01*
X53304468Y-58325429D01*
X53340400Y-58144789D01*
X53340400Y-57960611D01*
X53304468Y-57779971D01*
X53233986Y-57609811D01*
X53131662Y-57456672D01*
X53001428Y-57326438D01*
X52848289Y-57224114D01*
X52678129Y-57153632D01*
X52594831Y-57137063D01*
X52533633Y-57086838D01*
X52397260Y-57013946D01*
X52249287Y-56969059D01*
X52133961Y-56957700D01*
X52133953Y-56957700D01*
X52095400Y-56953903D01*
X52056847Y-56957700D01*
X46303520Y-56957700D01*
X46238289Y-56914114D01*
X46068129Y-56843632D01*
X45887489Y-56807700D01*
X45703311Y-56807700D01*
X45522671Y-56843632D01*
X45352511Y-56914114D01*
X45199372Y-57016438D01*
X45069138Y-57146672D01*
X44966814Y-57299811D01*
X44896332Y-57469971D01*
X44860400Y-57650611D01*
X44340399Y-57650611D01*
X44340399Y-54217856D01*
X46263053Y-56140510D01*
X46287636Y-56170464D01*
X46407167Y-56268562D01*
X46517808Y-56327700D01*
X46543540Y-56341454D01*
X46691513Y-56386342D01*
X46766426Y-56393720D01*
X46806839Y-56397700D01*
X46806844Y-56397700D01*
X46845400Y-56401497D01*
X46883956Y-56397700D01*
X52427280Y-56397700D01*
X52492511Y-56441286D01*
X52662671Y-56511768D01*
X52843311Y-56547700D01*
X53027489Y-56547700D01*
X53208129Y-56511768D01*
X53378289Y-56441286D01*
X53531428Y-56338962D01*
X53661662Y-56208728D01*
X53763986Y-56055589D01*
X53834468Y-55885429D01*
X53870400Y-55704789D01*
X53870400Y-55520611D01*
X53834468Y-55339971D01*
X53763986Y-55169811D01*
X53661662Y-55016672D01*
X53531428Y-54886438D01*
X53378289Y-54784114D01*
X53208129Y-54713632D01*
X53027489Y-54677700D01*
X52843311Y-54677700D01*
X52662671Y-54713632D01*
X52492511Y-54784114D01*
X52427280Y-54827700D01*
X51730400Y-54827700D01*
X51730400Y-54740611D01*
X51694468Y-54559971D01*
X51623986Y-54389811D01*
X51521662Y-54236672D01*
X51391428Y-54106438D01*
X51238289Y-54004114D01*
X51068129Y-53933632D01*
X50887489Y-53897700D01*
X50703311Y-53897700D01*
X50522671Y-53933632D01*
X50352511Y-54004114D01*
X50287280Y-54047700D01*
X47330557Y-54047700D01*
X45132257Y-51849400D01*
X45114468Y-51759971D01*
X45043986Y-51589811D01*
X45000400Y-51524580D01*
X45000400Y-50276252D01*
X45004197Y-50237699D01*
X45000400Y-50199146D01*
X45000400Y-50199139D01*
X44993418Y-50128250D01*
X44993472Y-50127700D01*
X44993472Y-49098280D01*
X45056909Y-49098280D01*
X45237549Y-49062348D01*
X45407709Y-48991866D01*
X45560848Y-48889542D01*
X45691082Y-48759308D01*
X45793406Y-48606169D01*
X45863888Y-48436009D01*
X45899820Y-48255369D01*
X45899820Y-48071191D01*
X45863888Y-47890551D01*
X45793406Y-47720391D01*
X45691082Y-47567252D01*
X45560848Y-47437018D01*
X45407709Y-47334694D01*
X45237549Y-47264212D01*
X45056909Y-47228280D01*
X44872731Y-47228280D01*
X44817113Y-47239343D01*
X44806585Y-47226515D01*
X44709894Y-47147163D01*
X44599580Y-47088198D01*
X44479882Y-47051888D01*
X44355400Y-47039628D01*
X42855400Y-47039628D01*
X42730918Y-47051888D01*
X42611220Y-47088198D01*
X42500906Y-47147163D01*
X42404215Y-47226515D01*
X42324863Y-47323206D01*
X42265898Y-47433520D01*
X42229588Y-47553218D01*
X42217328Y-47677700D01*
X42217328Y-48677700D01*
X42229719Y-48802836D01*
X42237309Y-48827764D01*
X42229588Y-48853218D01*
X42217328Y-48977700D01*
X42217328Y-49092700D01*
X41461155Y-49092700D01*
X41352735Y-48984280D01*
X41264735Y-48925480D01*
X41348682Y-48917212D01*
X41468380Y-48880902D01*
X41578694Y-48821937D01*
X41675385Y-48742585D01*
X41754737Y-48645894D01*
X41813702Y-48535580D01*
X41850012Y-48415882D01*
X41862272Y-48291400D01*
X41862272Y-46937690D01*
X45027280Y-46937690D01*
X45092511Y-46981276D01*
X45262671Y-47051758D01*
X45443311Y-47087690D01*
X45627489Y-47087690D01*
X45808129Y-47051758D01*
X45978289Y-46981276D01*
X46131428Y-46878952D01*
X46261662Y-46748718D01*
X46363986Y-46595579D01*
X46399558Y-46509700D01*
X59826245Y-46509700D01*
X59697080Y-46638865D01*
X59544195Y-46867673D01*
X59438886Y-47121910D01*
X59385200Y-47391808D01*
X59385200Y-47666992D01*
X59438886Y-47936890D01*
X59544195Y-48191127D01*
X59697080Y-48419935D01*
X59891665Y-48614520D01*
X60120473Y-48767405D01*
X60197715Y-48799400D01*
X60120473Y-48831395D01*
X59891665Y-48984280D01*
X59697080Y-49178865D01*
X59544195Y-49407673D01*
X59438886Y-49661910D01*
X59385200Y-49931808D01*
X59385200Y-50206992D01*
X59438886Y-50476890D01*
X59544195Y-50731127D01*
X59569421Y-50768880D01*
X58577092Y-51761209D01*
X58529882Y-51746888D01*
X58405400Y-51734628D01*
X56905400Y-51734628D01*
X56780918Y-51746888D01*
X56661220Y-51783198D01*
X56550906Y-51842163D01*
X56454215Y-51921515D01*
X56374863Y-52018206D01*
X56315898Y-52128520D01*
X56279588Y-52248218D01*
X56267328Y-52372700D01*
X56267328Y-53522700D01*
X56279459Y-53646527D01*
X56287349Y-53672635D01*
X56279588Y-53698218D01*
X56267328Y-53822700D01*
X56267328Y-54822700D01*
X56279588Y-54947182D01*
X56315898Y-55066880D01*
X56374863Y-55177194D01*
X56454215Y-55273885D01*
X56550906Y-55353237D01*
X56661220Y-55412202D01*
X56780918Y-55448512D01*
X56905400Y-55460772D01*
X57080400Y-55460772D01*
X57080400Y-55604639D01*
X57120174Y-55804598D01*
X57198195Y-55992956D01*
X57311463Y-56162474D01*
X57455626Y-56306637D01*
X57625144Y-56419905D01*
X57813502Y-56497926D01*
X58013461Y-56537700D01*
X58217339Y-56537700D01*
X58417298Y-56497926D01*
X58605656Y-56419905D01*
X58775174Y-56306637D01*
X58919337Y-56162474D01*
X59032605Y-55992956D01*
X59110626Y-55804598D01*
X59150400Y-55604639D01*
X59150400Y-55400761D01*
X59110626Y-55200802D01*
X59032605Y-55012444D01*
X59018031Y-54990633D01*
X59031212Y-54947182D01*
X59043472Y-54822700D01*
X59043472Y-53822700D01*
X59031081Y-53697564D01*
X59023491Y-53672636D01*
X59031212Y-53647182D01*
X59043472Y-53522700D01*
X59043472Y-53443009D01*
X59080403Y-53412701D01*
X59104206Y-53383697D01*
X59448296Y-53039607D01*
X59544195Y-53271127D01*
X59697080Y-53499935D01*
X59891665Y-53694520D01*
X60120473Y-53847405D01*
X60374710Y-53952714D01*
X60644608Y-54006400D01*
X60919792Y-54006400D01*
X61044280Y-53981638D01*
X61370401Y-54307759D01*
X61370400Y-56420939D01*
X61189690Y-56346086D01*
X60919792Y-56292400D01*
X60644608Y-56292400D01*
X60374710Y-56346086D01*
X60120473Y-56451395D01*
X59891665Y-56604280D01*
X59697080Y-56798865D01*
X59544195Y-57027673D01*
X59438886Y-57281910D01*
X59385200Y-57551808D01*
X59385200Y-57826992D01*
X59438886Y-58096890D01*
X59480643Y-58197700D01*
X58153956Y-58197700D01*
X58115400Y-58193903D01*
X58076844Y-58197700D01*
X58076839Y-58197700D01*
X58036426Y-58201680D01*
X57961513Y-58209058D01*
X57813540Y-58253946D01*
X57677167Y-58326838D01*
X57557636Y-58424936D01*
X57533055Y-58454888D01*
X53997588Y-61990355D01*
X53967636Y-62014936D01*
X53943056Y-62044887D01*
X49259617Y-66728326D01*
X49182671Y-66743632D01*
X49012511Y-66814114D01*
X48859372Y-66916438D01*
X48729138Y-67046672D01*
X48626814Y-67199811D01*
X48556332Y-67369971D01*
X48520400Y-67550611D01*
X48520400Y-67734789D01*
X48556332Y-67915429D01*
X48626814Y-68085589D01*
X48729138Y-68238728D01*
X48859372Y-68368962D01*
X49012511Y-68471286D01*
X49182671Y-68541768D01*
X49363311Y-68577700D01*
X49547489Y-68577700D01*
X49728129Y-68541768D01*
X49898289Y-68471286D01*
X50051428Y-68368962D01*
X50085400Y-68334990D01*
X50189372Y-68438962D01*
X50342511Y-68541286D01*
X50512671Y-68611768D01*
X50589616Y-68627073D01*
X50600400Y-68637858D01*
X50600401Y-79775409D01*
X50519138Y-79856672D01*
X50416814Y-80009811D01*
X50346332Y-80179971D01*
X50310400Y-80360611D01*
X50310400Y-80544789D01*
X50346332Y-80725429D01*
X50416814Y-80895589D01*
X50519138Y-81048728D01*
X50649372Y-81178962D01*
X50802511Y-81281286D01*
X50972671Y-81351768D01*
X51153311Y-81387700D01*
X51337489Y-81387700D01*
X51518129Y-81351768D01*
X51688289Y-81281286D01*
X51841428Y-81178962D01*
X51971662Y-81048728D01*
X52073986Y-80895589D01*
X52144468Y-80725429D01*
X52180400Y-80544789D01*
X52180400Y-80360611D01*
X52173095Y-80323888D01*
X52174197Y-80312700D01*
X52170400Y-80274144D01*
X52170400Y-71086467D01*
X52222511Y-71121286D01*
X52392671Y-71191768D01*
X52573311Y-71227700D01*
X52757489Y-71227700D01*
X52938129Y-71191768D01*
X53108289Y-71121286D01*
X53261428Y-71018962D01*
X53391662Y-70888728D01*
X53493986Y-70735589D01*
X53564468Y-70565429D01*
X53579774Y-70488483D01*
X54660557Y-69407700D01*
X54977280Y-69407700D01*
X55042511Y-69451286D01*
X55212671Y-69521768D01*
X55393311Y-69557700D01*
X55577489Y-69557700D01*
X55758129Y-69521768D01*
X55928289Y-69451286D01*
X56081428Y-69348962D01*
X56211662Y-69218728D01*
X56313986Y-69065589D01*
X56384468Y-68895429D01*
X56420400Y-68714789D01*
X56420400Y-68530611D01*
X56413854Y-68497700D01*
X57652449Y-68497700D01*
X57639372Y-68506438D01*
X57509138Y-68636672D01*
X57406814Y-68789811D01*
X57336332Y-68959971D01*
X57300400Y-69140611D01*
X57300400Y-69324789D01*
X57336332Y-69505429D01*
X57406814Y-69675589D01*
X57450400Y-69740820D01*
X57450401Y-75424037D01*
X57446603Y-75462600D01*
X57461759Y-75616486D01*
X57506646Y-75764459D01*
X57540577Y-75827940D01*
X57579539Y-75900833D01*
X57620090Y-75950244D01*
X57653055Y-75990412D01*
X57653059Y-75990416D01*
X57677637Y-76020364D01*
X57707585Y-76044942D01*
X59409962Y-77747320D01*
X59385200Y-77871808D01*
X59385200Y-78146992D01*
X59438886Y-78416890D01*
X59544195Y-78671127D01*
X59697080Y-78899935D01*
X59891665Y-79094520D01*
X59979665Y-79153320D01*
X59895718Y-79161588D01*
X59776020Y-79197898D01*
X59665706Y-79256863D01*
X59569015Y-79336215D01*
X59489663Y-79432906D01*
X59430698Y-79543220D01*
X59394388Y-79662918D01*
X59384393Y-79764400D01*
X58250652Y-79764400D01*
X58212099Y-79760603D01*
X58173546Y-79764400D01*
X58173539Y-79764400D01*
X58072590Y-79774343D01*
X58058212Y-79775759D01*
X58023772Y-79786206D01*
X57910240Y-79820646D01*
X57773867Y-79893538D01*
X57713659Y-79942950D01*
X57684287Y-79967055D01*
X57684284Y-79967058D01*
X57654336Y-79991636D01*
X57629758Y-80021584D01*
X54523643Y-83127700D01*
X48330557Y-83127700D01*
X47720400Y-82517543D01*
X47720400Y-69780820D01*
X47763986Y-69715589D01*
X47834468Y-69545429D01*
X47870400Y-69364789D01*
X47870400Y-69180611D01*
X47834468Y-68999971D01*
X47763986Y-68829811D01*
X47661662Y-68676672D01*
X47531428Y-68546438D01*
X47378289Y-68444114D01*
X47208129Y-68373632D01*
X47027489Y-68337700D01*
X46843311Y-68337700D01*
X46662671Y-68373632D01*
X46492511Y-68444114D01*
X46339372Y-68546438D01*
X46209138Y-68676672D01*
X46106814Y-68829811D01*
X46036332Y-68999971D01*
X46000400Y-69180611D01*
X46000400Y-69364789D01*
X46036332Y-69545429D01*
X46106814Y-69715589D01*
X46150400Y-69780820D01*
X46150401Y-82804137D01*
X46146603Y-82842700D01*
X46161759Y-82996586D01*
X46206646Y-83144559D01*
X46206647Y-83144560D01*
X46279539Y-83280933D01*
X46320090Y-83330344D01*
X46353055Y-83370512D01*
X46353059Y-83370516D01*
X46377637Y-83400464D01*
X46407585Y-83425042D01*
X47423053Y-84440510D01*
X47447636Y-84470464D01*
X47567167Y-84568562D01*
X47703540Y-84641454D01*
X47851513Y-84686342D01*
X47926426Y-84693720D01*
X47966839Y-84697700D01*
X47966844Y-84697700D01*
X48005400Y-84701497D01*
X48043956Y-84697700D01*
X54810247Y-84697700D01*
X54848800Y-84701497D01*
X54887353Y-84697700D01*
X54887361Y-84697700D01*
X55002687Y-84686341D01*
X55150660Y-84641454D01*
X55287033Y-84568562D01*
X55406564Y-84470464D01*
X55431147Y-84440510D01*
X58537258Y-81334400D01*
X59384393Y-81334400D01*
X59394388Y-81435882D01*
X59430698Y-81555580D01*
X59489663Y-81665894D01*
X59569015Y-81762585D01*
X59665706Y-81841937D01*
X59776020Y-81900902D01*
X59895718Y-81937212D01*
X60020200Y-81949472D01*
X61544200Y-81949472D01*
X61668682Y-81937212D01*
X61788380Y-81900902D01*
X61898694Y-81841937D01*
X61995385Y-81762585D01*
X62074737Y-81665894D01*
X62133702Y-81555580D01*
X62170012Y-81435882D01*
X62182272Y-81311400D01*
X62182272Y-79787400D01*
X62170012Y-79662918D01*
X62133702Y-79543220D01*
X62074737Y-79432906D01*
X61995385Y-79336215D01*
X61898694Y-79256863D01*
X61788380Y-79197898D01*
X61668682Y-79161588D01*
X61584735Y-79153320D01*
X61672735Y-79094520D01*
X61867320Y-78899935D01*
X62020205Y-78671127D01*
X62125514Y-78416890D01*
X62179200Y-78146992D01*
X62179200Y-77871808D01*
X62125514Y-77601910D01*
X62020205Y-77347673D01*
X61867320Y-77118865D01*
X61672735Y-76924280D01*
X61443927Y-76771395D01*
X61366685Y-76739400D01*
X61443927Y-76707405D01*
X61672735Y-76554520D01*
X61867320Y-76359935D01*
X62020205Y-76131127D01*
X62125514Y-75876890D01*
X62179200Y-75606992D01*
X62179200Y-75331808D01*
X62125514Y-75061910D01*
X62020205Y-74807673D01*
X61867320Y-74578865D01*
X61672735Y-74384280D01*
X61443927Y-74231395D01*
X61366685Y-74199400D01*
X61443927Y-74167405D01*
X61672735Y-74014520D01*
X61867320Y-73819935D01*
X62020205Y-73591127D01*
X62125514Y-73336890D01*
X62179200Y-73066992D01*
X62179200Y-72791808D01*
X62125514Y-72521910D01*
X62020205Y-72267673D01*
X61867320Y-72038865D01*
X61672735Y-71844280D01*
X61443927Y-71691395D01*
X61366685Y-71659400D01*
X61443927Y-71627405D01*
X61672735Y-71474520D01*
X61867320Y-71279935D01*
X62020205Y-71051127D01*
X62125514Y-70796890D01*
X62179200Y-70526992D01*
X62179200Y-70251808D01*
X62125514Y-69981910D01*
X62020205Y-69727673D01*
X61867320Y-69498865D01*
X61672735Y-69304280D01*
X61443927Y-69151395D01*
X61366685Y-69119400D01*
X61443927Y-69087405D01*
X61672735Y-68934520D01*
X61867320Y-68739935D01*
X62020205Y-68511127D01*
X62125514Y-68256890D01*
X62179200Y-67986992D01*
X62179200Y-67711808D01*
X62125514Y-67441910D01*
X62020205Y-67187673D01*
X61867320Y-66958865D01*
X61672735Y-66764280D01*
X61443927Y-66611395D01*
X61366685Y-66579400D01*
X61443927Y-66547405D01*
X61672735Y-66394520D01*
X61867320Y-66199935D01*
X62020205Y-65971127D01*
X62125514Y-65716890D01*
X62179200Y-65446992D01*
X62179200Y-65171808D01*
X62125514Y-64901910D01*
X62020205Y-64647673D01*
X61867320Y-64418865D01*
X61672735Y-64224280D01*
X61443927Y-64071395D01*
X61366685Y-64039400D01*
X61443927Y-64007405D01*
X61672735Y-63854520D01*
X61867320Y-63659935D01*
X62020205Y-63431127D01*
X62125514Y-63176890D01*
X62179200Y-62906992D01*
X62179200Y-62631808D01*
X62125514Y-62361910D01*
X62020205Y-62107673D01*
X61867320Y-61878865D01*
X61672735Y-61684280D01*
X61443927Y-61531395D01*
X61366685Y-61499400D01*
X61443927Y-61467405D01*
X61672735Y-61314520D01*
X61867320Y-61119935D01*
X62020205Y-60891127D01*
X62125514Y-60636890D01*
X62179200Y-60366992D01*
X62179200Y-60091808D01*
X62125514Y-59821910D01*
X62020205Y-59567673D01*
X61993560Y-59527796D01*
X62007747Y-59510511D01*
X62465401Y-59052857D01*
X62465401Y-84288228D01*
X62444368Y-84182488D01*
X62321118Y-83884937D01*
X62142187Y-83617148D01*
X61914452Y-83389413D01*
X61646663Y-83210482D01*
X61349112Y-83087232D01*
X61033233Y-83024400D01*
X60711167Y-83024400D01*
X60395288Y-83087232D01*
X60097737Y-83210482D01*
X59829948Y-83389413D01*
X59602213Y-83617148D01*
X59423282Y-83884937D01*
X59300032Y-84182488D01*
X59237200Y-84498367D01*
X59237200Y-84820433D01*
X59300032Y-85136312D01*
X59423282Y-85433863D01*
X59602213Y-85701652D01*
X59829948Y-85929387D01*
X60097737Y-86108318D01*
X60395288Y-86231568D01*
X60501526Y-86252700D01*
X40742874Y-86252700D01*
X40849112Y-86231568D01*
X41146663Y-86108318D01*
X41414452Y-85929387D01*
X41642187Y-85701652D01*
X41821118Y-85433863D01*
X41944368Y-85136312D01*
X42007200Y-84820433D01*
X42007200Y-84498367D01*
X41944368Y-84182488D01*
X41821118Y-83884937D01*
X41642187Y-83617148D01*
X41414452Y-83389413D01*
X41146663Y-83210482D01*
X40849112Y-83087232D01*
X40533233Y-83024400D01*
X40211167Y-83024400D01*
X39895288Y-83087232D01*
X39597737Y-83210482D01*
X39329948Y-83389413D01*
X39102213Y-83617148D01*
X38923282Y-83884937D01*
X38800032Y-84182488D01*
X38785400Y-84256048D01*
X38785400Y-46509700D01*
X39117925Y-46509700D01*
X39110698Y-46523220D01*
G37*
X39110698Y-46523220D02*
X39074388Y-46642918D01*
X39062128Y-46767400D01*
X39062128Y-48291400D01*
X39074388Y-48415882D01*
X39110698Y-48535580D01*
X39169663Y-48645894D01*
X39249015Y-48742585D01*
X39345706Y-48821937D01*
X39456020Y-48880902D01*
X39575718Y-48917212D01*
X39659665Y-48925480D01*
X39571665Y-48984280D01*
X39377080Y-49178865D01*
X39224195Y-49407673D01*
X39118886Y-49661910D01*
X39065200Y-49931808D01*
X39065200Y-50206992D01*
X39118886Y-50476890D01*
X39224195Y-50731127D01*
X39377080Y-50959935D01*
X39571665Y-51154520D01*
X39800473Y-51307405D01*
X39877715Y-51339400D01*
X39800473Y-51371395D01*
X39571665Y-51524280D01*
X39377080Y-51718865D01*
X39224195Y-51947673D01*
X39118886Y-52201910D01*
X39065200Y-52471808D01*
X39065200Y-52746992D01*
X39118886Y-53016890D01*
X39224195Y-53271127D01*
X39377080Y-53499935D01*
X39571665Y-53694520D01*
X39800473Y-53847405D01*
X39877715Y-53879400D01*
X39800473Y-53911395D01*
X39571665Y-54064280D01*
X39377080Y-54258865D01*
X39224195Y-54487673D01*
X39118886Y-54741910D01*
X39065200Y-55011808D01*
X39065200Y-55286992D01*
X39118886Y-55556890D01*
X39224195Y-55811127D01*
X39377080Y-56039935D01*
X39571665Y-56234520D01*
X39800473Y-56387405D01*
X39877715Y-56419400D01*
X39800473Y-56451395D01*
X39571665Y-56604280D01*
X39377080Y-56798865D01*
X39224195Y-57027673D01*
X39118886Y-57281910D01*
X39065200Y-57551808D01*
X39065200Y-57826992D01*
X39118886Y-58096890D01*
X39224195Y-58351127D01*
X39377080Y-58579935D01*
X39571665Y-58774520D01*
X39800473Y-58927405D01*
X39877715Y-58959400D01*
X39800473Y-58991395D01*
X39571665Y-59144280D01*
X39377080Y-59338865D01*
X39224195Y-59567673D01*
X39118886Y-59821910D01*
X39065200Y-60091808D01*
X39065200Y-60366992D01*
X39118886Y-60636890D01*
X39224195Y-60891127D01*
X39377080Y-61119935D01*
X39571665Y-61314520D01*
X39800473Y-61467405D01*
X39877715Y-61499400D01*
X39800473Y-61531395D01*
X39571665Y-61684280D01*
X39377080Y-61878865D01*
X39224195Y-62107673D01*
X39118886Y-62361910D01*
X39065200Y-62631808D01*
X39065200Y-62906992D01*
X39118886Y-63176890D01*
X39224195Y-63431127D01*
X39377080Y-63659935D01*
X39571665Y-63854520D01*
X39800473Y-64007405D01*
X39877715Y-64039400D01*
X39800473Y-64071395D01*
X39571665Y-64224280D01*
X39377080Y-64418865D01*
X39224195Y-64647673D01*
X39118886Y-64901910D01*
X39065200Y-65171808D01*
X39065200Y-65446992D01*
X39118886Y-65716890D01*
X39224195Y-65971127D01*
X39377080Y-66199935D01*
X39571665Y-66394520D01*
X39800473Y-66547405D01*
X39877715Y-66579400D01*
X39800473Y-66611395D01*
X39571665Y-66764280D01*
X39377080Y-66958865D01*
X39224195Y-67187673D01*
X39118886Y-67441910D01*
X39065200Y-67711808D01*
X39065200Y-67986992D01*
X39118886Y-68256890D01*
X39224195Y-68511127D01*
X39377080Y-68739935D01*
X39571665Y-68934520D01*
X39800473Y-69087405D01*
X39877715Y-69119400D01*
X39800473Y-69151395D01*
X39571665Y-69304280D01*
X39377080Y-69498865D01*
X39224195Y-69727673D01*
X39118886Y-69981910D01*
X39065200Y-70251808D01*
X39065200Y-70526992D01*
X39118886Y-70796890D01*
X39224195Y-71051127D01*
X39377080Y-71279935D01*
X39571665Y-71474520D01*
X39800473Y-71627405D01*
X39877715Y-71659400D01*
X39800473Y-71691395D01*
X39571665Y-71844280D01*
X39377080Y-72038865D01*
X39224195Y-72267673D01*
X39118886Y-72521910D01*
X39065200Y-72791808D01*
X39065200Y-73066992D01*
X39118886Y-73336890D01*
X39224195Y-73591127D01*
X39377080Y-73819935D01*
X39571665Y-74014520D01*
X39800473Y-74167405D01*
X39877715Y-74199400D01*
X39800473Y-74231395D01*
X39571665Y-74384280D01*
X39377080Y-74578865D01*
X39224195Y-74807673D01*
X39118886Y-75061910D01*
X39065200Y-75331808D01*
X39065200Y-75606992D01*
X39118886Y-75876890D01*
X39224195Y-76131127D01*
X39377080Y-76359935D01*
X39571665Y-76554520D01*
X39800473Y-76707405D01*
X39877715Y-76739400D01*
X39800473Y-76771395D01*
X39571665Y-76924280D01*
X39377080Y-77118865D01*
X39224195Y-77347673D01*
X39118886Y-77601910D01*
X39065200Y-77871808D01*
X39065200Y-78146992D01*
X39118886Y-78416890D01*
X39224195Y-78671127D01*
X39377080Y-78899935D01*
X39571665Y-79094520D01*
X39800473Y-79247405D01*
X39877715Y-79279400D01*
X39800473Y-79311395D01*
X39571665Y-79464280D01*
X39377080Y-79658865D01*
X39224195Y-79887673D01*
X39118886Y-80141910D01*
X39065200Y-80411808D01*
X39065200Y-80686992D01*
X39118886Y-80956890D01*
X39224195Y-81211127D01*
X39377080Y-81439935D01*
X39571665Y-81634520D01*
X39800473Y-81787405D01*
X40054710Y-81892714D01*
X40324608Y-81946400D01*
X40599792Y-81946400D01*
X40869690Y-81892714D01*
X41123927Y-81787405D01*
X41352735Y-81634520D01*
X41547320Y-81439935D01*
X41700205Y-81211127D01*
X41805514Y-80956890D01*
X41859200Y-80686992D01*
X41859200Y-80411808D01*
X41805514Y-80141910D01*
X41700205Y-79887673D01*
X41547320Y-79658865D01*
X41352735Y-79464280D01*
X41123927Y-79311395D01*
X41046685Y-79279400D01*
X41123927Y-79247405D01*
X41352735Y-79094520D01*
X41547320Y-78899935D01*
X41700205Y-78671127D01*
X41805514Y-78416890D01*
X41859200Y-78146992D01*
X41859200Y-77871808D01*
X41805514Y-77601910D01*
X41732534Y-77425723D01*
X42349334Y-76808924D01*
X42399372Y-76858962D01*
X42552511Y-76961286D01*
X42722671Y-77031768D01*
X42903311Y-77067700D01*
X43087489Y-77067700D01*
X43268129Y-77031768D01*
X43438289Y-76961286D01*
X43591428Y-76858962D01*
X43721662Y-76728728D01*
X43823986Y-76575589D01*
X43894468Y-76405429D01*
X43909773Y-76328484D01*
X44083215Y-76155043D01*
X44113163Y-76130465D01*
X44211261Y-76010934D01*
X44284153Y-75874561D01*
X44297415Y-75830841D01*
X44329040Y-75726589D01*
X44332662Y-75689811D01*
X44340399Y-75611262D01*
X44340399Y-75611255D01*
X44344196Y-75572702D01*
X44340399Y-75534149D01*
X44340399Y-59860611D01*
X44860400Y-59860611D01*
X44860400Y-60044789D01*
X44896332Y-60225429D01*
X44966814Y-60395589D01*
X45069138Y-60548728D01*
X45199372Y-60678962D01*
X45352511Y-60781286D01*
X45522671Y-60851768D01*
X45703311Y-60887700D01*
X45887489Y-60887700D01*
X46068129Y-60851768D01*
X46238289Y-60781286D01*
X46303520Y-60737700D01*
X50327280Y-60737700D01*
X50392511Y-60781286D01*
X50562671Y-60851768D01*
X50743311Y-60887700D01*
X50927489Y-60887700D01*
X51108129Y-60851768D01*
X51278289Y-60781286D01*
X51431428Y-60678962D01*
X51561662Y-60548728D01*
X51663986Y-60395589D01*
X51734468Y-60225429D01*
X51770400Y-60044789D01*
X51770400Y-59860611D01*
X51734468Y-59679971D01*
X51663986Y-59509811D01*
X51561662Y-59356672D01*
X51431428Y-59226438D01*
X51278289Y-59124114D01*
X51108129Y-59053632D01*
X50927489Y-59017700D01*
X50743311Y-59017700D01*
X50562671Y-59053632D01*
X50392511Y-59124114D01*
X50327280Y-59167700D01*
X46303520Y-59167700D01*
X46238289Y-59124114D01*
X46068129Y-59053632D01*
X45887489Y-59017700D01*
X45703311Y-59017700D01*
X45522671Y-59053632D01*
X45352511Y-59124114D01*
X45199372Y-59226438D01*
X45069138Y-59356672D01*
X44966814Y-59509811D01*
X44896332Y-59679971D01*
X44860400Y-59860611D01*
X44340399Y-59860611D01*
X44340399Y-57650611D01*
X44860400Y-57650611D01*
X44860400Y-57834789D01*
X44896332Y-58015429D01*
X44966814Y-58185589D01*
X45069138Y-58338728D01*
X45199372Y-58468962D01*
X45352511Y-58571286D01*
X45522671Y-58641768D01*
X45703311Y-58677700D01*
X45887489Y-58677700D01*
X46068129Y-58641768D01*
X46238289Y-58571286D01*
X46303520Y-58527700D01*
X51598270Y-58527700D01*
X51679138Y-58648728D01*
X51809372Y-58778962D01*
X51962511Y-58881286D01*
X52132671Y-58951768D01*
X52313311Y-58987700D01*
X52497489Y-58987700D01*
X52678129Y-58951768D01*
X52848289Y-58881286D01*
X53001428Y-58778962D01*
X53131662Y-58648728D01*
X53233986Y-58495589D01*
X53304468Y-58325429D01*
X53340400Y-58144789D01*
X53340400Y-57960611D01*
X53304468Y-57779971D01*
X53233986Y-57609811D01*
X53131662Y-57456672D01*
X53001428Y-57326438D01*
X52848289Y-57224114D01*
X52678129Y-57153632D01*
X52594831Y-57137063D01*
X52533633Y-57086838D01*
X52397260Y-57013946D01*
X52249287Y-56969059D01*
X52133961Y-56957700D01*
X52133953Y-56957700D01*
X52095400Y-56953903D01*
X52056847Y-56957700D01*
X46303520Y-56957700D01*
X46238289Y-56914114D01*
X46068129Y-56843632D01*
X45887489Y-56807700D01*
X45703311Y-56807700D01*
X45522671Y-56843632D01*
X45352511Y-56914114D01*
X45199372Y-57016438D01*
X45069138Y-57146672D01*
X44966814Y-57299811D01*
X44896332Y-57469971D01*
X44860400Y-57650611D01*
X44340399Y-57650611D01*
X44340399Y-54217856D01*
X46263053Y-56140510D01*
X46287636Y-56170464D01*
X46407167Y-56268562D01*
X46517808Y-56327700D01*
X46543540Y-56341454D01*
X46691513Y-56386342D01*
X46766426Y-56393720D01*
X46806839Y-56397700D01*
X46806844Y-56397700D01*
X46845400Y-56401497D01*
X46883956Y-56397700D01*
X52427280Y-56397700D01*
X52492511Y-56441286D01*
X52662671Y-56511768D01*
X52843311Y-56547700D01*
X53027489Y-56547700D01*
X53208129Y-56511768D01*
X53378289Y-56441286D01*
X53531428Y-56338962D01*
X53661662Y-56208728D01*
X53763986Y-56055589D01*
X53834468Y-55885429D01*
X53870400Y-55704789D01*
X53870400Y-55520611D01*
X53834468Y-55339971D01*
X53763986Y-55169811D01*
X53661662Y-55016672D01*
X53531428Y-54886438D01*
X53378289Y-54784114D01*
X53208129Y-54713632D01*
X53027489Y-54677700D01*
X52843311Y-54677700D01*
X52662671Y-54713632D01*
X52492511Y-54784114D01*
X52427280Y-54827700D01*
X51730400Y-54827700D01*
X51730400Y-54740611D01*
X51694468Y-54559971D01*
X51623986Y-54389811D01*
X51521662Y-54236672D01*
X51391428Y-54106438D01*
X51238289Y-54004114D01*
X51068129Y-53933632D01*
X50887489Y-53897700D01*
X50703311Y-53897700D01*
X50522671Y-53933632D01*
X50352511Y-54004114D01*
X50287280Y-54047700D01*
X47330557Y-54047700D01*
X45132257Y-51849400D01*
X45114468Y-51759971D01*
X45043986Y-51589811D01*
X45000400Y-51524580D01*
X45000400Y-50276252D01*
X45004197Y-50237699D01*
X45000400Y-50199146D01*
X45000400Y-50199139D01*
X44993418Y-50128250D01*
X44993472Y-50127700D01*
X44993472Y-49098280D01*
X45056909Y-49098280D01*
X45237549Y-49062348D01*
X45407709Y-48991866D01*
X45560848Y-48889542D01*
X45691082Y-48759308D01*
X45793406Y-48606169D01*
X45863888Y-48436009D01*
X45899820Y-48255369D01*
X45899820Y-48071191D01*
X45863888Y-47890551D01*
X45793406Y-47720391D01*
X45691082Y-47567252D01*
X45560848Y-47437018D01*
X45407709Y-47334694D01*
X45237549Y-47264212D01*
X45056909Y-47228280D01*
X44872731Y-47228280D01*
X44817113Y-47239343D01*
X44806585Y-47226515D01*
X44709894Y-47147163D01*
X44599580Y-47088198D01*
X44479882Y-47051888D01*
X44355400Y-47039628D01*
X42855400Y-47039628D01*
X42730918Y-47051888D01*
X42611220Y-47088198D01*
X42500906Y-47147163D01*
X42404215Y-47226515D01*
X42324863Y-47323206D01*
X42265898Y-47433520D01*
X42229588Y-47553218D01*
X42217328Y-47677700D01*
X42217328Y-48677700D01*
X42229719Y-48802836D01*
X42237309Y-48827764D01*
X42229588Y-48853218D01*
X42217328Y-48977700D01*
X42217328Y-49092700D01*
X41461155Y-49092700D01*
X41352735Y-48984280D01*
X41264735Y-48925480D01*
X41348682Y-48917212D01*
X41468380Y-48880902D01*
X41578694Y-48821937D01*
X41675385Y-48742585D01*
X41754737Y-48645894D01*
X41813702Y-48535580D01*
X41850012Y-48415882D01*
X41862272Y-48291400D01*
X41862272Y-46937690D01*
X45027280Y-46937690D01*
X45092511Y-46981276D01*
X45262671Y-47051758D01*
X45443311Y-47087690D01*
X45627489Y-47087690D01*
X45808129Y-47051758D01*
X45978289Y-46981276D01*
X46131428Y-46878952D01*
X46261662Y-46748718D01*
X46363986Y-46595579D01*
X46399558Y-46509700D01*
X59826245Y-46509700D01*
X59697080Y-46638865D01*
X59544195Y-46867673D01*
X59438886Y-47121910D01*
X59385200Y-47391808D01*
X59385200Y-47666992D01*
X59438886Y-47936890D01*
X59544195Y-48191127D01*
X59697080Y-48419935D01*
X59891665Y-48614520D01*
X60120473Y-48767405D01*
X60197715Y-48799400D01*
X60120473Y-48831395D01*
X59891665Y-48984280D01*
X59697080Y-49178865D01*
X59544195Y-49407673D01*
X59438886Y-49661910D01*
X59385200Y-49931808D01*
X59385200Y-50206992D01*
X59438886Y-50476890D01*
X59544195Y-50731127D01*
X59569421Y-50768880D01*
X58577092Y-51761209D01*
X58529882Y-51746888D01*
X58405400Y-51734628D01*
X56905400Y-51734628D01*
X56780918Y-51746888D01*
X56661220Y-51783198D01*
X56550906Y-51842163D01*
X56454215Y-51921515D01*
X56374863Y-52018206D01*
X56315898Y-52128520D01*
X56279588Y-52248218D01*
X56267328Y-52372700D01*
X56267328Y-53522700D01*
X56279459Y-53646527D01*
X56287349Y-53672635D01*
X56279588Y-53698218D01*
X56267328Y-53822700D01*
X56267328Y-54822700D01*
X56279588Y-54947182D01*
X56315898Y-55066880D01*
X56374863Y-55177194D01*
X56454215Y-55273885D01*
X56550906Y-55353237D01*
X56661220Y-55412202D01*
X56780918Y-55448512D01*
X56905400Y-55460772D01*
X57080400Y-55460772D01*
X57080400Y-55604639D01*
X57120174Y-55804598D01*
X57198195Y-55992956D01*
X57311463Y-56162474D01*
X57455626Y-56306637D01*
X57625144Y-56419905D01*
X57813502Y-56497926D01*
X58013461Y-56537700D01*
X58217339Y-56537700D01*
X58417298Y-56497926D01*
X58605656Y-56419905D01*
X58775174Y-56306637D01*
X58919337Y-56162474D01*
X59032605Y-55992956D01*
X59110626Y-55804598D01*
X59150400Y-55604639D01*
X59150400Y-55400761D01*
X59110626Y-55200802D01*
X59032605Y-55012444D01*
X59018031Y-54990633D01*
X59031212Y-54947182D01*
X59043472Y-54822700D01*
X59043472Y-53822700D01*
X59031081Y-53697564D01*
X59023491Y-53672636D01*
X59031212Y-53647182D01*
X59043472Y-53522700D01*
X59043472Y-53443009D01*
X59080403Y-53412701D01*
X59104206Y-53383697D01*
X59448296Y-53039607D01*
X59544195Y-53271127D01*
X59697080Y-53499935D01*
X59891665Y-53694520D01*
X60120473Y-53847405D01*
X60374710Y-53952714D01*
X60644608Y-54006400D01*
X60919792Y-54006400D01*
X61044280Y-53981638D01*
X61370401Y-54307759D01*
X61370400Y-56420939D01*
X61189690Y-56346086D01*
X60919792Y-56292400D01*
X60644608Y-56292400D01*
X60374710Y-56346086D01*
X60120473Y-56451395D01*
X59891665Y-56604280D01*
X59697080Y-56798865D01*
X59544195Y-57027673D01*
X59438886Y-57281910D01*
X59385200Y-57551808D01*
X59385200Y-57826992D01*
X59438886Y-58096890D01*
X59480643Y-58197700D01*
X58153956Y-58197700D01*
X58115400Y-58193903D01*
X58076844Y-58197700D01*
X58076839Y-58197700D01*
X58036426Y-58201680D01*
X57961513Y-58209058D01*
X57813540Y-58253946D01*
X57677167Y-58326838D01*
X57557636Y-58424936D01*
X57533055Y-58454888D01*
X53997588Y-61990355D01*
X53967636Y-62014936D01*
X53943056Y-62044887D01*
X49259617Y-66728326D01*
X49182671Y-66743632D01*
X49012511Y-66814114D01*
X48859372Y-66916438D01*
X48729138Y-67046672D01*
X48626814Y-67199811D01*
X48556332Y-67369971D01*
X48520400Y-67550611D01*
X48520400Y-67734789D01*
X48556332Y-67915429D01*
X48626814Y-68085589D01*
X48729138Y-68238728D01*
X48859372Y-68368962D01*
X49012511Y-68471286D01*
X49182671Y-68541768D01*
X49363311Y-68577700D01*
X49547489Y-68577700D01*
X49728129Y-68541768D01*
X49898289Y-68471286D01*
X50051428Y-68368962D01*
X50085400Y-68334990D01*
X50189372Y-68438962D01*
X50342511Y-68541286D01*
X50512671Y-68611768D01*
X50589616Y-68627073D01*
X50600400Y-68637858D01*
X50600401Y-79775409D01*
X50519138Y-79856672D01*
X50416814Y-80009811D01*
X50346332Y-80179971D01*
X50310400Y-80360611D01*
X50310400Y-80544789D01*
X50346332Y-80725429D01*
X50416814Y-80895589D01*
X50519138Y-81048728D01*
X50649372Y-81178962D01*
X50802511Y-81281286D01*
X50972671Y-81351768D01*
X51153311Y-81387700D01*
X51337489Y-81387700D01*
X51518129Y-81351768D01*
X51688289Y-81281286D01*
X51841428Y-81178962D01*
X51971662Y-81048728D01*
X52073986Y-80895589D01*
X52144468Y-80725429D01*
X52180400Y-80544789D01*
X52180400Y-80360611D01*
X52173095Y-80323888D01*
X52174197Y-80312700D01*
X52170400Y-80274144D01*
X52170400Y-71086467D01*
X52222511Y-71121286D01*
X52392671Y-71191768D01*
X52573311Y-71227700D01*
X52757489Y-71227700D01*
X52938129Y-71191768D01*
X53108289Y-71121286D01*
X53261428Y-71018962D01*
X53391662Y-70888728D01*
X53493986Y-70735589D01*
X53564468Y-70565429D01*
X53579774Y-70488483D01*
X54660557Y-69407700D01*
X54977280Y-69407700D01*
X55042511Y-69451286D01*
X55212671Y-69521768D01*
X55393311Y-69557700D01*
X55577489Y-69557700D01*
X55758129Y-69521768D01*
X55928289Y-69451286D01*
X56081428Y-69348962D01*
X56211662Y-69218728D01*
X56313986Y-69065589D01*
X56384468Y-68895429D01*
X56420400Y-68714789D01*
X56420400Y-68530611D01*
X56413854Y-68497700D01*
X57652449Y-68497700D01*
X57639372Y-68506438D01*
X57509138Y-68636672D01*
X57406814Y-68789811D01*
X57336332Y-68959971D01*
X57300400Y-69140611D01*
X57300400Y-69324789D01*
X57336332Y-69505429D01*
X57406814Y-69675589D01*
X57450400Y-69740820D01*
X57450401Y-75424037D01*
X57446603Y-75462600D01*
X57461759Y-75616486D01*
X57506646Y-75764459D01*
X57540577Y-75827940D01*
X57579539Y-75900833D01*
X57620090Y-75950244D01*
X57653055Y-75990412D01*
X57653059Y-75990416D01*
X57677637Y-76020364D01*
X57707585Y-76044942D01*
X59409962Y-77747320D01*
X59385200Y-77871808D01*
X59385200Y-78146992D01*
X59438886Y-78416890D01*
X59544195Y-78671127D01*
X59697080Y-78899935D01*
X59891665Y-79094520D01*
X59979665Y-79153320D01*
X59895718Y-79161588D01*
X59776020Y-79197898D01*
X59665706Y-79256863D01*
X59569015Y-79336215D01*
X59489663Y-79432906D01*
X59430698Y-79543220D01*
X59394388Y-79662918D01*
X59384393Y-79764400D01*
X58250652Y-79764400D01*
X58212099Y-79760603D01*
X58173546Y-79764400D01*
X58173539Y-79764400D01*
X58072590Y-79774343D01*
X58058212Y-79775759D01*
X58023772Y-79786206D01*
X57910240Y-79820646D01*
X57773867Y-79893538D01*
X57713659Y-79942950D01*
X57684287Y-79967055D01*
X57684284Y-79967058D01*
X57654336Y-79991636D01*
X57629758Y-80021584D01*
X54523643Y-83127700D01*
X48330557Y-83127700D01*
X47720400Y-82517543D01*
X47720400Y-69780820D01*
X47763986Y-69715589D01*
X47834468Y-69545429D01*
X47870400Y-69364789D01*
X47870400Y-69180611D01*
X47834468Y-68999971D01*
X47763986Y-68829811D01*
X47661662Y-68676672D01*
X47531428Y-68546438D01*
X47378289Y-68444114D01*
X47208129Y-68373632D01*
X47027489Y-68337700D01*
X46843311Y-68337700D01*
X46662671Y-68373632D01*
X46492511Y-68444114D01*
X46339372Y-68546438D01*
X46209138Y-68676672D01*
X46106814Y-68829811D01*
X46036332Y-68999971D01*
X46000400Y-69180611D01*
X46000400Y-69364789D01*
X46036332Y-69545429D01*
X46106814Y-69715589D01*
X46150400Y-69780820D01*
X46150401Y-82804137D01*
X46146603Y-82842700D01*
X46161759Y-82996586D01*
X46206646Y-83144559D01*
X46206647Y-83144560D01*
X46279539Y-83280933D01*
X46320090Y-83330344D01*
X46353055Y-83370512D01*
X46353059Y-83370516D01*
X46377637Y-83400464D01*
X46407585Y-83425042D01*
X47423053Y-84440510D01*
X47447636Y-84470464D01*
X47567167Y-84568562D01*
X47703540Y-84641454D01*
X47851513Y-84686342D01*
X47926426Y-84693720D01*
X47966839Y-84697700D01*
X47966844Y-84697700D01*
X48005400Y-84701497D01*
X48043956Y-84697700D01*
X54810247Y-84697700D01*
X54848800Y-84701497D01*
X54887353Y-84697700D01*
X54887361Y-84697700D01*
X55002687Y-84686341D01*
X55150660Y-84641454D01*
X55287033Y-84568562D01*
X55406564Y-84470464D01*
X55431147Y-84440510D01*
X58537258Y-81334400D01*
X59384393Y-81334400D01*
X59394388Y-81435882D01*
X59430698Y-81555580D01*
X59489663Y-81665894D01*
X59569015Y-81762585D01*
X59665706Y-81841937D01*
X59776020Y-81900902D01*
X59895718Y-81937212D01*
X60020200Y-81949472D01*
X61544200Y-81949472D01*
X61668682Y-81937212D01*
X61788380Y-81900902D01*
X61898694Y-81841937D01*
X61995385Y-81762585D01*
X62074737Y-81665894D01*
X62133702Y-81555580D01*
X62170012Y-81435882D01*
X62182272Y-81311400D01*
X62182272Y-79787400D01*
X62170012Y-79662918D01*
X62133702Y-79543220D01*
X62074737Y-79432906D01*
X61995385Y-79336215D01*
X61898694Y-79256863D01*
X61788380Y-79197898D01*
X61668682Y-79161588D01*
X61584735Y-79153320D01*
X61672735Y-79094520D01*
X61867320Y-78899935D01*
X62020205Y-78671127D01*
X62125514Y-78416890D01*
X62179200Y-78146992D01*
X62179200Y-77871808D01*
X62125514Y-77601910D01*
X62020205Y-77347673D01*
X61867320Y-77118865D01*
X61672735Y-76924280D01*
X61443927Y-76771395D01*
X61366685Y-76739400D01*
X61443927Y-76707405D01*
X61672735Y-76554520D01*
X61867320Y-76359935D01*
X62020205Y-76131127D01*
X62125514Y-75876890D01*
X62179200Y-75606992D01*
X62179200Y-75331808D01*
X62125514Y-75061910D01*
X62020205Y-74807673D01*
X61867320Y-74578865D01*
X61672735Y-74384280D01*
X61443927Y-74231395D01*
X61366685Y-74199400D01*
X61443927Y-74167405D01*
X61672735Y-74014520D01*
X61867320Y-73819935D01*
X62020205Y-73591127D01*
X62125514Y-73336890D01*
X62179200Y-73066992D01*
X62179200Y-72791808D01*
X62125514Y-72521910D01*
X62020205Y-72267673D01*
X61867320Y-72038865D01*
X61672735Y-71844280D01*
X61443927Y-71691395D01*
X61366685Y-71659400D01*
X61443927Y-71627405D01*
X61672735Y-71474520D01*
X61867320Y-71279935D01*
X62020205Y-71051127D01*
X62125514Y-70796890D01*
X62179200Y-70526992D01*
X62179200Y-70251808D01*
X62125514Y-69981910D01*
X62020205Y-69727673D01*
X61867320Y-69498865D01*
X61672735Y-69304280D01*
X61443927Y-69151395D01*
X61366685Y-69119400D01*
X61443927Y-69087405D01*
X61672735Y-68934520D01*
X61867320Y-68739935D01*
X62020205Y-68511127D01*
X62125514Y-68256890D01*
X62179200Y-67986992D01*
X62179200Y-67711808D01*
X62125514Y-67441910D01*
X62020205Y-67187673D01*
X61867320Y-66958865D01*
X61672735Y-66764280D01*
X61443927Y-66611395D01*
X61366685Y-66579400D01*
X61443927Y-66547405D01*
X61672735Y-66394520D01*
X61867320Y-66199935D01*
X62020205Y-65971127D01*
X62125514Y-65716890D01*
X62179200Y-65446992D01*
X62179200Y-65171808D01*
X62125514Y-64901910D01*
X62020205Y-64647673D01*
X61867320Y-64418865D01*
X61672735Y-64224280D01*
X61443927Y-64071395D01*
X61366685Y-64039400D01*
X61443927Y-64007405D01*
X61672735Y-63854520D01*
X61867320Y-63659935D01*
X62020205Y-63431127D01*
X62125514Y-63176890D01*
X62179200Y-62906992D01*
X62179200Y-62631808D01*
X62125514Y-62361910D01*
X62020205Y-62107673D01*
X61867320Y-61878865D01*
X61672735Y-61684280D01*
X61443927Y-61531395D01*
X61366685Y-61499400D01*
X61443927Y-61467405D01*
X61672735Y-61314520D01*
X61867320Y-61119935D01*
X62020205Y-60891127D01*
X62125514Y-60636890D01*
X62179200Y-60366992D01*
X62179200Y-60091808D01*
X62125514Y-59821910D01*
X62020205Y-59567673D01*
X61993560Y-59527796D01*
X62007747Y-59510511D01*
X62465401Y-59052857D01*
X62465401Y-84288228D01*
X62444368Y-84182488D01*
X62321118Y-83884937D01*
X62142187Y-83617148D01*
X61914452Y-83389413D01*
X61646663Y-83210482D01*
X61349112Y-83087232D01*
X61033233Y-83024400D01*
X60711167Y-83024400D01*
X60395288Y-83087232D01*
X60097737Y-83210482D01*
X59829948Y-83389413D01*
X59602213Y-83617148D01*
X59423282Y-83884937D01*
X59300032Y-84182488D01*
X59237200Y-84498367D01*
X59237200Y-84820433D01*
X59300032Y-85136312D01*
X59423282Y-85433863D01*
X59602213Y-85701652D01*
X59829948Y-85929387D01*
X60097737Y-86108318D01*
X60395288Y-86231568D01*
X60501526Y-86252700D01*
X40742874Y-86252700D01*
X40849112Y-86231568D01*
X41146663Y-86108318D01*
X41414452Y-85929387D01*
X41642187Y-85701652D01*
X41821118Y-85433863D01*
X41944368Y-85136312D01*
X42007200Y-84820433D01*
X42007200Y-84498367D01*
X41944368Y-84182488D01*
X41821118Y-83884937D01*
X41642187Y-83617148D01*
X41414452Y-83389413D01*
X41146663Y-83210482D01*
X40849112Y-83087232D01*
X40533233Y-83024400D01*
X40211167Y-83024400D01*
X39895288Y-83087232D01*
X39597737Y-83210482D01*
X39329948Y-83389413D01*
X39102213Y-83617148D01*
X38923282Y-83884937D01*
X38800032Y-84182488D01*
X38785400Y-84256048D01*
X38785400Y-46509700D01*
X39117925Y-46509700D01*
X39110698Y-46523220D01*
G36*
X59438886Y-59821910D02*
G01*
X59385200Y-60091808D01*
X59385200Y-60366992D01*
X59438886Y-60636890D01*
X59544195Y-60891127D01*
X59697080Y-61119935D01*
X59891665Y-61314520D01*
X60120473Y-61467405D01*
X60197715Y-61499400D01*
X60120473Y-61531395D01*
X59891665Y-61684280D01*
X59697080Y-61878865D01*
X59544195Y-62107673D01*
X59438886Y-62361910D01*
X59385200Y-62631808D01*
X59385200Y-62906992D01*
X59438886Y-63176890D01*
X59544195Y-63431127D01*
X59697080Y-63659935D01*
X59891665Y-63854520D01*
X60120473Y-64007405D01*
X60197715Y-64039400D01*
X60120473Y-64071395D01*
X59891665Y-64224280D01*
X59697080Y-64418865D01*
X59544195Y-64647673D01*
X59438886Y-64901910D01*
X59385200Y-65171808D01*
X59385200Y-65446992D01*
X59438886Y-65716890D01*
X59544195Y-65971127D01*
X59697080Y-66199935D01*
X59891665Y-66394520D01*
X60120473Y-66547405D01*
X60197715Y-66579400D01*
X60120473Y-66611395D01*
X59891665Y-66764280D01*
X59697080Y-66958865D01*
X59544195Y-67187673D01*
X59438886Y-67441910D01*
X59385200Y-67711808D01*
X59385200Y-67882243D01*
X58687847Y-67184890D01*
X58663264Y-67154936D01*
X58543733Y-67056838D01*
X58407360Y-66983946D01*
X58259387Y-66939059D01*
X58144061Y-66927700D01*
X58144053Y-66927700D01*
X58105500Y-66923903D01*
X58066947Y-66927700D01*
X51293520Y-66927700D01*
X51285749Y-66922508D01*
X54121206Y-64087051D01*
X54142511Y-64101286D01*
X54312671Y-64171768D01*
X54493311Y-64207700D01*
X54677489Y-64207700D01*
X54858129Y-64171768D01*
X55028289Y-64101286D01*
X55181428Y-63998962D01*
X55311662Y-63868728D01*
X55413986Y-63715589D01*
X55484468Y-63545429D01*
X55520400Y-63364789D01*
X55520400Y-63180611D01*
X55484468Y-62999971D01*
X55413986Y-62829811D01*
X55399751Y-62808506D01*
X58440557Y-59767700D01*
X59461341Y-59767700D01*
X59438886Y-59821910D01*
G37*
X59438886Y-59821910D02*
X59385200Y-60091808D01*
X59385200Y-60366992D01*
X59438886Y-60636890D01*
X59544195Y-60891127D01*
X59697080Y-61119935D01*
X59891665Y-61314520D01*
X60120473Y-61467405D01*
X60197715Y-61499400D01*
X60120473Y-61531395D01*
X59891665Y-61684280D01*
X59697080Y-61878865D01*
X59544195Y-62107673D01*
X59438886Y-62361910D01*
X59385200Y-62631808D01*
X59385200Y-62906992D01*
X59438886Y-63176890D01*
X59544195Y-63431127D01*
X59697080Y-63659935D01*
X59891665Y-63854520D01*
X60120473Y-64007405D01*
X60197715Y-64039400D01*
X60120473Y-64071395D01*
X59891665Y-64224280D01*
X59697080Y-64418865D01*
X59544195Y-64647673D01*
X59438886Y-64901910D01*
X59385200Y-65171808D01*
X59385200Y-65446992D01*
X59438886Y-65716890D01*
X59544195Y-65971127D01*
X59697080Y-66199935D01*
X59891665Y-66394520D01*
X60120473Y-66547405D01*
X60197715Y-66579400D01*
X60120473Y-66611395D01*
X59891665Y-66764280D01*
X59697080Y-66958865D01*
X59544195Y-67187673D01*
X59438886Y-67441910D01*
X59385200Y-67711808D01*
X59385200Y-67882243D01*
X58687847Y-67184890D01*
X58663264Y-67154936D01*
X58543733Y-67056838D01*
X58407360Y-66983946D01*
X58259387Y-66939059D01*
X58144061Y-66927700D01*
X58144053Y-66927700D01*
X58105500Y-66923903D01*
X58066947Y-66927700D01*
X51293520Y-66927700D01*
X51285749Y-66922508D01*
X54121206Y-64087051D01*
X54142511Y-64101286D01*
X54312671Y-64171768D01*
X54493311Y-64207700D01*
X54677489Y-64207700D01*
X54858129Y-64171768D01*
X55028289Y-64101286D01*
X55181428Y-63998962D01*
X55311662Y-63868728D01*
X55413986Y-63715589D01*
X55484468Y-63545429D01*
X55520400Y-63364789D01*
X55520400Y-63180611D01*
X55484468Y-62999971D01*
X55413986Y-62829811D01*
X55399751Y-62808506D01*
X58440557Y-59767700D01*
X59461341Y-59767700D01*
X59438886Y-59821910D01*
G04 #@! TD*
M02*
