G04 #@! TF.GenerationSoftware,KiCad,Pcbnew,(5.1.6-0-10_14)*
G04 #@! TF.CreationDate,2021-05-07T03:20:06+02:00*
G04 #@! TF.ProjectId,ESCv1.1,45534376-312e-4312-9e6b-696361645f70,rev?*
G04 #@! TF.SameCoordinates,Original*
G04 #@! TF.FileFunction,Paste,Top*
G04 #@! TF.FilePolarity,Positive*
%FSLAX46Y46*%
G04 Gerber Fmt 4.6, Leading zero omitted, Abs format (unit mm)*
G04 Created by KiCad (PCBNEW (5.1.6-0-10_14)) date 2021-05-07 03:20:06*
%MOMM*%
%LPD*%
G01*
G04 APERTURE LIST*
%ADD10R,0.600000X0.700000*%
%ADD11O,0.500000X0.200000*%
%ADD12O,0.200000X0.500000*%
%ADD13R,0.600000X0.500000*%
G04 APERTURE END LIST*
G04 #@! TO.C,R3*
G36*
G01*
X43932900Y-83262700D02*
X44277900Y-83262700D01*
G75*
G02*
X44425400Y-83410200I0J-147500D01*
G01*
X44425400Y-83705200D01*
G75*
G02*
X44277900Y-83852700I-147500J0D01*
G01*
X43932900Y-83852700D01*
G75*
G02*
X43785400Y-83705200I0J147500D01*
G01*
X43785400Y-83410200D01*
G75*
G02*
X43932900Y-83262700I147500J0D01*
G01*
G37*
G36*
G01*
X43932900Y-82292700D02*
X44277900Y-82292700D01*
G75*
G02*
X44425400Y-82440200I0J-147500D01*
G01*
X44425400Y-82735200D01*
G75*
G02*
X44277900Y-82882700I-147500J0D01*
G01*
X43932900Y-82882700D01*
G75*
G02*
X43785400Y-82735200I0J147500D01*
G01*
X43785400Y-82440200D01*
G75*
G02*
X43932900Y-82292700I147500J0D01*
G01*
G37*
G04 #@! TD*
G04 #@! TO.C,C34*
G36*
G01*
X56945400Y-32908950D02*
X56945400Y-31996450D01*
G75*
G02*
X57189150Y-31752700I243750J0D01*
G01*
X57676650Y-31752700D01*
G75*
G02*
X57920400Y-31996450I0J-243750D01*
G01*
X57920400Y-32908950D01*
G75*
G02*
X57676650Y-33152700I-243750J0D01*
G01*
X57189150Y-33152700D01*
G75*
G02*
X56945400Y-32908950I0J243750D01*
G01*
G37*
G36*
G01*
X55070400Y-32908950D02*
X55070400Y-31996450D01*
G75*
G02*
X55314150Y-31752700I243750J0D01*
G01*
X55801650Y-31752700D01*
G75*
G02*
X56045400Y-31996450I0J-243750D01*
G01*
X56045400Y-32908950D01*
G75*
G02*
X55801650Y-33152700I-243750J0D01*
G01*
X55314150Y-33152700D01*
G75*
G02*
X55070400Y-32908950I0J243750D01*
G01*
G37*
G04 #@! TD*
G04 #@! TO.C,C33*
G36*
G01*
X56935400Y-36928950D02*
X56935400Y-36016450D01*
G75*
G02*
X57179150Y-35772700I243750J0D01*
G01*
X57666650Y-35772700D01*
G75*
G02*
X57910400Y-36016450I0J-243750D01*
G01*
X57910400Y-36928950D01*
G75*
G02*
X57666650Y-37172700I-243750J0D01*
G01*
X57179150Y-37172700D01*
G75*
G02*
X56935400Y-36928950I0J243750D01*
G01*
G37*
G36*
G01*
X55060400Y-36928950D02*
X55060400Y-36016450D01*
G75*
G02*
X55304150Y-35772700I243750J0D01*
G01*
X55791650Y-35772700D01*
G75*
G02*
X56035400Y-36016450I0J-243750D01*
G01*
X56035400Y-36928950D01*
G75*
G02*
X55791650Y-37172700I-243750J0D01*
G01*
X55304150Y-37172700D01*
G75*
G02*
X55060400Y-36928950I0J243750D01*
G01*
G37*
G04 #@! TD*
G04 #@! TO.C,C32*
G36*
G01*
X56942900Y-34928950D02*
X56942900Y-34016450D01*
G75*
G02*
X57186650Y-33772700I243750J0D01*
G01*
X57674150Y-33772700D01*
G75*
G02*
X57917900Y-34016450I0J-243750D01*
G01*
X57917900Y-34928950D01*
G75*
G02*
X57674150Y-35172700I-243750J0D01*
G01*
X57186650Y-35172700D01*
G75*
G02*
X56942900Y-34928950I0J243750D01*
G01*
G37*
G36*
G01*
X55067900Y-34928950D02*
X55067900Y-34016450D01*
G75*
G02*
X55311650Y-33772700I243750J0D01*
G01*
X55799150Y-33772700D01*
G75*
G02*
X56042900Y-34016450I0J-243750D01*
G01*
X56042900Y-34928950D01*
G75*
G02*
X55799150Y-35172700I-243750J0D01*
G01*
X55311650Y-35172700D01*
G75*
G02*
X55067900Y-34928950I0J243750D01*
G01*
G37*
G04 #@! TD*
G04 #@! TO.C,C31*
G36*
G01*
X56935400Y-38968950D02*
X56935400Y-38056450D01*
G75*
G02*
X57179150Y-37812700I243750J0D01*
G01*
X57666650Y-37812700D01*
G75*
G02*
X57910400Y-38056450I0J-243750D01*
G01*
X57910400Y-38968950D01*
G75*
G02*
X57666650Y-39212700I-243750J0D01*
G01*
X57179150Y-39212700D01*
G75*
G02*
X56935400Y-38968950I0J243750D01*
G01*
G37*
G36*
G01*
X55060400Y-38968950D02*
X55060400Y-38056450D01*
G75*
G02*
X55304150Y-37812700I243750J0D01*
G01*
X55791650Y-37812700D01*
G75*
G02*
X56035400Y-38056450I0J-243750D01*
G01*
X56035400Y-38968950D01*
G75*
G02*
X55791650Y-39212700I-243750J0D01*
G01*
X55304150Y-39212700D01*
G75*
G02*
X55060400Y-38968950I0J243750D01*
G01*
G37*
G04 #@! TD*
G04 #@! TO.C,C30*
G36*
G01*
X52577900Y-40076450D02*
X52577900Y-40988950D01*
G75*
G02*
X52334150Y-41232700I-243750J0D01*
G01*
X51846650Y-41232700D01*
G75*
G02*
X51602900Y-40988950I0J243750D01*
G01*
X51602900Y-40076450D01*
G75*
G02*
X51846650Y-39832700I243750J0D01*
G01*
X52334150Y-39832700D01*
G75*
G02*
X52577900Y-40076450I0J-243750D01*
G01*
G37*
G36*
G01*
X54452900Y-40076450D02*
X54452900Y-40988950D01*
G75*
G02*
X54209150Y-41232700I-243750J0D01*
G01*
X53721650Y-41232700D01*
G75*
G02*
X53477900Y-40988950I0J243750D01*
G01*
X53477900Y-40076450D01*
G75*
G02*
X53721650Y-39832700I243750J0D01*
G01*
X54209150Y-39832700D01*
G75*
G02*
X54452900Y-40076450I0J-243750D01*
G01*
G37*
G04 #@! TD*
G04 #@! TO.C,C29*
G36*
G01*
X50025400Y-36938950D02*
X50025400Y-36026450D01*
G75*
G02*
X50269150Y-35782700I243750J0D01*
G01*
X50756650Y-35782700D01*
G75*
G02*
X51000400Y-36026450I0J-243750D01*
G01*
X51000400Y-36938950D01*
G75*
G02*
X50756650Y-37182700I-243750J0D01*
G01*
X50269150Y-37182700D01*
G75*
G02*
X50025400Y-36938950I0J243750D01*
G01*
G37*
G36*
G01*
X48150400Y-36938950D02*
X48150400Y-36026450D01*
G75*
G02*
X48394150Y-35782700I243750J0D01*
G01*
X48881650Y-35782700D01*
G75*
G02*
X49125400Y-36026450I0J-243750D01*
G01*
X49125400Y-36938950D01*
G75*
G02*
X48881650Y-37182700I-243750J0D01*
G01*
X48394150Y-37182700D01*
G75*
G02*
X48150400Y-36938950I0J243750D01*
G01*
G37*
G04 #@! TD*
G04 #@! TO.C,C28*
G36*
G01*
X56932900Y-40988950D02*
X56932900Y-40076450D01*
G75*
G02*
X57176650Y-39832700I243750J0D01*
G01*
X57664150Y-39832700D01*
G75*
G02*
X57907900Y-40076450I0J-243750D01*
G01*
X57907900Y-40988950D01*
G75*
G02*
X57664150Y-41232700I-243750J0D01*
G01*
X57176650Y-41232700D01*
G75*
G02*
X56932900Y-40988950I0J243750D01*
G01*
G37*
G36*
G01*
X55057900Y-40988950D02*
X55057900Y-40076450D01*
G75*
G02*
X55301650Y-39832700I243750J0D01*
G01*
X55789150Y-39832700D01*
G75*
G02*
X56032900Y-40076450I0J-243750D01*
G01*
X56032900Y-40988950D01*
G75*
G02*
X55789150Y-41232700I-243750J0D01*
G01*
X55301650Y-41232700D01*
G75*
G02*
X55057900Y-40988950I0J243750D01*
G01*
G37*
G04 #@! TD*
G04 #@! TO.C,C27*
G36*
G01*
X52585400Y-38056450D02*
X52585400Y-38968950D01*
G75*
G02*
X52341650Y-39212700I-243750J0D01*
G01*
X51854150Y-39212700D01*
G75*
G02*
X51610400Y-38968950I0J243750D01*
G01*
X51610400Y-38056450D01*
G75*
G02*
X51854150Y-37812700I243750J0D01*
G01*
X52341650Y-37812700D01*
G75*
G02*
X52585400Y-38056450I0J-243750D01*
G01*
G37*
G36*
G01*
X54460400Y-38056450D02*
X54460400Y-38968950D01*
G75*
G02*
X54216650Y-39212700I-243750J0D01*
G01*
X53729150Y-39212700D01*
G75*
G02*
X53485400Y-38968950I0J243750D01*
G01*
X53485400Y-38056450D01*
G75*
G02*
X53729150Y-37812700I243750J0D01*
G01*
X54216650Y-37812700D01*
G75*
G02*
X54460400Y-38056450I0J-243750D01*
G01*
G37*
G04 #@! TD*
G04 #@! TO.C,C26*
G36*
G01*
X50025400Y-40988950D02*
X50025400Y-40076450D01*
G75*
G02*
X50269150Y-39832700I243750J0D01*
G01*
X50756650Y-39832700D01*
G75*
G02*
X51000400Y-40076450I0J-243750D01*
G01*
X51000400Y-40988950D01*
G75*
G02*
X50756650Y-41232700I-243750J0D01*
G01*
X50269150Y-41232700D01*
G75*
G02*
X50025400Y-40988950I0J243750D01*
G01*
G37*
G36*
G01*
X48150400Y-40988950D02*
X48150400Y-40076450D01*
G75*
G02*
X48394150Y-39832700I243750J0D01*
G01*
X48881650Y-39832700D01*
G75*
G02*
X49125400Y-40076450I0J-243750D01*
G01*
X49125400Y-40988950D01*
G75*
G02*
X48881650Y-41232700I-243750J0D01*
G01*
X48394150Y-41232700D01*
G75*
G02*
X48150400Y-40988950I0J243750D01*
G01*
G37*
G04 #@! TD*
G04 #@! TO.C,C25*
G36*
G01*
X50025400Y-32908950D02*
X50025400Y-31996450D01*
G75*
G02*
X50269150Y-31752700I243750J0D01*
G01*
X50756650Y-31752700D01*
G75*
G02*
X51000400Y-31996450I0J-243750D01*
G01*
X51000400Y-32908950D01*
G75*
G02*
X50756650Y-33152700I-243750J0D01*
G01*
X50269150Y-33152700D01*
G75*
G02*
X50025400Y-32908950I0J243750D01*
G01*
G37*
G36*
G01*
X48150400Y-32908950D02*
X48150400Y-31996450D01*
G75*
G02*
X48394150Y-31752700I243750J0D01*
G01*
X48881650Y-31752700D01*
G75*
G02*
X49125400Y-31996450I0J-243750D01*
G01*
X49125400Y-32908950D01*
G75*
G02*
X48881650Y-33152700I-243750J0D01*
G01*
X48394150Y-33152700D01*
G75*
G02*
X48150400Y-32908950I0J243750D01*
G01*
G37*
G04 #@! TD*
G04 #@! TO.C,C24*
G36*
G01*
X52585400Y-36016450D02*
X52585400Y-36928950D01*
G75*
G02*
X52341650Y-37172700I-243750J0D01*
G01*
X51854150Y-37172700D01*
G75*
G02*
X51610400Y-36928950I0J243750D01*
G01*
X51610400Y-36016450D01*
G75*
G02*
X51854150Y-35772700I243750J0D01*
G01*
X52341650Y-35772700D01*
G75*
G02*
X52585400Y-36016450I0J-243750D01*
G01*
G37*
G36*
G01*
X54460400Y-36016450D02*
X54460400Y-36928950D01*
G75*
G02*
X54216650Y-37172700I-243750J0D01*
G01*
X53729150Y-37172700D01*
G75*
G02*
X53485400Y-36928950I0J243750D01*
G01*
X53485400Y-36016450D01*
G75*
G02*
X53729150Y-35772700I243750J0D01*
G01*
X54216650Y-35772700D01*
G75*
G02*
X54460400Y-36016450I0J-243750D01*
G01*
G37*
G04 #@! TD*
G04 #@! TO.C,C23*
G36*
G01*
X52587900Y-34016450D02*
X52587900Y-34928950D01*
G75*
G02*
X52344150Y-35172700I-243750J0D01*
G01*
X51856650Y-35172700D01*
G75*
G02*
X51612900Y-34928950I0J243750D01*
G01*
X51612900Y-34016450D01*
G75*
G02*
X51856650Y-33772700I243750J0D01*
G01*
X52344150Y-33772700D01*
G75*
G02*
X52587900Y-34016450I0J-243750D01*
G01*
G37*
G36*
G01*
X54462900Y-34016450D02*
X54462900Y-34928950D01*
G75*
G02*
X54219150Y-35172700I-243750J0D01*
G01*
X53731650Y-35172700D01*
G75*
G02*
X53487900Y-34928950I0J243750D01*
G01*
X53487900Y-34016450D01*
G75*
G02*
X53731650Y-33772700I243750J0D01*
G01*
X54219150Y-33772700D01*
G75*
G02*
X54462900Y-34016450I0J-243750D01*
G01*
G37*
G04 #@! TD*
G04 #@! TO.C,C22*
G36*
G01*
X50025400Y-34948950D02*
X50025400Y-34036450D01*
G75*
G02*
X50269150Y-33792700I243750J0D01*
G01*
X50756650Y-33792700D01*
G75*
G02*
X51000400Y-34036450I0J-243750D01*
G01*
X51000400Y-34948950D01*
G75*
G02*
X50756650Y-35192700I-243750J0D01*
G01*
X50269150Y-35192700D01*
G75*
G02*
X50025400Y-34948950I0J243750D01*
G01*
G37*
G36*
G01*
X48150400Y-34948950D02*
X48150400Y-34036450D01*
G75*
G02*
X48394150Y-33792700I243750J0D01*
G01*
X48881650Y-33792700D01*
G75*
G02*
X49125400Y-34036450I0J-243750D01*
G01*
X49125400Y-34948950D01*
G75*
G02*
X48881650Y-35192700I-243750J0D01*
G01*
X48394150Y-35192700D01*
G75*
G02*
X48150400Y-34948950I0J243750D01*
G01*
G37*
G04 #@! TD*
G04 #@! TO.C,C21*
G36*
G01*
X59485400Y-36016450D02*
X59485400Y-36928950D01*
G75*
G02*
X59241650Y-37172700I-243750J0D01*
G01*
X58754150Y-37172700D01*
G75*
G02*
X58510400Y-36928950I0J243750D01*
G01*
X58510400Y-36016450D01*
G75*
G02*
X58754150Y-35772700I243750J0D01*
G01*
X59241650Y-35772700D01*
G75*
G02*
X59485400Y-36016450I0J-243750D01*
G01*
G37*
G36*
G01*
X61360400Y-36016450D02*
X61360400Y-36928950D01*
G75*
G02*
X61116650Y-37172700I-243750J0D01*
G01*
X60629150Y-37172700D01*
G75*
G02*
X60385400Y-36928950I0J243750D01*
G01*
X60385400Y-36016450D01*
G75*
G02*
X60629150Y-35772700I243750J0D01*
G01*
X61116650Y-35772700D01*
G75*
G02*
X61360400Y-36016450I0J-243750D01*
G01*
G37*
G04 #@! TD*
G04 #@! TO.C,C20*
G36*
G01*
X52585400Y-31996450D02*
X52585400Y-32908950D01*
G75*
G02*
X52341650Y-33152700I-243750J0D01*
G01*
X51854150Y-33152700D01*
G75*
G02*
X51610400Y-32908950I0J243750D01*
G01*
X51610400Y-31996450D01*
G75*
G02*
X51854150Y-31752700I243750J0D01*
G01*
X52341650Y-31752700D01*
G75*
G02*
X52585400Y-31996450I0J-243750D01*
G01*
G37*
G36*
G01*
X54460400Y-31996450D02*
X54460400Y-32908950D01*
G75*
G02*
X54216650Y-33152700I-243750J0D01*
G01*
X53729150Y-33152700D01*
G75*
G02*
X53485400Y-32908950I0J243750D01*
G01*
X53485400Y-31996450D01*
G75*
G02*
X53729150Y-31752700I243750J0D01*
G01*
X54216650Y-31752700D01*
G75*
G02*
X54460400Y-31996450I0J-243750D01*
G01*
G37*
G04 #@! TD*
G04 #@! TO.C,C19*
G36*
G01*
X50025400Y-38968950D02*
X50025400Y-38056450D01*
G75*
G02*
X50269150Y-37812700I243750J0D01*
G01*
X50756650Y-37812700D01*
G75*
G02*
X51000400Y-38056450I0J-243750D01*
G01*
X51000400Y-38968950D01*
G75*
G02*
X50756650Y-39212700I-243750J0D01*
G01*
X50269150Y-39212700D01*
G75*
G02*
X50025400Y-38968950I0J243750D01*
G01*
G37*
G36*
G01*
X48150400Y-38968950D02*
X48150400Y-38056450D01*
G75*
G02*
X48394150Y-37812700I243750J0D01*
G01*
X48881650Y-37812700D01*
G75*
G02*
X49125400Y-38056450I0J-243750D01*
G01*
X49125400Y-38968950D01*
G75*
G02*
X48881650Y-39212700I-243750J0D01*
G01*
X48394150Y-39212700D01*
G75*
G02*
X48150400Y-38968950I0J243750D01*
G01*
G37*
G04 #@! TD*
G04 #@! TO.C,C18*
G36*
G01*
X59485400Y-34016450D02*
X59485400Y-34928950D01*
G75*
G02*
X59241650Y-35172700I-243750J0D01*
G01*
X58754150Y-35172700D01*
G75*
G02*
X58510400Y-34928950I0J243750D01*
G01*
X58510400Y-34016450D01*
G75*
G02*
X58754150Y-33772700I243750J0D01*
G01*
X59241650Y-33772700D01*
G75*
G02*
X59485400Y-34016450I0J-243750D01*
G01*
G37*
G36*
G01*
X61360400Y-34016450D02*
X61360400Y-34928950D01*
G75*
G02*
X61116650Y-35172700I-243750J0D01*
G01*
X60629150Y-35172700D01*
G75*
G02*
X60385400Y-34928950I0J243750D01*
G01*
X60385400Y-34016450D01*
G75*
G02*
X60629150Y-33772700I243750J0D01*
G01*
X61116650Y-33772700D01*
G75*
G02*
X61360400Y-34016450I0J-243750D01*
G01*
G37*
G04 #@! TD*
G04 #@! TO.C,C17*
G36*
G01*
X59485400Y-40076450D02*
X59485400Y-40988950D01*
G75*
G02*
X59241650Y-41232700I-243750J0D01*
G01*
X58754150Y-41232700D01*
G75*
G02*
X58510400Y-40988950I0J243750D01*
G01*
X58510400Y-40076450D01*
G75*
G02*
X58754150Y-39832700I243750J0D01*
G01*
X59241650Y-39832700D01*
G75*
G02*
X59485400Y-40076450I0J-243750D01*
G01*
G37*
G36*
G01*
X61360400Y-40076450D02*
X61360400Y-40988950D01*
G75*
G02*
X61116650Y-41232700I-243750J0D01*
G01*
X60629150Y-41232700D01*
G75*
G02*
X60385400Y-40988950I0J243750D01*
G01*
X60385400Y-40076450D01*
G75*
G02*
X60629150Y-39832700I243750J0D01*
G01*
X61116650Y-39832700D01*
G75*
G02*
X61360400Y-40076450I0J-243750D01*
G01*
G37*
G04 #@! TD*
G04 #@! TO.C,C16*
G36*
G01*
X59477900Y-31996450D02*
X59477900Y-32908950D01*
G75*
G02*
X59234150Y-33152700I-243750J0D01*
G01*
X58746650Y-33152700D01*
G75*
G02*
X58502900Y-32908950I0J243750D01*
G01*
X58502900Y-31996450D01*
G75*
G02*
X58746650Y-31752700I243750J0D01*
G01*
X59234150Y-31752700D01*
G75*
G02*
X59477900Y-31996450I0J-243750D01*
G01*
G37*
G36*
G01*
X61352900Y-31996450D02*
X61352900Y-32908950D01*
G75*
G02*
X61109150Y-33152700I-243750J0D01*
G01*
X60621650Y-33152700D01*
G75*
G02*
X60377900Y-32908950I0J243750D01*
G01*
X60377900Y-31996450D01*
G75*
G02*
X60621650Y-31752700I243750J0D01*
G01*
X61109150Y-31752700D01*
G75*
G02*
X61352900Y-31996450I0J-243750D01*
G01*
G37*
G04 #@! TD*
G04 #@! TO.C,C15*
G36*
G01*
X59485400Y-38056450D02*
X59485400Y-38968950D01*
G75*
G02*
X59241650Y-39212700I-243750J0D01*
G01*
X58754150Y-39212700D01*
G75*
G02*
X58510400Y-38968950I0J243750D01*
G01*
X58510400Y-38056450D01*
G75*
G02*
X58754150Y-37812700I243750J0D01*
G01*
X59241650Y-37812700D01*
G75*
G02*
X59485400Y-38056450I0J-243750D01*
G01*
G37*
G36*
G01*
X61360400Y-38056450D02*
X61360400Y-38968950D01*
G75*
G02*
X61116650Y-39212700I-243750J0D01*
G01*
X60629150Y-39212700D01*
G75*
G02*
X60385400Y-38968950I0J243750D01*
G01*
X60385400Y-38056450D01*
G75*
G02*
X60629150Y-37812700I243750J0D01*
G01*
X61116650Y-37812700D01*
G75*
G02*
X61360400Y-38056450I0J-243750D01*
G01*
G37*
G04 #@! TD*
D10*
G04 #@! TO.C,D4*
X47235400Y-38562700D03*
X45835400Y-38562700D03*
G04 #@! TD*
G04 #@! TO.C,J1*
G36*
G01*
X53955400Y-86387701D02*
X53955400Y-85087699D01*
G75*
G02*
X54205399Y-84837700I249999J0D01*
G01*
X54905401Y-84837700D01*
G75*
G02*
X55155400Y-85087699I0J-249999D01*
G01*
X55155400Y-86387701D01*
G75*
G02*
X54905401Y-86637700I-249999J0D01*
G01*
X54205399Y-86637700D01*
G75*
G02*
X53955400Y-86387701I0J249999D01*
G01*
G37*
G36*
G01*
X46355400Y-86387701D02*
X46355400Y-85087699D01*
G75*
G02*
X46605399Y-84837700I249999J0D01*
G01*
X47305401Y-84837700D01*
G75*
G02*
X47555400Y-85087699I0J-249999D01*
G01*
X47555400Y-86387701D01*
G75*
G02*
X47305401Y-86637700I-249999J0D01*
G01*
X46605399Y-86637700D01*
G75*
G02*
X46355400Y-86387701I0J249999D01*
G01*
G37*
G36*
G01*
X52955400Y-82487700D02*
X52955400Y-81237700D01*
G75*
G02*
X53105400Y-81087700I150000J0D01*
G01*
X53405400Y-81087700D01*
G75*
G02*
X53555400Y-81237700I0J-150000D01*
G01*
X53555400Y-82487700D01*
G75*
G02*
X53405400Y-82637700I-150000J0D01*
G01*
X53105400Y-82637700D01*
G75*
G02*
X52955400Y-82487700I0J150000D01*
G01*
G37*
G36*
G01*
X51955400Y-82487700D02*
X51955400Y-81237700D01*
G75*
G02*
X52105400Y-81087700I150000J0D01*
G01*
X52405400Y-81087700D01*
G75*
G02*
X52555400Y-81237700I0J-150000D01*
G01*
X52555400Y-82487700D01*
G75*
G02*
X52405400Y-82637700I-150000J0D01*
G01*
X52105400Y-82637700D01*
G75*
G02*
X51955400Y-82487700I0J150000D01*
G01*
G37*
G36*
G01*
X50955400Y-82487700D02*
X50955400Y-81237700D01*
G75*
G02*
X51105400Y-81087700I150000J0D01*
G01*
X51405400Y-81087700D01*
G75*
G02*
X51555400Y-81237700I0J-150000D01*
G01*
X51555400Y-82487700D01*
G75*
G02*
X51405400Y-82637700I-150000J0D01*
G01*
X51105400Y-82637700D01*
G75*
G02*
X50955400Y-82487700I0J150000D01*
G01*
G37*
G36*
G01*
X49955400Y-82487700D02*
X49955400Y-81237700D01*
G75*
G02*
X50105400Y-81087700I150000J0D01*
G01*
X50405400Y-81087700D01*
G75*
G02*
X50555400Y-81237700I0J-150000D01*
G01*
X50555400Y-82487700D01*
G75*
G02*
X50405400Y-82637700I-150000J0D01*
G01*
X50105400Y-82637700D01*
G75*
G02*
X49955400Y-82487700I0J150000D01*
G01*
G37*
G36*
G01*
X48955400Y-82487700D02*
X48955400Y-81237700D01*
G75*
G02*
X49105400Y-81087700I150000J0D01*
G01*
X49405400Y-81087700D01*
G75*
G02*
X49555400Y-81237700I0J-150000D01*
G01*
X49555400Y-82487700D01*
G75*
G02*
X49405400Y-82637700I-150000J0D01*
G01*
X49105400Y-82637700D01*
G75*
G02*
X48955400Y-82487700I0J150000D01*
G01*
G37*
G36*
G01*
X47955400Y-82487700D02*
X47955400Y-81237700D01*
G75*
G02*
X48105400Y-81087700I150000J0D01*
G01*
X48405400Y-81087700D01*
G75*
G02*
X48555400Y-81237700I0J-150000D01*
G01*
X48555400Y-82487700D01*
G75*
G02*
X48405400Y-82637700I-150000J0D01*
G01*
X48105400Y-82637700D01*
G75*
G02*
X47955400Y-82487700I0J150000D01*
G01*
G37*
G04 #@! TD*
G04 #@! TO.C,C10*
G36*
G01*
X57381650Y-46817700D02*
X56469150Y-46817700D01*
G75*
G02*
X56225400Y-46573950I0J243750D01*
G01*
X56225400Y-46086450D01*
G75*
G02*
X56469150Y-45842700I243750J0D01*
G01*
X57381650Y-45842700D01*
G75*
G02*
X57625400Y-46086450I0J-243750D01*
G01*
X57625400Y-46573950D01*
G75*
G02*
X57381650Y-46817700I-243750J0D01*
G01*
G37*
G36*
G01*
X57381650Y-44942700D02*
X56469150Y-44942700D01*
G75*
G02*
X56225400Y-44698950I0J243750D01*
G01*
X56225400Y-44211450D01*
G75*
G02*
X56469150Y-43967700I243750J0D01*
G01*
X57381650Y-43967700D01*
G75*
G02*
X57625400Y-44211450I0J-243750D01*
G01*
X57625400Y-44698950D01*
G75*
G02*
X57381650Y-44942700I-243750J0D01*
G01*
G37*
G04 #@! TD*
G04 #@! TO.C,R13*
G36*
G01*
X42281560Y-72572340D02*
X42281560Y-72227340D01*
G75*
G02*
X42429060Y-72079840I147500J0D01*
G01*
X42724060Y-72079840D01*
G75*
G02*
X42871560Y-72227340I0J-147500D01*
G01*
X42871560Y-72572340D01*
G75*
G02*
X42724060Y-72719840I-147500J0D01*
G01*
X42429060Y-72719840D01*
G75*
G02*
X42281560Y-72572340I0J147500D01*
G01*
G37*
G36*
G01*
X43251560Y-72572340D02*
X43251560Y-72227340D01*
G75*
G02*
X43399060Y-72079840I147500J0D01*
G01*
X43694060Y-72079840D01*
G75*
G02*
X43841560Y-72227340I0J-147500D01*
G01*
X43841560Y-72572340D01*
G75*
G02*
X43694060Y-72719840I-147500J0D01*
G01*
X43399060Y-72719840D01*
G75*
G02*
X43251560Y-72572340I0J147500D01*
G01*
G37*
G04 #@! TD*
G04 #@! TO.C,R14*
G36*
G01*
X53882900Y-63732700D02*
X54227900Y-63732700D01*
G75*
G02*
X54375400Y-63880200I0J-147500D01*
G01*
X54375400Y-64175200D01*
G75*
G02*
X54227900Y-64322700I-147500J0D01*
G01*
X53882900Y-64322700D01*
G75*
G02*
X53735400Y-64175200I0J147500D01*
G01*
X53735400Y-63880200D01*
G75*
G02*
X53882900Y-63732700I147500J0D01*
G01*
G37*
G36*
G01*
X53882900Y-64702700D02*
X54227900Y-64702700D01*
G75*
G02*
X54375400Y-64850200I0J-147500D01*
G01*
X54375400Y-65145200D01*
G75*
G02*
X54227900Y-65292700I-147500J0D01*
G01*
X53882900Y-65292700D01*
G75*
G02*
X53735400Y-65145200I0J147500D01*
G01*
X53735400Y-64850200D01*
G75*
G02*
X53882900Y-64702700I147500J0D01*
G01*
G37*
G04 #@! TD*
G04 #@! TO.C,R16*
G36*
G01*
X40982260Y-44014000D02*
X40982260Y-43669000D01*
G75*
G02*
X41129760Y-43521500I147500J0D01*
G01*
X41424760Y-43521500D01*
G75*
G02*
X41572260Y-43669000I0J-147500D01*
G01*
X41572260Y-44014000D01*
G75*
G02*
X41424760Y-44161500I-147500J0D01*
G01*
X41129760Y-44161500D01*
G75*
G02*
X40982260Y-44014000I0J147500D01*
G01*
G37*
G36*
G01*
X41952260Y-44014000D02*
X41952260Y-43669000D01*
G75*
G02*
X42099760Y-43521500I147500J0D01*
G01*
X42394760Y-43521500D01*
G75*
G02*
X42542260Y-43669000I0J-147500D01*
G01*
X42542260Y-44014000D01*
G75*
G02*
X42394760Y-44161500I-147500J0D01*
G01*
X42099760Y-44161500D01*
G75*
G02*
X41952260Y-44014000I0J147500D01*
G01*
G37*
G04 #@! TD*
D11*
G04 #@! TO.C,U1*
X52535560Y-51663280D03*
X52535560Y-51163280D03*
X52535560Y-50663280D03*
X52535560Y-50163280D03*
X52535560Y-49663280D03*
X52535560Y-49163280D03*
X52535560Y-48663280D03*
X52535560Y-48163280D03*
X52535560Y-47663280D03*
X52535560Y-47163280D03*
X52535560Y-46663280D03*
X52535560Y-46163280D03*
D12*
X52035560Y-45663280D03*
X51535560Y-45663280D03*
X51035560Y-45663280D03*
X50535560Y-45663280D03*
X50035560Y-45663280D03*
X49535560Y-45663280D03*
X49035560Y-45663280D03*
X48535560Y-45663280D03*
D11*
X48035560Y-46163280D03*
X48035560Y-46663280D03*
X48035560Y-47163280D03*
X48035560Y-47663280D03*
X48035560Y-48163280D03*
X48035560Y-48663280D03*
X48035560Y-49163280D03*
X48035560Y-49663280D03*
X48035560Y-50163280D03*
X48035560Y-50663280D03*
X48035560Y-51163280D03*
X48035560Y-51663280D03*
D12*
X48535560Y-52163280D03*
X49035560Y-52163280D03*
X49535560Y-52163280D03*
X50035560Y-52163280D03*
X50535560Y-52163280D03*
X51035560Y-52163280D03*
X51535560Y-52163280D03*
X52035560Y-52163280D03*
G04 #@! TD*
G04 #@! TO.C,L1*
G36*
G01*
X57266060Y-53473680D02*
X55116060Y-53473680D01*
G75*
G02*
X54866060Y-53223680I0J250000D01*
G01*
X54866060Y-52473680D01*
G75*
G02*
X55116060Y-52223680I250000J0D01*
G01*
X57266060Y-52223680D01*
G75*
G02*
X57516060Y-52473680I0J-250000D01*
G01*
X57516060Y-53223680D01*
G75*
G02*
X57266060Y-53473680I-250000J0D01*
G01*
G37*
G36*
G01*
X57266060Y-50673680D02*
X55116060Y-50673680D01*
G75*
G02*
X54866060Y-50423680I0J250000D01*
G01*
X54866060Y-49673680D01*
G75*
G02*
X55116060Y-49423680I250000J0D01*
G01*
X57266060Y-49423680D01*
G75*
G02*
X57516060Y-49673680I0J-250000D01*
G01*
X57516060Y-50423680D01*
G75*
G02*
X57266060Y-50673680I-250000J0D01*
G01*
G37*
G04 #@! TD*
G04 #@! TO.C,C3*
G36*
G01*
X57527160Y-54446830D02*
X57527160Y-55359330D01*
G75*
G02*
X57283410Y-55603080I-243750J0D01*
G01*
X56795910Y-55603080D01*
G75*
G02*
X56552160Y-55359330I0J243750D01*
G01*
X56552160Y-54446830D01*
G75*
G02*
X56795910Y-54203080I243750J0D01*
G01*
X57283410Y-54203080D01*
G75*
G02*
X57527160Y-54446830I0J-243750D01*
G01*
G37*
G36*
G01*
X55652160Y-54446830D02*
X55652160Y-55359330D01*
G75*
G02*
X55408410Y-55603080I-243750J0D01*
G01*
X54920910Y-55603080D01*
G75*
G02*
X54677160Y-55359330I0J243750D01*
G01*
X54677160Y-54446830D01*
G75*
G02*
X54920910Y-54203080I243750J0D01*
G01*
X55408410Y-54203080D01*
G75*
G02*
X55652160Y-54446830I0J-243750D01*
G01*
G37*
G04 #@! TD*
G04 #@! TO.C,C1*
G36*
G01*
X44052900Y-47912700D02*
X44397900Y-47912700D01*
G75*
G02*
X44545400Y-48060200I0J-147500D01*
G01*
X44545400Y-48355200D01*
G75*
G02*
X44397900Y-48502700I-147500J0D01*
G01*
X44052900Y-48502700D01*
G75*
G02*
X43905400Y-48355200I0J147500D01*
G01*
X43905400Y-48060200D01*
G75*
G02*
X44052900Y-47912700I147500J0D01*
G01*
G37*
G36*
G01*
X44052900Y-48882700D02*
X44397900Y-48882700D01*
G75*
G02*
X44545400Y-49030200I0J-147500D01*
G01*
X44545400Y-49325200D01*
G75*
G02*
X44397900Y-49472700I-147500J0D01*
G01*
X44052900Y-49472700D01*
G75*
G02*
X43905400Y-49325200I0J147500D01*
G01*
X43905400Y-49030200D01*
G75*
G02*
X44052900Y-48882700I147500J0D01*
G01*
G37*
G04 #@! TD*
G04 #@! TO.C,R7*
G36*
G01*
X45582900Y-35942700D02*
X45927900Y-35942700D01*
G75*
G02*
X46075400Y-36090200I0J-147500D01*
G01*
X46075400Y-36385200D01*
G75*
G02*
X45927900Y-36532700I-147500J0D01*
G01*
X45582900Y-36532700D01*
G75*
G02*
X45435400Y-36385200I0J147500D01*
G01*
X45435400Y-36090200D01*
G75*
G02*
X45582900Y-35942700I147500J0D01*
G01*
G37*
G36*
G01*
X45582900Y-36912700D02*
X45927900Y-36912700D01*
G75*
G02*
X46075400Y-37060200I0J-147500D01*
G01*
X46075400Y-37355200D01*
G75*
G02*
X45927900Y-37502700I-147500J0D01*
G01*
X45582900Y-37502700D01*
G75*
G02*
X45435400Y-37355200I0J147500D01*
G01*
X45435400Y-37060200D01*
G75*
G02*
X45582900Y-36912700I147500J0D01*
G01*
G37*
G04 #@! TD*
G04 #@! TO.C,R8*
G36*
G01*
X43844100Y-73278900D02*
X43844100Y-73623900D01*
G75*
G02*
X43696600Y-73771400I-147500J0D01*
G01*
X43401600Y-73771400D01*
G75*
G02*
X43254100Y-73623900I0J147500D01*
G01*
X43254100Y-73278900D01*
G75*
G02*
X43401600Y-73131400I147500J0D01*
G01*
X43696600Y-73131400D01*
G75*
G02*
X43844100Y-73278900I0J-147500D01*
G01*
G37*
G36*
G01*
X42874100Y-73278900D02*
X42874100Y-73623900D01*
G75*
G02*
X42726600Y-73771400I-147500J0D01*
G01*
X42431600Y-73771400D01*
G75*
G02*
X42284100Y-73623900I0J147500D01*
G01*
X42284100Y-73278900D01*
G75*
G02*
X42431600Y-73131400I147500J0D01*
G01*
X42726600Y-73131400D01*
G75*
G02*
X42874100Y-73278900I0J-147500D01*
G01*
G37*
G04 #@! TD*
G04 #@! TO.C,R9*
G36*
G01*
X47417900Y-37432700D02*
X47072900Y-37432700D01*
G75*
G02*
X46925400Y-37285200I0J147500D01*
G01*
X46925400Y-36990200D01*
G75*
G02*
X47072900Y-36842700I147500J0D01*
G01*
X47417900Y-36842700D01*
G75*
G02*
X47565400Y-36990200I0J-147500D01*
G01*
X47565400Y-37285200D01*
G75*
G02*
X47417900Y-37432700I-147500J0D01*
G01*
G37*
G36*
G01*
X47417900Y-36462700D02*
X47072900Y-36462700D01*
G75*
G02*
X46925400Y-36315200I0J147500D01*
G01*
X46925400Y-36020200D01*
G75*
G02*
X47072900Y-35872700I147500J0D01*
G01*
X47417900Y-35872700D01*
G75*
G02*
X47565400Y-36020200I0J-147500D01*
G01*
X47565400Y-36315200D01*
G75*
G02*
X47417900Y-36462700I-147500J0D01*
G01*
G37*
G04 #@! TD*
G04 #@! TO.C,R10*
G36*
G01*
X51896520Y-60246600D02*
X51551520Y-60246600D01*
G75*
G02*
X51404020Y-60099100I0J147500D01*
G01*
X51404020Y-59804100D01*
G75*
G02*
X51551520Y-59656600I147500J0D01*
G01*
X51896520Y-59656600D01*
G75*
G02*
X52044020Y-59804100I0J-147500D01*
G01*
X52044020Y-60099100D01*
G75*
G02*
X51896520Y-60246600I-147500J0D01*
G01*
G37*
G36*
G01*
X51896520Y-59276600D02*
X51551520Y-59276600D01*
G75*
G02*
X51404020Y-59129100I0J147500D01*
G01*
X51404020Y-58834100D01*
G75*
G02*
X51551520Y-58686600I147500J0D01*
G01*
X51896520Y-58686600D01*
G75*
G02*
X52044020Y-58834100I0J-147500D01*
G01*
X52044020Y-59129100D01*
G75*
G02*
X51896520Y-59276600I-147500J0D01*
G01*
G37*
G04 #@! TD*
G04 #@! TO.C,R11*
G36*
G01*
X52657900Y-57702700D02*
X52312900Y-57702700D01*
G75*
G02*
X52165400Y-57555200I0J147500D01*
G01*
X52165400Y-57260200D01*
G75*
G02*
X52312900Y-57112700I147500J0D01*
G01*
X52657900Y-57112700D01*
G75*
G02*
X52805400Y-57260200I0J-147500D01*
G01*
X52805400Y-57555200D01*
G75*
G02*
X52657900Y-57702700I-147500J0D01*
G01*
G37*
G36*
G01*
X52657900Y-56732700D02*
X52312900Y-56732700D01*
G75*
G02*
X52165400Y-56585200I0J147500D01*
G01*
X52165400Y-56290200D01*
G75*
G02*
X52312900Y-56142700I147500J0D01*
G01*
X52657900Y-56142700D01*
G75*
G02*
X52805400Y-56290200I0J-147500D01*
G01*
X52805400Y-56585200D01*
G75*
G02*
X52657900Y-56732700I-147500J0D01*
G01*
G37*
G04 #@! TD*
G04 #@! TO.C,R12*
G36*
G01*
X53727900Y-55722700D02*
X53382900Y-55722700D01*
G75*
G02*
X53235400Y-55575200I0J147500D01*
G01*
X53235400Y-55280200D01*
G75*
G02*
X53382900Y-55132700I147500J0D01*
G01*
X53727900Y-55132700D01*
G75*
G02*
X53875400Y-55280200I0J-147500D01*
G01*
X53875400Y-55575200D01*
G75*
G02*
X53727900Y-55722700I-147500J0D01*
G01*
G37*
G36*
G01*
X53727900Y-54752700D02*
X53382900Y-54752700D01*
G75*
G02*
X53235400Y-54605200I0J147500D01*
G01*
X53235400Y-54310200D01*
G75*
G02*
X53382900Y-54162700I147500J0D01*
G01*
X53727900Y-54162700D01*
G75*
G02*
X53875400Y-54310200I0J-147500D01*
G01*
X53875400Y-54605200D01*
G75*
G02*
X53727900Y-54752700I-147500J0D01*
G01*
G37*
G04 #@! TD*
G04 #@! TO.C,R1*
G36*
G01*
X55027960Y-56523380D02*
X55372960Y-56523380D01*
G75*
G02*
X55520460Y-56670880I0J-147500D01*
G01*
X55520460Y-56965880D01*
G75*
G02*
X55372960Y-57113380I-147500J0D01*
G01*
X55027960Y-57113380D01*
G75*
G02*
X54880460Y-56965880I0J147500D01*
G01*
X54880460Y-56670880D01*
G75*
G02*
X55027960Y-56523380I147500J0D01*
G01*
G37*
G36*
G01*
X55027960Y-57493380D02*
X55372960Y-57493380D01*
G75*
G02*
X55520460Y-57640880I0J-147500D01*
G01*
X55520460Y-57935880D01*
G75*
G02*
X55372960Y-58083380I-147500J0D01*
G01*
X55027960Y-58083380D01*
G75*
G02*
X54880460Y-57935880I0J147500D01*
G01*
X54880460Y-57640880D01*
G75*
G02*
X55027960Y-57493380I147500J0D01*
G01*
G37*
G04 #@! TD*
G04 #@! TO.C,C11*
G36*
G01*
X44387900Y-51452700D02*
X44042900Y-51452700D01*
G75*
G02*
X43895400Y-51305200I0J147500D01*
G01*
X43895400Y-51010200D01*
G75*
G02*
X44042900Y-50862700I147500J0D01*
G01*
X44387900Y-50862700D01*
G75*
G02*
X44535400Y-51010200I0J-147500D01*
G01*
X44535400Y-51305200D01*
G75*
G02*
X44387900Y-51452700I-147500J0D01*
G01*
G37*
G36*
G01*
X44387900Y-50482700D02*
X44042900Y-50482700D01*
G75*
G02*
X43895400Y-50335200I0J147500D01*
G01*
X43895400Y-50040200D01*
G75*
G02*
X44042900Y-49892700I147500J0D01*
G01*
X44387900Y-49892700D01*
G75*
G02*
X44535400Y-50040200I0J-147500D01*
G01*
X44535400Y-50335200D01*
G75*
G02*
X44387900Y-50482700I-147500J0D01*
G01*
G37*
G04 #@! TD*
G04 #@! TO.C,C13*
G36*
G01*
X52845400Y-58665200D02*
X52845400Y-58320200D01*
G75*
G02*
X52992900Y-58172700I147500J0D01*
G01*
X53287900Y-58172700D01*
G75*
G02*
X53435400Y-58320200I0J-147500D01*
G01*
X53435400Y-58665200D01*
G75*
G02*
X53287900Y-58812700I-147500J0D01*
G01*
X52992900Y-58812700D01*
G75*
G02*
X52845400Y-58665200I0J147500D01*
G01*
G37*
G36*
G01*
X53815400Y-58665200D02*
X53815400Y-58320200D01*
G75*
G02*
X53962900Y-58172700I147500J0D01*
G01*
X54257900Y-58172700D01*
G75*
G02*
X54405400Y-58320200I0J-147500D01*
G01*
X54405400Y-58665200D01*
G75*
G02*
X54257900Y-58812700I-147500J0D01*
G01*
X53962900Y-58812700D01*
G75*
G02*
X53815400Y-58665200I0J147500D01*
G01*
G37*
G04 #@! TD*
G04 #@! TO.C,C14*
G36*
G01*
X53382900Y-56132700D02*
X53727900Y-56132700D01*
G75*
G02*
X53875400Y-56280200I0J-147500D01*
G01*
X53875400Y-56575200D01*
G75*
G02*
X53727900Y-56722700I-147500J0D01*
G01*
X53382900Y-56722700D01*
G75*
G02*
X53235400Y-56575200I0J147500D01*
G01*
X53235400Y-56280200D01*
G75*
G02*
X53382900Y-56132700I147500J0D01*
G01*
G37*
G36*
G01*
X53382900Y-57102700D02*
X53727900Y-57102700D01*
G75*
G02*
X53875400Y-57250200I0J-147500D01*
G01*
X53875400Y-57545200D01*
G75*
G02*
X53727900Y-57692700I-147500J0D01*
G01*
X53382900Y-57692700D01*
G75*
G02*
X53235400Y-57545200I0J147500D01*
G01*
X53235400Y-57250200D01*
G75*
G02*
X53382900Y-57102700I147500J0D01*
G01*
G37*
G04 #@! TD*
G04 #@! TO.C,R15*
G36*
G01*
X43025400Y-45075200D02*
X43025400Y-44730200D01*
G75*
G02*
X43172900Y-44582700I147500J0D01*
G01*
X43467900Y-44582700D01*
G75*
G02*
X43615400Y-44730200I0J-147500D01*
G01*
X43615400Y-45075200D01*
G75*
G02*
X43467900Y-45222700I-147500J0D01*
G01*
X43172900Y-45222700D01*
G75*
G02*
X43025400Y-45075200I0J147500D01*
G01*
G37*
G36*
G01*
X43995400Y-45075200D02*
X43995400Y-44730200D01*
G75*
G02*
X44142900Y-44582700I147500J0D01*
G01*
X44437900Y-44582700D01*
G75*
G02*
X44585400Y-44730200I0J-147500D01*
G01*
X44585400Y-45075200D01*
G75*
G02*
X44437900Y-45222700I-147500J0D01*
G01*
X44142900Y-45222700D01*
G75*
G02*
X43995400Y-45075200I0J147500D01*
G01*
G37*
G04 #@! TD*
G04 #@! TO.C,C9*
G36*
G01*
X42539860Y-44748500D02*
X42539860Y-45093500D01*
G75*
G02*
X42392360Y-45241000I-147500J0D01*
G01*
X42097360Y-45241000D01*
G75*
G02*
X41949860Y-45093500I0J147500D01*
G01*
X41949860Y-44748500D01*
G75*
G02*
X42097360Y-44601000I147500J0D01*
G01*
X42392360Y-44601000D01*
G75*
G02*
X42539860Y-44748500I0J-147500D01*
G01*
G37*
G36*
G01*
X41569860Y-44748500D02*
X41569860Y-45093500D01*
G75*
G02*
X41422360Y-45241000I-147500J0D01*
G01*
X41127360Y-45241000D01*
G75*
G02*
X40979860Y-45093500I0J147500D01*
G01*
X40979860Y-44748500D01*
G75*
G02*
X41127360Y-44601000I147500J0D01*
G01*
X41422360Y-44601000D01*
G75*
G02*
X41569860Y-44748500I0J-147500D01*
G01*
G37*
G04 #@! TD*
D13*
G04 #@! TO.C,Q1*
X45860400Y-33861000D03*
X45860400Y-34861000D03*
X47160400Y-34361000D03*
G04 #@! TD*
G04 #@! TO.C,C6*
G36*
G01*
X53821460Y-48334420D02*
X54166460Y-48334420D01*
G75*
G02*
X54313960Y-48481920I0J-147500D01*
G01*
X54313960Y-48776920D01*
G75*
G02*
X54166460Y-48924420I-147500J0D01*
G01*
X53821460Y-48924420D01*
G75*
G02*
X53673960Y-48776920I0J147500D01*
G01*
X53673960Y-48481920D01*
G75*
G02*
X53821460Y-48334420I147500J0D01*
G01*
G37*
G36*
G01*
X53821460Y-49304420D02*
X54166460Y-49304420D01*
G75*
G02*
X54313960Y-49451920I0J-147500D01*
G01*
X54313960Y-49746920D01*
G75*
G02*
X54166460Y-49894420I-147500J0D01*
G01*
X53821460Y-49894420D01*
G75*
G02*
X53673960Y-49746920I0J147500D01*
G01*
X53673960Y-49451920D01*
G75*
G02*
X53821460Y-49304420I147500J0D01*
G01*
G37*
G04 #@! TD*
G04 #@! TO.C,C7*
G36*
G01*
X54461100Y-45850740D02*
X54116100Y-45850740D01*
G75*
G02*
X53968600Y-45703240I0J147500D01*
G01*
X53968600Y-45408240D01*
G75*
G02*
X54116100Y-45260740I147500J0D01*
G01*
X54461100Y-45260740D01*
G75*
G02*
X54608600Y-45408240I0J-147500D01*
G01*
X54608600Y-45703240D01*
G75*
G02*
X54461100Y-45850740I-147500J0D01*
G01*
G37*
G36*
G01*
X54461100Y-44880740D02*
X54116100Y-44880740D01*
G75*
G02*
X53968600Y-44733240I0J147500D01*
G01*
X53968600Y-44438240D01*
G75*
G02*
X54116100Y-44290740I147500J0D01*
G01*
X54461100Y-44290740D01*
G75*
G02*
X54608600Y-44438240I0J-147500D01*
G01*
X54608600Y-44733240D01*
G75*
G02*
X54461100Y-44880740I-147500J0D01*
G01*
G37*
G04 #@! TD*
G04 #@! TO.C,C8*
G36*
G01*
X55548220Y-45850740D02*
X55203220Y-45850740D01*
G75*
G02*
X55055720Y-45703240I0J147500D01*
G01*
X55055720Y-45408240D01*
G75*
G02*
X55203220Y-45260740I147500J0D01*
G01*
X55548220Y-45260740D01*
G75*
G02*
X55695720Y-45408240I0J-147500D01*
G01*
X55695720Y-45703240D01*
G75*
G02*
X55548220Y-45850740I-147500J0D01*
G01*
G37*
G36*
G01*
X55548220Y-44880740D02*
X55203220Y-44880740D01*
G75*
G02*
X55055720Y-44733240I0J147500D01*
G01*
X55055720Y-44438240D01*
G75*
G02*
X55203220Y-44290740I147500J0D01*
G01*
X55548220Y-44290740D01*
G75*
G02*
X55695720Y-44438240I0J-147500D01*
G01*
X55695720Y-44733240D01*
G75*
G02*
X55548220Y-44880740I-147500J0D01*
G01*
G37*
G04 #@! TD*
G04 #@! TO.C,R6*
G36*
G01*
X44407400Y-80266360D02*
X44407400Y-80611360D01*
G75*
G02*
X44259900Y-80758860I-147500J0D01*
G01*
X43964900Y-80758860D01*
G75*
G02*
X43817400Y-80611360I0J147500D01*
G01*
X43817400Y-80266360D01*
G75*
G02*
X43964900Y-80118860I147500J0D01*
G01*
X44259900Y-80118860D01*
G75*
G02*
X44407400Y-80266360I0J-147500D01*
G01*
G37*
G36*
G01*
X43437400Y-80266360D02*
X43437400Y-80611360D01*
G75*
G02*
X43289900Y-80758860I-147500J0D01*
G01*
X42994900Y-80758860D01*
G75*
G02*
X42847400Y-80611360I0J147500D01*
G01*
X42847400Y-80266360D01*
G75*
G02*
X42994900Y-80118860I147500J0D01*
G01*
X43289900Y-80118860D01*
G75*
G02*
X43437400Y-80266360I0J-147500D01*
G01*
G37*
G04 #@! TD*
G04 #@! TO.C,C5*
G36*
G01*
X57291700Y-47903130D02*
X57291700Y-48415630D01*
G75*
G02*
X57072950Y-48634380I-218750J0D01*
G01*
X56635450Y-48634380D01*
G75*
G02*
X56416700Y-48415630I0J218750D01*
G01*
X56416700Y-47903130D01*
G75*
G02*
X56635450Y-47684380I218750J0D01*
G01*
X57072950Y-47684380D01*
G75*
G02*
X57291700Y-47903130I0J-218750D01*
G01*
G37*
G36*
G01*
X55716700Y-47903130D02*
X55716700Y-48415630D01*
G75*
G02*
X55497950Y-48634380I-218750J0D01*
G01*
X55060450Y-48634380D01*
G75*
G02*
X54841700Y-48415630I0J218750D01*
G01*
X54841700Y-47903130D01*
G75*
G02*
X55060450Y-47684380I218750J0D01*
G01*
X55497950Y-47684380D01*
G75*
G02*
X55716700Y-47903130I0J-218750D01*
G01*
G37*
G04 #@! TD*
G04 #@! TO.C,C12*
G36*
G01*
X51413920Y-61125000D02*
X51413920Y-60780000D01*
G75*
G02*
X51561420Y-60632500I147500J0D01*
G01*
X51856420Y-60632500D01*
G75*
G02*
X52003920Y-60780000I0J-147500D01*
G01*
X52003920Y-61125000D01*
G75*
G02*
X51856420Y-61272500I-147500J0D01*
G01*
X51561420Y-61272500D01*
G75*
G02*
X51413920Y-61125000I0J147500D01*
G01*
G37*
G36*
G01*
X52383920Y-61125000D02*
X52383920Y-60780000D01*
G75*
G02*
X52531420Y-60632500I147500J0D01*
G01*
X52826420Y-60632500D01*
G75*
G02*
X52973920Y-60780000I0J-147500D01*
G01*
X52973920Y-61125000D01*
G75*
G02*
X52826420Y-61272500I-147500J0D01*
G01*
X52531420Y-61272500D01*
G75*
G02*
X52383920Y-61125000I0J147500D01*
G01*
G37*
G04 #@! TD*
G04 #@! TO.C,D2*
G36*
G01*
X41670400Y-30150200D02*
X41670400Y-30495200D01*
G75*
G02*
X41522900Y-30642700I-147500J0D01*
G01*
X41227900Y-30642700D01*
G75*
G02*
X41080400Y-30495200I0J147500D01*
G01*
X41080400Y-30150200D01*
G75*
G02*
X41227900Y-30002700I147500J0D01*
G01*
X41522900Y-30002700D01*
G75*
G02*
X41670400Y-30150200I0J-147500D01*
G01*
G37*
G36*
G01*
X40700400Y-30150200D02*
X40700400Y-30495200D01*
G75*
G02*
X40552900Y-30642700I-147500J0D01*
G01*
X40257900Y-30642700D01*
G75*
G02*
X40110400Y-30495200I0J147500D01*
G01*
X40110400Y-30150200D01*
G75*
G02*
X40257900Y-30002700I147500J0D01*
G01*
X40552900Y-30002700D01*
G75*
G02*
X40700400Y-30150200I0J-147500D01*
G01*
G37*
G04 #@! TD*
G04 #@! TO.C,D3*
G36*
G01*
X57239860Y-58083380D02*
X56894860Y-58083380D01*
G75*
G02*
X56747360Y-57935880I0J147500D01*
G01*
X56747360Y-57640880D01*
G75*
G02*
X56894860Y-57493380I147500J0D01*
G01*
X57239860Y-57493380D01*
G75*
G02*
X57387360Y-57640880I0J-147500D01*
G01*
X57387360Y-57935880D01*
G75*
G02*
X57239860Y-58083380I-147500J0D01*
G01*
G37*
G36*
G01*
X57239860Y-57113380D02*
X56894860Y-57113380D01*
G75*
G02*
X56747360Y-56965880I0J147500D01*
G01*
X56747360Y-56670880D01*
G75*
G02*
X56894860Y-56523380I147500J0D01*
G01*
X57239860Y-56523380D01*
G75*
G02*
X57387360Y-56670880I0J-147500D01*
G01*
X57387360Y-56965880D01*
G75*
G02*
X57239860Y-57113380I-147500J0D01*
G01*
G37*
G04 #@! TD*
G04 #@! TO.C,D5*
G36*
G01*
X44423000Y-72200700D02*
X44768000Y-72200700D01*
G75*
G02*
X44915500Y-72348200I0J-147500D01*
G01*
X44915500Y-72643200D01*
G75*
G02*
X44768000Y-72790700I-147500J0D01*
G01*
X44423000Y-72790700D01*
G75*
G02*
X44275500Y-72643200I0J147500D01*
G01*
X44275500Y-72348200D01*
G75*
G02*
X44423000Y-72200700I147500J0D01*
G01*
G37*
G36*
G01*
X44423000Y-73170700D02*
X44768000Y-73170700D01*
G75*
G02*
X44915500Y-73318200I0J-147500D01*
G01*
X44915500Y-73613200D01*
G75*
G02*
X44768000Y-73760700I-147500J0D01*
G01*
X44423000Y-73760700D01*
G75*
G02*
X44275500Y-73613200I0J147500D01*
G01*
X44275500Y-73318200D01*
G75*
G02*
X44423000Y-73170700I147500J0D01*
G01*
G37*
G04 #@! TD*
G04 #@! TO.C,C2*
G36*
G01*
X43337980Y-75751620D02*
X43337980Y-75406620D01*
G75*
G02*
X43485480Y-75259120I147500J0D01*
G01*
X43780480Y-75259120D01*
G75*
G02*
X43927980Y-75406620I0J-147500D01*
G01*
X43927980Y-75751620D01*
G75*
G02*
X43780480Y-75899120I-147500J0D01*
G01*
X43485480Y-75899120D01*
G75*
G02*
X43337980Y-75751620I0J147500D01*
G01*
G37*
G36*
G01*
X44307980Y-75751620D02*
X44307980Y-75406620D01*
G75*
G02*
X44455480Y-75259120I147500J0D01*
G01*
X44750480Y-75259120D01*
G75*
G02*
X44897980Y-75406620I0J-147500D01*
G01*
X44897980Y-75751620D01*
G75*
G02*
X44750480Y-75899120I-147500J0D01*
G01*
X44455480Y-75899120D01*
G75*
G02*
X44307980Y-75751620I0J147500D01*
G01*
G37*
G04 #@! TD*
G04 #@! TO.C,D1*
G36*
G01*
X42834700Y-81693400D02*
X42834700Y-81348400D01*
G75*
G02*
X42982200Y-81200900I147500J0D01*
G01*
X43277200Y-81200900D01*
G75*
G02*
X43424700Y-81348400I0J-147500D01*
G01*
X43424700Y-81693400D01*
G75*
G02*
X43277200Y-81840900I-147500J0D01*
G01*
X42982200Y-81840900D01*
G75*
G02*
X42834700Y-81693400I0J147500D01*
G01*
G37*
G36*
G01*
X43804700Y-81693400D02*
X43804700Y-81348400D01*
G75*
G02*
X43952200Y-81200900I147500J0D01*
G01*
X44247200Y-81200900D01*
G75*
G02*
X44394700Y-81348400I0J-147500D01*
G01*
X44394700Y-81693400D01*
G75*
G02*
X44247200Y-81840900I-147500J0D01*
G01*
X43952200Y-81840900D01*
G75*
G02*
X43804700Y-81693400I0J147500D01*
G01*
G37*
G04 #@! TD*
G04 #@! TO.C,R2*
G36*
G01*
X43337980Y-74705140D02*
X43337980Y-74360140D01*
G75*
G02*
X43485480Y-74212640I147500J0D01*
G01*
X43780480Y-74212640D01*
G75*
G02*
X43927980Y-74360140I0J-147500D01*
G01*
X43927980Y-74705140D01*
G75*
G02*
X43780480Y-74852640I-147500J0D01*
G01*
X43485480Y-74852640D01*
G75*
G02*
X43337980Y-74705140I0J147500D01*
G01*
G37*
G36*
G01*
X44307980Y-74705140D02*
X44307980Y-74360140D01*
G75*
G02*
X44455480Y-74212640I147500J0D01*
G01*
X44750480Y-74212640D01*
G75*
G02*
X44897980Y-74360140I0J-147500D01*
G01*
X44897980Y-74705140D01*
G75*
G02*
X44750480Y-74852640I-147500J0D01*
G01*
X44455480Y-74852640D01*
G75*
G02*
X44307980Y-74705140I0J147500D01*
G01*
G37*
G04 #@! TD*
M02*
